<?xml version="1.0" encoding="utf-8"?>
<!-- Generator: Adobe Illustrator 27.5.0, SVG Export Plug-In . SVG Version: 6.00 Build 0)  -->
<svg version="1.1" id="Layer_1" xmlns="http://www.w3.org/2000/svg" xmlns:xlink="http://www.w3.org/1999/xlink" x="0px" y="0px"
	 viewBox="0 0 3306.998 2000" style="enable-background:new 0 0 3306.998 2000;" xml:space="preserve">
<g>
	<g>
		<rect style="fill:#FFFFFF;" width="3306.998" height="2000"/>
	</g>
</g>
<g>
	<path style="opacity:0.2;fill:#FAE0B2;" d="M508.597,712.813c-21.328,18.168-46.648,33.482-76.721,44.383
		c-256.836,93.098-166.678,305.75-141.501,380.231c21.928,64.872,145.817,141.621-34.619,309.468
		c-172.251,160.234,1.578,429.448,17.702,453.541h235.139V712.813z"/>
	<path style="opacity:0.2;fill:#FAE0B2;" d="M2987.749,798.587c-176.239-107.003-317.86,71.335-456.334-70.286
		c-60.394-61.766-10.49-215.054-135.327-265.408c-175.348-70.729-614.739,195.122-545.502-1.049
		c69.236-196.171-507.783-283.671-507.783-283.671c-26.634,0.135-53.056,1.349-79.173,3.481v1718.783h1764.789
		C3096.678,1819.78,3156.223,900.874,2987.749,798.587z"/>
	<g style="opacity:0.5;">
		
			<rect x="508.597" y="177.366" transform="matrix(-1 -1.224647e-16 1.224647e-16 -1 1772.0981 2074.4404)" style="fill:#9BC1F9;" width="754.904" height="1719.708"/>
		<rect x="535.557" y="202.402" style="fill:#C5DDF9;" width="701.264" height="1667.713"/>
		<polygon style="fill:#FFFFFF;" points="937.936,1870.115 854.659,1870.115 577.692,202.402 660.969,202.402 		"/>
		<polygon style="fill:#FFFFFF;" points="826.459,202.402 998.109,202.402 1236.821,1639.767 1236.821,1870.115 1103.426,1870.115 
					"/>
	</g>
	<g>
		<g>
			<path style="fill:#327F6B;" d="M433.008,192.583c-0.89,1.238-2.231,2.959-4.191,5.332c-0.026,0.034-0.052,0.068-0.077,0.103
				c0.077,0.281,24.87,90.074,5.344,96.892c-17.907,6.253-19.416-59.58-12.155-87.174c-3.968,6.132-7.521,12.571-10.465,19.301
				c-5.032,11.503-8.476,26.344-10.747,42.892c3.64,5.962,25.877,43.427,14.742,51.136c-9.035,6.255-14.953-18.376-16.585-34.648
				c-1.306,14.707-1.872,30.255-1.936,45.692c12.034,2.949,48.366,13.383,49.051,32.026c0.766,20.834-30.468,14.689-49.042-23.953
				c0.104,15.35,0.666,30.41,1.444,44.237c8.652,7.802,44.219,41.351,38.485,60.736c-5.807,19.633-28.117-2.855-37.529-45.741
				c1.748,24.557,3.967,43.201,4.948,49.089c0.324,1.94,0.686,4.436,1.072,7.375l0,0c0.142,1.076,0.287,2.215,0.435,3.405v0
				c0,0,55.287,74.498,39.455,91.648c-11.224,12.16-28.025-37.608-36.855-67.607c3.057,31.849,5.74,73.39,3.177,86.203l-0.2-0.041
				c1.955,28.72,3.295,80.937-12.53,83.574c-21.885,3.648,0-54.712,0-54.712s-26.707,10.659-29.18,0
				c-4.14-17.844,33.27-42.972,39.305-46.892c-0.07-15.861-1.513-38.342-3.314-58.755c-2.013,43.772-12.95,56.789-17.21,58.23
				c-5.277,1.785-16.142-8.924-12.417-42.761c2.894-26.289,18.993-43.287,26.034-49.565c-0.482-3.735-0.944-6.955-1.369-9.504
				c-0.941-5.648-3.01-22.963-4.717-45.99c-4.278,35.995-14.399,65.443-23.526,47.204c-8.897-17.78,14.335-51.797,22.488-62.845
				c-0.942-16.054-1.608-33.9-1.611-52.024c-6.788,17.793-36.555,51.248-40.27,32.103c-3.653-18.827,33.298-38.415,40.336-41.96
				c0.213-15.513,0.962-31.015,2.48-45.565c-8.262,14.668-33.467,44.717-36.458,28.496c-3.415-18.52,38.839-46.948,38.839-46.948
				s0.026,0.028,0.062,0.07c2.276-13.775,5.456-26.136,9.8-36.066c2.81-6.423,6.156-12.588,9.884-18.476
				c-15.62,10.595-39.518,20.018-38.557,8.962c1.043-11.998,37.804-21.702,49.525-24.497c0.4-0.577,0.669-0.818,0.838-0.812
				c4.2-5.167,8.624-10.045,13.13-14.631h5.123C442.896,181.221,437.806,186.714,433.008,192.583z"/>
			<path style="fill:#327F6B;" d="M464.816,223.822c-11.662,6.573-7.394-26.238-3.517-47.701h11.396
				C474.798,194.062,475.301,217.913,464.816,223.822z"/>
		</g>
		<g>
			<path style="fill:#327F6B;" d="M449.565,221.98c-15.494-2.169-1.567-25.56,20.268-45.858h22.87
				C481.172,197.242,463.639,223.95,449.565,221.98z"/>
			<path style="fill:#327F6B;" d="M511.505,176.122h23.442c12.022,14.992,21.103,33.452,12.932,50.009
				C536.343,249.507,520.79,207.542,511.505,176.122z"/>
			<path style="fill:#3C8F7C;" d="M497.166,176.122h3.883c-0.997,6.938-2.077,14.636-3.206,22.967
				c9.385,18.512,57.304,116.203,34.469,137.161c-25.253,23.177-34.247-95.475-34.247-95.475l-1.331-33.419
				c-3.823,28.825-8.047,63.969-11.375,100.249c8.687,7.154,44.606,38.686,29.656,59.433c-13.906,19.299-26.195-34.063-30.16-53.853
				c-2.133,24.003-3.848,48.383-4.77,71.651c9.179,4.264,47.881,23.512,37.264,40.317c-10.282,16.276-31.642-19.845-37.603-30.629
				c-0.432,14.264-0.535,28.014-0.224,40.898c10.022,4.71,54.876,26.658,43.795,37.123c-12.454,11.761-38.052-19.728-38.052-19.728
				s20.064,80.611-1.75,71.962c-21.814-8.648-7.244-76.795-7.936-78.524l0.372-2.195c-0.424-10.592-0.538-21.858-0.392-33.589
				c-4.049,10.375-11.872,27.659-16.585,20.217c-5.544-8.755,11.384-26.619,16.813-31.992c0.414-15.988,1.251-32.664,2.388-49.519
				c-7.877,19.895-24.335,48.635-32.692,35.157c-9.372-15.117,25.855-54.215,34.882-63.828c2.099-24.768,4.681-49.294,7.343-71.97
				c-11.077,28.985-47.168,90.311-58.829,69.381c-12.142-21.794,50.421-90.07,63.052-103.505
				C493.792,200.109,495.583,187.165,497.166,176.122z"/>
		</g>
		<path style="fill:#3C8F7C;" d="M623.589,197.501c-9.459,25.235-28.153,67.79-46.503,67.295
			c-24.75-0.667,10.579-55.874,47.019-81.61c0.069-1.786,0.135-3.45,0.199-5.014c5.939,1.147,11.843,2.374,17.546,4.277
			c20.769,14.462,55.952,44.712,45.149,74.649c-12.732,35.283-46.368-48.677-56.435-75.399c-0.491,12.504-1.124,30.912-1.616,53.124
			c14.845,22.761,76.763,121.198,54.526,146.753c-25.194,28.952-50.067-101.943-50.067-101.943L628.67,248.7
			c-0.564,31.537-0.777,69.063,0.031,107.582c12.137,8.043,52.99,37.525,39.384,61.718c-12.403,22.055-31.398-29.043-39.176-52.662
			c0.653,25.972,1.79,52.212,3.615,77.206c12.394,4.245,54.851,20.41,45.438,39.828c-8.982,18.532-35.205-14.881-44.49-27.713
			c1.295,15.474,2.877,30.353,4.795,44.257c13.591,4.677,62.978,22.779,52.273,35.441c-12.383,14.646-44.811-17.184-44.811-17.184
			s32.424,87.181,7.068,80.291c-22.345-6.072-19.039-67.088-18.613-82.753c-2.086-12.643-3.847-26.299-5.325-40.643
			c-3.407,12.095-9.436,28.897-15.156,21.776c-6.884-8.571,7.642-28.753,13.755-36.516c-1.506-17.201-2.65-35.175-3.501-53.399
			c-6.692,22.907-20.581,53.349-31.072,40.028c-11.895-15.104,19.655-60.282,29.809-74.035c-0.759-26.877-0.985-53.585-0.9-78.469
			c-10.014,35.007-40.685,101.703-55.706,80.683c-15.813-22.13,41.663-102.173,56.121-121.634
			C622.567,231.087,623.092,212.26,623.589,197.501z"/>
		<path style="fill:#327F6B;" d="M598.05,239.164c-13.283,15.547-27.002-35.447-33.073-62.137
			c-0.205,18.305-0.43,42.811-0.569,71.191c8.197,8.411,33.587,36.408,30.046,57.147c-3.437,20.129-23.021-21.808-30.125-37.954
			c-0.048,14.826-0.069,30.469-0.051,46.658c10.264,8.919,35.061,33.106,23.228,49.527c-9.579,13.294-18.276-13.044-23.195-33.137
			c0.051,18.429,0.157,37.411,0.335,56.558c12.407,9.931,46.902,40.645,34.311,66.158c-11.174,22.642-26.68-25.178-34.17-52.353
			c0.228,20.41,0.543,40.894,0.965,60.985c6.806,11.386,31.613,55.01,18.034,64.41c-7.341,5.082-13.09-5.611-16.873-19.479
			c0.585,18.738,1.289,36.756,2.13,53.625c9.051,5.993,46.431,32.04,42.085,50.774c-2.714,11.699-32.025,0-32.025,0
			s24.018,64.05,0,60.047c-17.029-2.838-15.948-57.988-13.877-89.85c-0.356-5.859-0.692-11.896-1.009-18.098
			c-3.549,13.342-9.573,23-16.389,14.84c-11.987-14.35,10.209-48.407,14.669-54.936c-0.629-17.537-1.144-35.842-1.563-54.536
			c-9.215,17.943-44.269,60.789-48.288,38.99c-3.864-20.955,37.5-51.722,47.878-59.069c-0.346-18.607-0.605-37.455-0.793-56.182
			c-6.653,14.181-29.364,59.594-46.309,57.222c-19.655-2.751,15.108-44.763,46.277-60.44c-0.176-18.365-0.286-36.591-0.344-54.335
			c-0.065,0.466-0.126,0.923-0.203,1.42c-1.869,12.039-22.81,57.483-32.14,42.435c-9.33-15.048,32.14-57.411,32.14-57.411
			s0.07,0.114,0.169,0.378c-0.033-17.142-0.02-33.736,0.024-49.46c-6.597,16.669-29.658,53.656-37.043,41.251
			c-7.012-11.779,25.828-46.765,37.103-58.23c0.098-22.754,0.254-43.247,0.417-60.339c-7.825,17.137-31.551,64.318-38.802,47.222
			c-7.729-18.22,30.162-53.253,38.942-61.039c0.018-1.68,0.036-3.308,0.054-4.894h18.831
			C592.8,196.73,609.056,226.281,598.05,239.164z"/>
	</g>
	<g>
		<g>
			<path style="fill:#327F6B;" d="M1310.254,192.583c0.891,1.238,2.231,2.959,4.191,5.332c0.026,0.034,0.052,0.068,0.077,0.103
				c-0.077,0.281-24.87,90.074-5.344,96.892c17.907,6.253,19.416-59.58,12.155-87.174c3.968,6.132,7.521,12.571,10.465,19.301
				c5.032,11.503,8.476,26.344,10.747,42.892c-3.64,5.962-25.877,43.427-14.742,51.136c9.035,6.255,14.953-18.376,16.585-34.648
				c1.306,14.707,1.872,30.255,1.936,45.692c-12.034,2.949-48.366,13.383-49.051,32.026c-0.766,20.834,30.468,14.689,49.042-23.953
				c-0.104,15.35-0.666,30.41-1.444,44.237c-8.652,7.802-44.219,41.351-38.485,60.736c5.807,19.633,28.117-2.855,37.529-45.741
				c-1.748,24.557-3.967,43.201-4.948,49.089c-0.324,1.94-0.686,4.436-1.072,7.375l0,0c-0.142,1.076-0.287,2.215-0.435,3.405v0
				c0,0-55.287,74.498-39.456,91.648c11.225,12.16,28.026-37.608,36.855-67.607c-3.057,31.849-5.74,73.39-3.177,86.203l0.2-0.041
				c-1.955,28.72-3.295,80.937,12.53,83.574c21.885,3.648,0-54.712,0-54.712s26.707,10.659,29.18,0
				c4.14-17.844-33.271-42.972-39.305-46.892c0.07-15.861,1.513-38.342,3.313-58.755c2.013,43.772,12.95,56.789,17.21,58.23
				c5.277,1.785,16.142-8.924,12.417-42.761c-2.894-26.289-18.993-43.287-26.034-49.565c0.482-3.735,0.944-6.955,1.369-9.504
				c0.941-5.648,3.01-22.963,4.717-45.99c4.278,35.995,14.399,65.443,23.526,47.204c8.896-17.78-14.335-51.797-22.488-62.845
				c0.942-16.054,1.608-33.9,1.611-52.024c6.788,17.793,36.555,51.248,40.27,32.103c3.653-18.827-33.297-38.415-40.336-41.96
				c-0.213-15.513-0.962-31.015-2.48-45.565c8.262,14.668,33.467,44.717,36.458,28.496c3.415-18.52-38.839-46.948-38.839-46.948
				s-0.026,0.028-0.062,0.07c-2.276-13.775-5.456-26.136-9.8-36.066c-2.811-6.423-6.156-12.588-9.884-18.476
				c15.62,10.595,39.518,20.018,38.557,8.962c-1.043-11.998-37.804-21.702-49.526-24.497c-0.399-0.577-0.668-0.818-0.838-0.812
				c-4.199-5.167-8.623-10.045-13.13-14.631h-5.123C1300.366,181.221,1305.457,186.714,1310.254,192.583z"/>
			<path style="fill:#327F6B;" d="M1278.447,223.822c11.662,6.573,7.394-26.238,3.517-47.701h-11.396
				C1268.464,194.062,1267.961,217.913,1278.447,223.822z"/>
		</g>
		<g>
			<path style="fill:#327F6B;" d="M1293.697,221.98c15.493-2.169,1.567-25.56-20.268-45.858h-22.87
				C1262.091,197.242,1279.624,223.95,1293.697,221.98z"/>
			<path style="fill:#327F6B;" d="M1231.757,176.122h-23.441c-12.022,14.992-21.103,33.452-12.932,50.009
				C1206.92,249.507,1222.472,207.542,1231.757,176.122z"/>
			<path style="fill:#3C8F7C;" d="M1246.096,176.122h-3.883c0.997,6.938,2.077,14.636,3.206,22.967
				c-9.385,18.512-57.304,116.203-34.469,137.161c25.252,23.177,34.247-95.475,34.247-95.475l1.331-33.419
				c3.823,28.825,8.047,63.969,11.375,100.249c-8.687,7.154-44.606,38.686-29.656,59.433c13.906,19.299,26.195-34.063,30.16-53.853
				c2.133,24.003,3.848,48.383,4.77,71.651c-9.179,4.264-47.88,23.512-37.264,40.317c10.282,16.276,31.642-19.845,37.603-30.629
				c0.431,14.264,0.535,28.014,0.224,40.898c-10.022,4.71-54.876,26.658-43.795,37.123c12.454,11.761,38.052-19.728,38.052-19.728
				s-20.063,80.611,1.75,71.962c21.814-8.648,7.244-76.795,7.936-78.524l-0.373-2.195c0.425-10.592,0.538-21.858,0.392-33.589
				c4.049,10.375,11.872,27.659,16.585,20.217c5.544-8.755-11.384-26.619-16.813-31.992c-0.413-15.988-1.251-32.664-2.388-49.519
				c7.877,19.895,24.335,48.635,32.692,35.157c9.373-15.117-25.855-54.215-34.882-63.828c-2.099-24.768-4.681-49.294-7.343-71.97
				c11.077,28.985,47.168,90.311,58.829,69.381c12.142-21.794-50.421-90.07-63.052-103.505
				C1249.47,200.109,1247.68,187.165,1246.096,176.122z"/>
		</g>
		<path style="fill:#3C8F7C;" d="M1119.674,197.501c9.459,25.235,28.153,67.79,46.503,67.295
			c24.75-0.667-10.579-55.874-47.019-81.61c-0.069-1.786-0.135-3.45-0.199-5.014c-5.939,1.147-11.843,2.374-17.546,4.277
			c-20.769,14.462-55.952,44.712-45.149,74.649c12.732,35.283,46.368-48.677,56.435-75.399c0.491,12.504,1.124,30.912,1.616,53.124
			c-14.845,22.761-76.763,121.198-54.526,146.753c25.194,28.952,50.067-101.943,50.067-101.943l4.736-30.934
			c0.564,31.537,0.777,69.063-0.031,107.582c-12.137,8.043-52.99,37.525-39.384,61.718c12.403,22.055,31.398-29.043,39.176-52.662
			c-0.653,25.972-1.79,52.212-3.615,77.206c-12.394,4.245-54.851,20.41-45.439,39.828c8.982,18.532,35.205-14.881,44.49-27.713
			c-1.295,15.474-2.876,30.353-4.795,44.257c-13.591,4.677-62.978,22.779-52.273,35.441c12.383,14.646,44.811-17.184,44.811-17.184
			s-32.424,87.181-7.068,80.291c22.344-6.072,19.039-67.088,18.613-82.753c2.086-12.643,3.847-26.299,5.325-40.643
			c3.406,12.095,9.436,28.897,15.155,21.776c6.884-8.571-7.642-28.753-13.755-36.516c1.505-17.201,2.65-35.175,3.501-53.399
			c6.692,22.907,20.581,53.349,31.072,40.028c11.896-15.104-19.656-60.282-29.809-74.035c0.759-26.877,0.985-53.585,0.9-78.469
			c10.013,35.007,40.686,101.703,55.706,80.683c15.813-22.13-41.662-102.173-56.121-121.634
			C1120.695,231.087,1120.17,212.26,1119.674,197.501z"/>
		<path style="fill:#327F6B;" d="M1145.213,239.164c13.283,15.547,27.002-35.447,33.073-62.137
			c0.204,18.305,0.43,42.811,0.569,71.191c-8.197,8.411-33.587,36.408-30.047,57.147c3.437,20.129,23.021-21.808,30.125-37.954
			c0.048,14.826,0.07,30.469,0.052,46.658c-10.264,8.919-35.061,33.106-23.228,49.527c9.579,13.294,18.275-13.044,23.195-33.137
			c-0.051,18.429-0.157,37.411-0.335,56.558c-12.407,9.931-46.902,40.645-34.311,66.158c11.174,22.642,26.68-25.178,34.17-52.353
			c-0.228,20.41-0.543,40.894-0.965,60.985c-6.807,11.386-31.613,55.01-18.034,64.41c7.341,5.082,13.09-5.611,16.873-19.479
			c-0.584,18.738-1.288,36.756-2.13,53.625c-9.051,5.993-46.431,32.04-42.084,50.774c2.714,11.699,32.025,0,32.025,0
			s-24.019,64.05,0,60.047c17.029-2.838,15.948-57.988,13.876-89.85c0.356-5.859,0.692-11.896,1.009-18.098
			c3.549,13.342,9.573,23,16.389,14.84c11.986-14.35-10.209-48.407-14.668-54.936c0.629-17.537,1.144-35.842,1.562-54.536
			c9.215,17.943,44.269,60.789,48.289,38.99c3.864-20.955-37.5-51.722-47.878-59.069c0.346-18.607,0.605-37.455,0.793-56.182
			c6.653,14.181,29.364,59.594,46.309,57.222c19.655-2.751-15.108-44.763-46.277-60.44c0.176-18.365,0.286-36.591,0.344-54.335
			c0.065,0.466,0.126,0.923,0.203,1.42c1.869,12.039,22.81,57.483,32.139,42.435c9.33-15.048-32.139-57.411-32.139-57.411
			s-0.07,0.114-0.169,0.378c0.033-17.142,0.02-33.736-0.024-49.46c6.597,16.669,29.658,53.656,37.043,41.251
			c7.012-11.779-25.828-46.765-37.104-58.23c-0.098-22.754-0.253-43.247-0.416-60.339c7.825,17.137,31.55,64.318,38.802,47.222
			c7.729-18.22-30.162-53.253-38.942-61.039c-0.018-1.68-0.036-3.308-0.054-4.894h-18.832
			C1150.462,196.73,1134.207,226.281,1145.213,239.164z"/>
	</g>
	<polygon style="fill:#F7CC7F;" points="697.269,169.879 682.835,169.879 371.131,169.879 371.131,186.284 682.835,186.284 
		697.269,186.284 1377.01,186.284 1377.01,169.879 	"/>
	<g>
		<path style="fill:#F7CC7F;" d="M1520.663,1355.622c0,10.111-8.196,18.309-18.308,18.309s-18.309-8.197-18.309-18.309
			c0-10.11,8.197-18.308,18.309-18.308S1520.663,1345.512,1520.663,1355.622z"/>
		<g>
			<path style="fill:#B75742;" d="M1552.389,1562.432h-3.006c-1.033,0-1.871-0.838-1.871-1.871v-17.914
				c0-1.033,0.837-1.871,1.871-1.871h3.006c1.033,0,1.871,0.838,1.871,1.871v17.914
				C1554.259,1561.594,1553.422,1562.432,1552.389,1562.432z"/>
			<g>
				<path style="fill:#50BFA5;" d="M1586.321,1313.023c-5.641-7.388-11.966-11.47-18.802-12.131
					c-10.544-1.021-18.946,6.318-19.029,6.393l-4.203-4.734c0.426-0.379,10.58-9.241,23.841-7.96
					c8.659,0.838,16.473,5.747,23.225,14.591L1586.321,1313.023z"/>
			</g>
			<path style="fill:#B75742;" d="M1536.146,1298.854l-24.319,24.319c-2.575,2.575-2.575,6.752,0,9.327l7.495,7.495
				c2.576,2.575,6.752,2.575,9.328,0l24.319-24.319c2.576-2.576,2.576-6.752,0-9.327l-7.495-7.495
				C1542.898,1296.279,1538.722,1296.279,1536.146,1298.854z"/>
			<path style="fill:#F47458;" d="M1473.927,1322.502l61.548,61.549c16.996-16.996,16.996-44.553,0-61.549
				C1518.479,1305.507,1490.923,1305.507,1473.927,1322.502z"/>
			<g>
				<path style="fill:#B75742;" d="M1640.509,1439.738l-61.721-125.729l19.265-9.457l61.721,125.729L1640.509,1439.738z
					 M1587.63,1317.028l55.899,113.868l7.403-3.635l-55.898-113.867L1587.63,1317.028z"/>
			</g>
			<g>
				<path style="fill:#B75742;" d="M1618.78,1570.817l-20.309-6.935l45.26-132.547l20.309,6.936L1618.78,1570.817z
					 M1606.858,1559.766l7.805,2.666l40.99-120.044l-7.805-2.665L1606.858,1559.766z"/>
			</g>
			<path style="fill:#96D9C9;" d="M1538.131,1389.309l-2.09,2.09c-0.719,0.719-1.883,0.719-2.602,0l-66.86-66.86
				c-0.718-0.718-0.718-1.883,0-2.602l2.091-2.09c0.718-0.719,1.883-0.719,2.601,0l66.86,66.86
				C1538.85,1387.425,1538.85,1388.59,1538.131,1389.309z"/>
			<circle style="fill:#F47458;" cx="1651.231" cy="1437.229" r="15.647"/>
			<path style="fill:#50BFA5;" d="M1515.656,1551.106h121.755c6.564,0,11.886,5.321,11.886,11.886v9.55H1503.77v-9.55
				C1503.77,1556.428,1509.092,1551.106,1515.656,1551.106z"/>
		</g>
	</g>
	<g>
		<polygon style="fill:#0E2E35;" points="297.137,1897.254 280.615,1897.254 315.833,1591.165 332.355,1591.165 		"/>
		<polygon style="fill:#0E2E35;" points="586.302,1897.254 569.78,1897.254 604.998,1591.165 621.519,1591.165 		"/>
		<polygon style="fill:#0E2E35;" points="772.825,1897.254 789.347,1897.254 754.129,1591.165 737.607,1591.165 		"/>
		<path style="fill:#E25A44;" d="M573.801,1624.427H348.438c-26.413,0-50.018-21.413-52.722-47.826l-37.242-363.77
			c-2.705-26.413,16.516-47.826,42.929-47.826h225.362c26.413,0,50.018,21.413,52.722,47.826l37.242,363.77
			C619.435,1603.014,600.214,1624.427,573.801,1624.427z"/>
		<path style="fill:#F47458;" d="M636.38,1624.427H411.018c-26.414,0-50.018-21.413-52.722-47.826l-37.242-363.77
			c-2.704-26.413,16.516-47.826,42.93-47.826h225.362c26.414,0,50.018,21.413,52.722,47.826l37.242,363.77
			C682.014,1603.014,662.794,1624.427,636.38,1624.427z"/>
		<path style="fill:#E25A44;" d="M666.579,1641.201h-319.43c-24.752,0-46.872-20.066-49.407-44.818l0,0
			c-2.534-24.753,15.477-44.818,40.23-44.818h319.43c24.753,0,46.872,20.065,49.407,44.818l0,0
			C709.342,1621.135,691.331,1641.201,666.579,1641.201z"/>
		<path style="fill:#F48C7F;" d="M903.677,1337.344c1.734-5.023-22.68-8.989-23.997-14.06c-1.316-5.071,30.787-5.578,31.921-10.04
			c2.089-8.221-35.195-1.606-34.474-5.45c0.722-3.843,38.833-12.558,34.688-19.135c-4.146-6.575-38.577,13.16-39.637,8.691
			c-1.06-4.469,33.67-15.472,33.014-25.274c-0.352-5.239-56.973,26.333-63.563,23.507c-6.59-2.826,6.981-27.504,1.729-31.141
			c-5.251-3.637-20.098,50.13-23.707,51.936c-3.597,1.799-76.493,35.979-103.74,43.03c-3.343-9.123-24.143-50.873-27.093-59.499
			c-15.264,10.942-49.584,20.298-65.343,30.28c11.541,28.633,60.906,95.408,68.891,98.981
			c24.309,10.88,117.903-67.298,136.592-80.687c18.707-13.4,29.453-9.114,42.119-13.371
			C883.745,1330.856,901.943,1342.368,903.677,1337.344z"/>
		<path style="fill:#F47458;" d="M746.323,1641.201h-319.43c-24.753,0-46.872-20.066-49.406-44.818l0,0
			c-2.534-24.753,15.477-44.818,40.229-44.818h319.43c24.752,0,46.872,20.065,49.407,44.818l0,0
			C789.087,1621.135,771.076,1641.201,746.323,1641.201z"/>
		<path style="fill:#184655;" d="M632.729,1162.147c2.97-0.323,23.167,8.302,38.239,28.88
			c19.489,26.609,48.997,145.726,47.414,138.653l-66.936,31.077l6.78-47.05l-34.75-135.988
			C623.477,1177.72,631.906,1162.236,632.729,1162.147z"/>
		<path style="fill:#466EB6;" d="M563.906,1154.302c19.055,0.025,46.939,0.878,68.823,7.846c0,0,32.9,75.587,34.17,254.77
			c0.173,24.399,5.09,88.184,5.09,88.184l-217.368-13.392c0,0,6.441-164.569,5.68-194.916
			c-0.754-30.078-9.022-129.031-9.022-129.031s1.353-0.21,44.362-7.619C515.703,1156.687,543.561,1154.275,563.906,1154.302z"/>
		<g>
			<path style="fill:#13375B;" d="M548.516,969.979c0,0-26.337-19.598-40.985,9.946c0.113-0.233-9.855-0.929-11.241-0.616
				c-5.914,1.337-11.98,6.414-17.387,9.031c-19.254,9.32-29.611,29.561-32.387,48.675c-3.37,23.2,5.507,41.06,20.584,59.19
				c4.444,5.344,9.235,10.596,15.36,14.268c7.392,4.433,13.796,1.88,20.927,4.075c6.003,1.849,7.603,7.978,15.032,6.397
				c10.415-2.215,22.14-13.06,34.544-10.342c12.389,2.715,42.334-5.401,42.412-5.423c38.471-10.435,19.491-78.744,14.542-102.849
				C605.264,979.669,572.292,963.784,548.516,969.979z"/>
			<path style="fill:#F7A491;" d="M568.154,1123.345l7.415,25.051l3.95,13.985c0,0,6.703,15.949-11.737,18.965
				c-35.396,5.788-48.332-22.408-48.332-22.408l-6.702-77.494L568.154,1123.345z"/>
			<path style="fill:#F47458;" d="M514.926,1106.558c14.372,24.953,41.914,38.005,60.714,42.074l-7.485-25.287l-55.405-41.901
				L514.926,1106.558z"/>
			<path style="fill:#F7A491;" d="M531.352,1003.849c23.344-10.743,51.576,1.028,58.659,23.784
				c3.079,9.892,6.378,22.399,8.653,36.237c5.473,33.284-8.603,68.05-25.06,70.063c-16.458,2.013-65.057-14.023-73.538-61.188
				C494.83,1043.626,506.856,1015.122,531.352,1003.849z"/>
			<path style="fill:#F7A491;" d="M512.732,1075.008c1.062,7.359-3.377,13.975-9.914,14.773c-6.538,0.8-12.698-4.519-13.76-11.879
				c-1.062-7.359,3.376-13.974,9.914-14.773S511.67,1067.647,512.732,1075.008z"/>
		</g>
		<path style="fill:#13375B;" d="M561.361,1092.466c0,0-21.881,4.724-24.288,11.786c-2.407,7.062-0.766,17.665,8.918,26.484
			c9.684,8.819,32.442,5.643,38.933,1.722c6.491-3.921,12.858-22.22,7.742-33.097
			C587.549,1088.484,561.361,1092.466,561.361,1092.466z"/>
		<path style="fill:#F7A491;" d="M553.011,1106.983c0,0-0.617,8.031,2.162,9.704c2.694,1.622,6.155,3.082,9.436,3.63
			c5.315,0.889,10.345-0.835,13.515-4.412c0.312-0.353,0.601-0.721,0.855-1.104c2.543-3.829,3.634-10.86,3.634-10.86
			s-8.793-2.706-14.08-2.316C563.246,1102.015,553.011,1106.983,553.011,1106.983z"/>
		<path style="fill:#F7A491;" d="M739.603,1327.804c1.734-5.023-22.68-8.989-23.996-14.06c-1.317-5.071,30.787-5.578,31.921-10.04
			c2.089-8.221-35.194-1.606-34.473-5.45c0.722-3.843,38.833-12.558,34.688-19.135c-4.146-6.576-38.577,13.16-39.637,8.691
			c-1.06-4.469,33.67-15.473,33.014-25.274c-0.352-5.239-56.973,26.333-63.563,23.507c-6.59-2.826,6.981-27.504,1.729-31.141
			c-5.251-3.637-20.098,50.13-23.707,51.936c-3.597,1.799-76.493,35.979-103.74,43.03c-3.343-9.123-24.142-50.872-27.093-59.499
			c-15.264,10.942-49.584,20.298-65.342,30.28c11.541,28.633,60.906,95.407,68.891,98.981
			c24.309,10.881,117.903-67.298,136.592-80.687c18.707-13.4,29.453-9.114,42.119-13.372
			C719.671,1321.316,737.87,1332.828,739.603,1327.804z"/>
		<path style="fill:#184655;" d="M471.09,1360.758c-29.749-69.334-59.438-160.842-25.229-190.463
			c13.498-11.688,54.232,13.279,103.01,159.729C548.872,1330.024,495.535,1356.891,471.09,1360.758z"/>
		<path style="fill:#F7A491;" d="M686.019,1833.787c0,0-2.124,35.162-2.136,35.234c-0.781,4.465-3.856,15.494-3.856,19.553
			c0,15.246,72.397-12.942,56.172-19.699c-1.469-0.611-9.163-5.236-9.645-10.426c-0.745-7.995-2.632-24.169-2.632-24.169
			L686.019,1833.787z"/>
		<path style="fill:#F7A491;" d="M804.64,1833.787c0,0-2.124,35.162-2.136,35.234c-0.781,4.465-3.856,15.494-3.856,19.553
			c0,15.246,72.397-12.942,56.172-19.699c-1.469-0.611-12.43-2.551-12.913-7.74c-0.745-7.995-2.134-32.72-2.134-32.72
			L804.64,1833.787z"/>
		<path style="fill:#EAB054;" d="M567.451,1466.835l173.056,0.747c0,0,78.171-2.05,90.53,24.982
			c12.358,27.032,13.191,347.521,13.191,347.521s-40.903,2.292-43.04,0l-57.138-179.229c-5.025-17.421-10.381-34.315-8.687-52.368
			l4.488-47.806l-62.199,2.759c0,0-80.954-1.287-107.643-28.138C543.32,1508.454,567.451,1466.835,567.451,1466.835z"/>
		<path style="fill:#F7CC7F;" d="M456.473,1445.892c0,0,268.773,31.408,281.131,58.441c12.358,27.032-6.753,333.893-6.753,333.893
			s-47.067,2.038-46.973,0c0.112-2.424-22.2-131.866-32.837-181.328c-3.376-15.697-4.558-31.782-3.514-47.804l2.729-41.892
			c0,0-176.165-1.694-184.744-10.325C438.824,1530.027,456.473,1445.892,456.473,1445.892z"/>
		<path style="fill:#184655;" d="M732.714,1865.623c0,0-16.026,4.664-24.234,5.83c-8.208,1.166-19.03-8.651-24.836-6
			c-6.39,2.919-6.14,29.192-6.14,29.192s85.942,7.479,110.108-0.259C797.186,1891.322,765.477,1876.486,732.714,1865.623z"/>
		<path style="fill:#184655;" d="M854.681,1865.623c0,0-16.997,4.664-25.703,5.83c-8.706,1.166-20.183-8.651-26.34-6
			c-6.777,2.919-6.512,29.192-6.512,29.192s91.15,7.479,116.781-0.259C923.06,1891.322,889.429,1876.486,854.681,1865.623z"/>
		<polygon style="fill:#466EB6;" points="669.321,1467.274 669.321,1479.05 597.6,1465.83 649.986,1455.718 		"/>
	</g>
	<g>
		<g>
			<polygon style="fill:#0E2E35;" points="2439.736,1895.421 2456.303,1895.421 2420.989,1588.498 2404.423,1588.498 			"/>
			<polygon style="fill:#0E2E35;" points="2255.51,1895.421 2236.139,1895.846 2274.257,1588.498 2290.824,1588.498 			"/>
			<polygon style="fill:#0E2E35;" points="2149.783,1895.421 2166.35,1895.421 2131.036,1588.498 2114.469,1588.498 			"/>
			<polygon style="fill:#0E2E35;" points="1962.752,1895.421 1946.185,1895.421 1981.498,1588.498 1998.065,1588.498 			"/>
			<path style="fill:#E25A44;" d="M2162.318,1621.85h225.977c26.485,0,53.956-21.471,61.358-47.956l101.941-364.762
				c7.401-26.485-8.068-47.956-34.554-47.956h-225.977c-26.485,0-53.957,21.471-61.358,47.956l-101.941,364.762
				C2120.362,1600.379,2135.833,1621.85,2162.318,1621.85z"/>
			<path style="fill:#F47458;" d="M2099.568,1621.85h225.977c26.485,0,53.956-21.471,61.358-47.956l101.941-364.762
				c7.401-26.485-8.068-47.956-34.554-47.956h-225.977c-26.485,0-53.957,21.471-61.358,47.956l-101.941,364.762
				C2057.612,1600.379,2073.082,1621.85,2099.568,1621.85z"/>
			<path style="fill:#E25A44;" d="M2072.121,1631.586h320.301c24.82,0,47.001-20.121,49.542-44.94l0,0
				c2.541-24.82-15.521-44.94-40.34-44.94h-320.301c-24.82,0-47.001,20.12-49.541,44.94h-0.001
				C2029.24,1611.465,2047.302,1631.586,2072.121,1631.586z"/>
			<path style="fill:#F47458;" d="M1989.325,1631.568h320.301c24.82,0,47.001-18.53,49.542-41.39l0,0
				c2.541-22.858-15.52-41.39-40.34-41.39h-320.301c-24.82,0-47,18.531-49.541,41.39l0,0
				C1946.445,1613.038,1964.506,1631.568,1989.325,1631.568z"/>
			<path style="fill:#E25A44;" d="M2455.133,1554.285c0,0-12.447,57.753-28.667,63.268l3.617-42.658L2455.133,1554.285z"/>
		</g>
		<g>
			<path style="fill:#F48C7F;" d="M2163.991,1773.68c0,0,41.281,49.498,41.555,53.806c0.272,4.307-1.641,51.313-6.55,55.621
				c-4.91,4.307-19.332,7.361-14.695,12.206c3.504,3.662,26.11,2.627,43.979,1.644c5.216-0.287,16.11-41.651,18.177-47.768
				c3-8.884,10.296-28.893,7.568-35.084c-1.329-3.018-7.688-9.218-16.647-15.005c-9.424-6.087-45.47-56.242-45.47-56.242
				L2163.991,1773.68z"/>
			<path style="fill:#BED9EA;" d="M2236.794,1798.808c0,0-27.72,78.049-38.57,81.816c-2.88,1-16.706,3.538-19.313,9.652
				c-0.786,1.842,0,7.993,0,7.993l57.229-2.424c0,0,26.039-83.991,24.34-87.346
				C2258.779,1805.145,2236.794,1798.808,2236.794,1798.808z"/>
			<path style="fill:#F7A491;" d="M1916.721,1797.452c0,0-33.712,47.461-30.746,62.476c1.589,8.041,8.659,18.563,4.602,26.129
				c-4.057,7.566-8.694,9.458-8.694,9.458l-105.16,1.69c-5.729,0.092-1.942-3.586,2.676-6.976c7.56-5.548,13.661-9.215,37.81-20.873
				c1.575-0.76,7.31-4.399,9.377-5.66c5.243-3.195,10.51-8.225,15.042-13.261c7.551-8.391,40.755-76.756,40.755-76.756
				L1916.721,1797.452z"/>
			<path style="fill:#BED9EA;" d="M1826.599,1863.688c27.812,7.122,48.369,2.28,59.87-2.347c2.966,8.388,6.897,18.911,4.812,24.979
				c-2.553,7.431-5.847,12.847-9.058,12.931c-25.403,0.666-93.394-2.165-112.763-1.913c-2.706,0.036-4.198-3.118-2.459-5.191
				C1771.805,1886.422,1824.526,1864.952,1826.599,1863.688z"/>
			<path style="fill:#F48C7F;" d="M2038.658,1504.657c0,0,41.744,47.645,52.391,55.19c10.646,7.547,134.5,226.887,134.5,226.887
				l-26.19,31.429c0,0-123.205-149.905-166.091-210.809c-36.262-51.495-22.904-48.229-44.229-79.575
				c-11.739-17.258-9.078-40.593,6.402-54.592c1.926-1.742,4.019-3.56,6.292-5.455c31.565-26.308,270.085-76.47,270.085-76.47
				l116.226,34.108c0,0-113.067,79.286-117.287,81.396c-4.22,2.109-156.139,24.265-159.304,24.265
				S2038.658,1504.657,2038.658,1504.657z"/>
			<path style="fill:#F7A491;" d="M2402.104,1426.588c0,0,23.737,71.212-11.868,104.444c-35.606,33.232-247.132,29.54-316.762,29.54
				c0,0-24.326,79.929-31.65,90.729c-11.599,17.104-150.636,190.433-150.636,190.433l-38.412-10.477
				c0,0,158.453-317.105,170.059-329.766c11.604-12.66,177.238-63.3,218.383-74.904
				C2282.362,1414.982,2402.104,1426.588,2402.104,1426.588z"/>
			<g>
				<path style="fill:#13375B;" d="M2257.883,1021.223c12.225-27.037,24.646-54.125,54.602-67.086
					c24.242-10.488,49.078-5.494,69.819,11.128c58.769,47.096,4.81,95.326,70.65,183.227c20.458,27.313,45.552,49.631,57.339,81.262
					c16.499,44.275-5.405,64.619-40.119,84.51c-166.101,95.174-245.21-113.188-240.691-160.154
					C2232.844,1119.169,2250.013,1038.627,2257.883,1021.223z"/>
				<polygon style="fill:#F7A491;" points="2245.308,1243.508 2229.507,1287.543 2258.602,1287.543 2260.793,1243.508 				"/>
				<path style="fill:#BED9EA;" d="M2266.934,1197.235c26.152-50.572,45.046-45.08,45.046-45.08l-35.576,114.907
					c-10.147-4.751-20.977-18.711-31.096-23.555C2251.651,1227.2,2260.492,1209.69,2266.934,1197.235z"/>
				<path style="fill:#D3E5F4;" d="M2403.643,1430.548c-3.402-11.457-15.252-53.204-14.328-60.237
					c3.361-25.599,53.566-191.459,35.076-211.572s-51.229-19.434-51.229-19.434s-58.355,7.313-65.08,14.626
					c-6.724,7.314-34.74,81.675-38.102,99.96c-2.018,10.973-7.363,84.741-6.893,143.483c0,0,11.35,20.952,47.143,28.809
					C2333.065,1431.195,2403.643,1430.548,2403.643,1430.548z"/>
				<path style="fill:#F7A491;" d="M2357.603,1076.979c0,0,0.242,1.374,0.677,3.711c2.084,11.215,10.108,48.414,15.529,58.642
					c6.551,12.358-22.429,51.776-50.32,46.966c-8.303-1.432,7.018-36.218,6.281-39.902c-1.409-7.054-3.32-16.676-5.276-26.543
					c-1.104-5.565-2.221-11.209-3.271-16.512c-2.982-15.073-5.416-27.401-5.416-27.401L2357.603,1076.979z"/>
				<path style="fill:#F47458;" d="M2358.279,1080.689c-0.435-2.337-0.677-3.711-0.677-3.711l-41.796-1.04
					c0,0,2.434,12.328,5.416,27.401c1.044,5.273,2.154,10.884,3.252,16.42c6.453-0.948,13.195-4.079,19.956-9.985
					c7.37-6.438,12.201-14.176,15.116-22.437C2359.031,1084.701,2358.602,1082.429,2358.279,1080.689z"/>
				<path style="fill:#F7A491;" d="M2332.462,977.642c0,0,17.044,2.364,29.394,18.304c12.348,15.94,25.658,65.23-5.018,92.029
					s-60.985-3.536-65.479-35.699S2287.773,976.481,2332.462,977.642z"/>
				<path style="fill:#F7A491;" d="M2282.415,1044.335c1.935,7.754,7.016,12.992,11.347,11.699c4.332-1.292,6.275-8.626,4.341-16.38
					s-7.015-12.992-11.347-11.699S2280.48,1036.581,2282.415,1044.335z"/>
				<path style="fill:#13375B;" d="M2313.529,977.784c0,0,40.058,45.987,58.886,48.152c18.828,2.166,21.301,27.073,21.301,27.073
					s-6.731-57.392-25.372-68.46C2349.705,973.481,2313.529,977.784,2313.529,977.784z"/>
				<path style="fill:#F7A491;" d="M2366.258,1037.104c-1.531,8.324,1.549,15.958,6.879,17.051
					c5.33,1.092,10.893-4.771,12.424-13.095s-1.549-15.957-6.879-17.05C2373.352,1022.918,2367.789,1028.78,2366.258,1037.104z"/>
				<path style="fill:#FFFFFF;" d="M2310.538,1068.208l29.13-0.154c0,0-0.613,11.067-13.421,11.505
					C2310.63,1080.093,2310.538,1068.208,2310.538,1068.208z"/>
				<g>
					<polygon style="fill:#F2E9DA;" points="2217.021,1257.131 2210.091,1265.107 2210.759,1254.562 2214.101,1252.244 					"/>
					<polygon style="fill:#E0D5C3;" points="2214.101,1252.244 2214.852,1253.501 2210.091,1265.107 2210.759,1254.562 					"/>
					<polygon style="fill:#E8BA70;" points="2210.759,1254.562 2210.586,1257.291 2212.524,1255.286 2226.034,1209.369 
						2223.807,1209.77 					"/>
					<polygon style="fill:#F7CC7F;" points="2212.524,1255.286 2211.16,1249.514 2215.256,1256.406 2228.766,1210.49 
						2226.034,1209.369 					"/>
					<polygon style="fill:#FAE0B2;" points="2215.256,1256.406 2215.228,1259.195 2217.021,1257.131 2230.069,1212.339 
						2228.766,1210.49 					"/>
					
						<rect x="2225.358" y="1209.823" transform="matrix(0.3797 -0.9251 0.9251 0.3797 260.6743 2811.3777)" style="fill:#466EB6;" width="2.96" height="2.953"/>
					<polygon style="fill:#88B5E2;" points="2227.642,1213.229 2228.766,1210.49 2230.069,1212.339 2229.407,1213.953 					"/>
					<polygon style="fill:#2C4B70;" points="2223.146,1211.384 2223.807,1209.77 2226.034,1209.369 2224.91,1212.107 					"/>
					
						<rect x="2226.908" y="1213.46" transform="matrix(-0.9251 -0.3797 0.3797 -0.9251 3827.5332 3185.2671)" style="fill:#FEF8F8;" width="1.909" height="3.487"/>
					
						<rect x="2222.412" y="1211.615" transform="matrix(-0.9253 -0.3793 0.3793 -0.9253 3820.4346 3179.3118)" style="fill:#EDDFCA;" width="1.908" height="3.488"/>
					
						<rect x="2224.138" y="1212.538" transform="matrix(-0.9252 -0.3794 0.3794 -0.9252 3824.1123 3182.1846)" style="fill:#F2E9DA;" width="2.952" height="3.488"/>
					<path style="fill:#DB3F2A;" d="M2212.442,1262.4c-0.023,0.027-2.352,2.707-2.352,2.707l0.227-3.579l0.824,1.019
						L2212.442,1262.4z"/>
				</g>
				<g>
					<polygon style="fill:#EAFCFC;" points="2308.839,1232.125 2297.759,1227.905 2228.412,1245.998 2238.047,1254.906 					"/>
					<polygon style="fill:#EAFCFC;" points="2145.938,1243.264 2153.963,1230.009 2228.412,1245.998 2223.226,1263.879 					"/>
					<path style="fill:#001333;" d="M2254.982,1386.339l74.982-15.142c2.014-0.407,3.249-2.22,2.937-4.309l-19.781-132.146
						c-0.404-2.702-3.177-4.706-5.781-4.181l-73.454,14.834L2254.982,1386.339z"/>
					<path style="fill:#001333;" d="M2243.881,1386.502l-79.178-12.888c-2.127-0.346-3.898-2.114-4.211-4.203l-19.781-132.146
						c-0.404-2.702,1.757-4.779,4.508-4.331l77.564,12.624L2243.881,1386.502z"/>
					<path style="fill:#2C4B70;" d="M2245.672,1388.108l8.008-0.117c0.854-0.013,1.443-0.71,1.316-1.559l-21.074-140.79
						c-0.127-0.849-0.923-1.525-1.777-1.514l-8.007,0.117c-0.854,0.013-1.445,0.711-1.317,1.559l21.074,140.79
						C2244.021,1387.443,2244.817,1388.121,2245.672,1388.108z"/>
				</g>
				<g>
					<path style="fill:#F8A492;" d="M2259.883,1346.039c-1.413-1.518-2.46-5.76-13.164-17.899c-3.089-3.505-9.41-5.532-9.41-5.532
						s-7.794-2.432-8.884-0.737c-1.091,1.694-0.317,4.12,0.919,5.124c1.236,1.003,4.447,1.588,5.684,2.591
						c1.236,1.004,1.899,6.058,1.469,7.858c-0.43,1.802-23.155-6.143-23.155-6.143s-6.407-2.594-8.469-3.626
						c-1.758-0.88-6.822-3.937-6.822-3.937s-7.439-3.946-8.524-1.524c-0.639,1.428,4.995,6.801,11.249,11.056
						c6.735,4.582,14.143,8.037,13.885,8.825c-0.604,1.852-13.175-2.209-13.175-2.209s-5.484-3.3-8.252-3.91
						c-3.039-2.604-9.084-5.295-10.202-2.255c-0.206,0.561,6.969,6.634,6.969,6.634s5.298,2.979,7.737,4.561
						c4.303,2.79,11.555,4.788,14.607,6.437c2.539,1.371,1.313,1.77,1.368,2.098c0.042,0.253-3.573-1.037-8.562-2.717
						c-2.513-0.846-5.521-1.24-8.291-2.69c-2.564-1.343-6.348-2.665-8.646-3.403c-6.503-2.089-6.657,2.454-0.91,5.411
						c2.19,1.126,4.583,2.333,7.013,3.546c9.448,4.717,18.993,6.928,18.859,8.072c-0.174,1.484-17.348-3.623-17.348-3.623
						s-10.031-0.054-1.538,4.302c9.856,5.055,18.344,6.801,18.723,6.854c2.571,0.368,11.236,4.451,20.367,4.296
						c6.732-0.114,16.391-0.547,21.004-0.768L2259.883,1346.039z"/>
					<path style="fill:#F7A491;" d="M2425.606,1276.196l-46.344,2.114c0,0-1.45,39.15-2.494,43.6c0,0-83.134,19.872-116.886,24.129
						l-6.012,26.747c6.572-0.654,11.967-1.701,15.189-1.88c6.324-0.353,107.22-4.654,107.22-4.654s40.21-3.495,43.242-10.211
						S2425.606,1276.196,2425.606,1276.196z"/>
				</g>
				<path style="fill:#BED9EA;" d="M2420.229,1349.358c0,0,29.261-142.331,24.058-167.396c-5.202-25.063-36.68-46.011-56.695-35.365
					s-11.013,175.697-11.013,175.697s12.679,14.775,18.333,18.333C2400.783,1344.322,2420.229,1349.358,2420.229,1349.358z"/>
			</g>
			<path style="fill:#13375B;" d="M2388.043,1425.371L2388.043,1425.371l-116.225-34.108c0,0-164.764,34.651-238.531,61.458
				c0,0,15.914,64.255,93.612,107.905l37.094-0.133c88.61-0.956,201.141-6.033,226.242-29.461
				c35.605-33.232,11.868-104.444,11.868-104.444S2396.792,1426.074,2388.043,1425.371z"/>
			<path style="fill:#001333;" d="M2049.809,1488.475l134.709-43.086l-143.124,27.901
				C2041.394,1473.29,2047.797,1486.164,2049.809,1488.475z"/>
		</g>
	</g>
	<rect x="995.678" y="1570.549" style="fill:#184655;" width="696.61" height="16.164"/>
	<polygon style="fill:#184655;" points="1720.743,1898.651 1655.139,1575.049 1672.503,1571.817 1733.316,1898.651 	"/>
	<polygon style="fill:#184655;" points="971.255,1898.651 1036.859,1575.049 1019.495,1571.817 958.682,1898.651 	"/>
	<rect x="1013.639" y="1660.856" style="fill:#184655;" width="660.333" height="7.093"/>
	<g>
		<path style="fill:#215E4B;" d="M1128.896,1520.438h1.783c0.587-6.002,1.742-12.632,3.797-19.567
			c7.772-26.231,4.372-29.625,17.487-46.022c13.116-16.397,14.087-50.401,14.087-50.401s6.315-38.617,0-55.619
			c-6.314-17.001-6.8-34.003-22.102-51.976c0,0-2.915,24.045-6.558,34.975c-3.644,10.93-7.103,21.373-4.401,47.604
			c2.701,26.23,4.379,28.416,4.997,35.217s-0.353,35.467,1.104,40.2c1.457,4.732-8.501,37.521-9.229,51.608
			C1129.642,1510.689,1129.248,1515.516,1128.896,1520.438z"/>
		<path style="fill:#3C8F7C;" d="M1134.482,1520.438c2.53-5.839,6.985-11.639,14.784-15.121
			c20.402-9.107,34.165-8.905,43.637-30.765s9.472-51.733,12.751-57.927c0,0-8.744-1.457-17.487,14.209
			c-8.744,15.665-14.675,27.323-19.724,36.432s-12.336,6.558-18.529,13.479c-5.19,5.802-9.983,19.297-11.804,26.146
			c-0.592,2.225-1.451,4.367-2.586,6.37c-1.032,1.821-2.247,4.038-2.975,5.616c-0.162,0.352-0.323,0.888-0.481,1.561H1134.482z"/>
		<path style="fill:#215E4B;" d="M1076.914,1416.834c-1.457,18.702,10.444,17.245,10.93,29.146c0.486,11.9,16.03,32.06,23.231,46.39
			c3.746,7.453,5.129,18.848,5.594,28.068h5.786c-2.238-23.337-11.707-39.581-17.367-52.6c-7.286-16.759-8.379-24.409-2.186-37.524
			c6.194-13.115-2.914-46.997,5.903-62.103c8.817-15.104,4.298-38.813,2.27-47.922c-2.028-9.107,0.207-15.301,2.028-24.903
			c1.821-9.603-2.028-23.551-2.028-23.551c-0.328,11.901-9.387,28.174-15.945,38.618c-6.558,10.443-18.944,38.86-17.487,51.732
			c1.458,12.873,0.729,13.845,0.729,13.845C1073.756,1393.275,1078.371,1398.133,1076.914,1416.834z"/>
		<path style="fill:#3C8F7C;" d="M1111.629,1505.241c0.744,2.232,3.129,7.934,5.313,15.197h3.548
			c-1.614-9.247-4.401-19.977-9.104-26.127c-9.472-12.387-28.417-17.729-30.603-26.717c-2.186-8.986,0.243-35.946-13.601-51.004
			c0,0,1.943,16.765,0,21.255c-1.943,4.49-18.459,25.377-8.744,42.865c9.715,17.486,31.574,15.301,38.375,19.188
			C1103.614,1503.784,1110.415,1501.598,1111.629,1505.241z"/>
		<path style="fill:#3C8F7C;" d="M1102.886,1424.591c-0.243,17.973,13.844,24.773,13.602,34.731
			c-0.243,9.958,2.914,20.645,5.586,28.659c1.691,5.074,0.755,19.199,0.456,32.457h3.909c0.984-9.743,2.063-23.798,1.707-30.028
			c-0.486-8.5,3.4-15.301,3.886-30.116c0.485-14.815,3.643-28.174-2.915-46.876c-6.558-18.701-5.343-41.047-32.789-61.691
			c0,0-4.858,21.859-1.215,33.761C1098.757,1397.388,1103.128,1406.617,1102.886,1424.591z"/>
		<path style="fill:#327F6B;" d="M1102.886,1424.591c-0.243,17.973,13.844,24.773,13.602,34.731
			c-0.243,9.958,2.914,20.645,5.586,28.659c1.691,5.074,0.755,19.199,0.456,32.457h1.622c0.219-2.77,0.432-4.51,0.432-4.51
			l0.81-33.517c0,0-1.619-26.231-4.534-47.604c-2.914-21.373-24.53-83.081-24.53-83.081s-4.858,21.859-1.215,33.761
			C1098.757,1397.388,1103.128,1406.617,1102.886,1424.591z"/>
		<path style="fill:#F47458;" d="M1130.69,1505.101h-2.622h-34.997c-2.572,0-4.47,2.406-3.875,4.914l13.713,57.827
			c0.426,1.798,2.03,3.067,3.875,3.067h21.284h2.622h21.284c1.845,0,3.448-1.27,3.875-3.067l13.713-57.827
			c0.595-2.508-1.303-4.914-3.875-4.914H1130.69z"/>
	</g>
	<g>
		<g>
			<path style="fill:#184655;" d="M734.684,441.561h2.646V191.417c26.594,18.587,56.292,30.189,88.315,34.498
				c26.271,3.533,54.147,2.192,82.856-3.989c42.179-9.082,73.908-26.137,82.006-30.759v102.256h2.645V186.493l-2.016,1.24
				c-0.343,0.21-34.853,21.213-83.275,31.624c-44.594,9.588-110.474,11.893-171.083-31.572l-2.093-1.501V441.561z"/>
		</g>
		<path style="fill:#F47458;" d="M991.829,275.319L991.829,275.319c13.363,0,24.195,10.832,24.195,24.194v51.612h-48.389v-51.612
			C967.634,286.151,978.467,275.319,991.829,275.319z"/>
		<path style="fill:#F47458;" d="M736.006,432.124L736.006,432.124c13.362,0,24.194,10.832,24.194,24.194v51.611h-48.389v-51.611
			C711.811,442.956,722.644,432.124,736.006,432.124z"/>
	</g>
	<g>
		<rect x="1524.542" y="521.781" style="fill:#001333;" width="180.124" height="246.479"/>
		<rect x="1540.051" y="536.663" style="fill:#EAFCFC;" width="149.106" height="216.715"/>
		<path style="opacity:0.1;fill:#001333;" d="M1614.604,582.808c-22.239,0-40.267,18.028-40.267,40.266h80.533
			C1654.87,600.835,1636.842,582.808,1614.604,582.808z"/>
		<rect x="1551.505" y="637.502" style="opacity:0.1;fill:#001333;" width="128.649" height="4.409"/>
		<rect x="1551.505" y="655.136" style="opacity:0.1;fill:#001333;" width="128.649" height="4.408"/>
		<rect x="1586.172" y="549.732" style="opacity:0.1;fill:#001333;" width="59.315" height="4.408"/>
		<rect x="1564.53" y="566.269" style="opacity:0.1;fill:#001333;" width="102.599" height="4.409"/>
		<rect x="1563.395" y="672.771" style="opacity:0.1;fill:#001333;" width="104.871" height="4.408"/>
		<rect x="1546.563" y="722.801" style="opacity:0.1;fill:#001333;" width="73.609" height="4.408"/>
		<rect x="1546.563" y="735.358" style="opacity:0.1;fill:#001333;" width="54.038" height="4.409"/>
		<g style="opacity:0.1;">
			<g>
				<polygon style="fill:#001333;" points="1655.763,735.3 1647.955,721.904 1650.749,720.275 1655.281,728.051 1662.68,710.302 
					1665.664,711.546 				"/>
			</g>
		</g>
		<path style="opacity:0.1;fill:#001333;" d="M1656.309,702.562c-12.396,0-22.444,10.048-22.444,22.443
			c0,12.395,10.048,22.443,22.444,22.443c12.395,0,22.443-10.048,22.443-22.443C1678.752,712.61,1668.703,702.562,1656.309,702.562z
			 M1656.309,745.578c-11.362,0-20.573-9.211-20.573-20.573s9.211-20.573,20.573-20.573s20.573,9.211,20.573,20.573
			S1667.671,745.578,1656.309,745.578z"/>
	</g>
	<g>
		
			<rect x="1836.843" y="604.208" transform="matrix(-1.836970e-16 1 -1 -1.836970e-16 2654.353 -1199.4585)" style="fill:#001333;" width="180.125" height="246.48"/>
		
			<rect x="1851.961" y="619.089" transform="matrix(-1.836970e-16 1 -1 -1.836970e-16 2653.9614 -1199.0669)" style="fill:#EAFCFC;" width="149.107" height="216.716"/>
		<rect x="1833.267" y="676.894" style="opacity:0.1;fill:#001333;" width="186.495" height="4.409"/>
		<rect x="1833.267" y="694.528" style="opacity:0.1;fill:#001333;" width="186.495" height="4.409"/>
		<rect x="1850.502" y="712.163" style="opacity:0.1;fill:#001333;" width="152.024" height="4.409"/>
		<rect x="1833.267" y="784.704" style="opacity:0.1;fill:#001333;" width="152.023" height="4.409"/>
		<rect x="1914.269" y="743.757" style="opacity:0.1;fill:#001333;" width="54.995" height="4.409"/>
		<rect x="1914.269" y="756.315" style="opacity:0.1;fill:#001333;" width="41.933" height="4.409"/>
		<rect x="1833.267" y="743.757" style="opacity:0.1;fill:#001333;" width="54.995" height="4.409"/>
		<rect x="1833.267" y="756.315" style="opacity:0.1;fill:#001333;" width="65.727" height="4.409"/>
		<g style="opacity:0.1;">
			<g>
				<polygon style="fill:#001333;" points="1999.918,760.391 1993.736,749.786 1995.948,748.496 1999.536,754.652 2005.394,740.601 
					2007.756,741.585 				"/>
			</g>
		</g>
		<path style="opacity:0.1;fill:#001333;" d="M2000.35,734.473c-9.813,0-17.768,7.955-17.768,17.767
			c0,9.813,7.955,17.768,17.768,17.768s17.768-7.955,17.768-17.768C2018.117,742.428,2010.162,734.473,2000.35,734.473z
			 M2000.35,768.528c-8.995,0-16.287-7.292-16.287-16.288c0-8.995,7.292-16.287,16.287-16.287s16.287,7.292,16.287,16.287
			C2016.637,761.236,2009.345,768.528,2000.35,768.528z"/>
	</g>
	<g>
		<rect x="1744.792" y="890.393" style="fill:#001333;" width="180.125" height="246.479"/>
		<rect x="1760.302" y="905.275" style="fill:#EAFCFC;" width="149.106" height="216.715"/>
		<rect x="1771.756" y="1006.114" style="opacity:0.1;fill:#001333;" width="128.649" height="4.408"/>
		<rect x="1771.756" y="1023.748" style="opacity:0.1;fill:#001333;" width="128.649" height="4.408"/>
		<rect x="1806.423" y="918.344" style="opacity:0.1;fill:#001333;" width="59.315" height="4.408"/>
		<rect x="1784.781" y="934.882" style="opacity:0.1;fill:#001333;" width="102.599" height="4.408"/>
		<rect x="1771.756" y="1091.412" style="opacity:0.1;fill:#001333;" width="73.609" height="4.409"/>
		<rect x="1771.756" y="1103.971" style="opacity:0.1;fill:#001333;" width="54.038" height="4.408"/>
		<rect x="1771.756" y="1042.385" style="opacity:0.1;fill:#001333;" width="105.734" height="4.408"/>
		<rect x="1771.756" y="1059.351" style="opacity:0.1;fill:#001333;" width="54.038" height="4.408"/>
		<path style="opacity:0.1;fill:#001333;" d="M1876.56,1111.451c-13.171,0-23.847-10.676-23.847-23.846s10.676-23.847,23.847-23.847
			c13.17,0,23.846,10.677,23.846,23.847S1889.729,1111.451,1876.56,1111.451z"/>
		<rect x="1775.832" y="955.678" style="opacity:0.1;fill:#001333;" width="120.497" height="35.669"/>
	</g>
	<g>
		
			<rect x="1421.012" y="840.367" transform="matrix(-1.836970e-16 1 -1 -1.836970e-16 2474.6819 -547.4676)" style="fill:#001333;" width="180.126" height="246.48"/>
		
			<rect x="1436.521" y="855.249" transform="matrix(-1.836970e-16 1 -1 -1.836970e-16 2474.6816 -547.4678)" style="fill:#EAFCFC;" width="149.107" height="216.716"/>
		<g>
			<rect x="1412.599" y="1009.149" style="opacity:0.1;fill:#001333;" width="73.609" height="4.408"/>
			<rect x="1412.599" y="1021.707" style="opacity:0.1;fill:#001333;" width="54.038" height="4.408"/>
		</g>
		<g>
			
				<rect x="1535.5" y="1009.149" transform="matrix(-1 -1.224647e-16 1.224647e-16 -1 3144.6094 2022.707)" style="opacity:0.1;fill:#001333;" width="73.609" height="4.408"/>
			
				<rect x="1555.071" y="1021.707" transform="matrix(-1 -1.224647e-16 1.224647e-16 -1 3164.1807 2047.8221)" style="opacity:0.1;fill:#001333;" width="54.038" height="4.408"/>
		</g>
		<path style="opacity:0.1;fill:#001333;" d="M1510.854,1026.102c-6.928,0-12.544-5.616-12.544-12.544
			c0-6.928,5.616-12.544,12.544-12.544s12.544,5.616,12.544,12.544C1523.398,1020.485,1517.782,1026.102,1510.854,1026.102z"/>
		<rect x="1412.599" y="908.676" style="opacity:0.1;fill:#001333;" width="196.51" height="17.835"/>
		<rect x="1412.599" y="935.127" style="opacity:0.1;fill:#001333;" width="196.51" height="41.306"/>
	</g>
	<g>
		<path style="fill:#3C8F7C;" d="M2824.027,1624.248c-1.435-12.662-3.137-25.613-9.014-36.914
			c-7.146-13.739-19.701-23.653-30.67-34.574c-20.495-20.403-36.268-45.543-45.733-72.896c-7.319-21.15-10.969-43.684-21.056-63.657
			c-6.16-12.196-14.559-23.1-21.555-34.834c-16.536-27.734-25.537-60.511-47.96-83.725c-4.315,28.145,4.212,58.012,22.73,79.609
			c5.522,6.441,11.928,12.248,16.136,19.619c7.637,13.382,6.941,29.708,7.836,45.098c1.682,28.923,9.833,57.449,23.682,82.882
			c14.712,27.016,35.947,51.073,43.813,80.822c5.895,22.294,4.144,47.301,16.71,66.622c1.361,2.094,2.921,4.197,3.255,6.674
			c0.188,1.392-0.031,2.802-0.248,4.188c-0.281,1.795-0.563,3.59-0.844,5.385c-2.859,18.246-5.813,41.464,9.865,55.119
			c10.867,9.465,24.854,9.676,32.657-2.895c7.857-12.659,7.161-31.185,6.577-45.431
			C2829.237,1671.619,2826.697,1647.829,2824.027,1624.248z"/>
		<path style="fill:#327F6B;" d="M2852.269,1609.571c-6.101-21.122-15.567-41.238-20.313-62.707
			c-4.603-20.823-4.638-42.352-4.653-63.68c-0.017-23.37-0.033-46.741-0.05-70.112c-0.01-14.549-0.026-29.179-2.431-43.527
			c-5.174-30.873-21.22-59.421-23.938-90.607c-1.176-13.486,0.189-27.117-1.293-40.573c-0.848-7.688-2.82-15.534-6.378-22.353
			c-3.827-7.335-14.399-7.011-17.866,0.501c-7.795,16.886-12.737,35.14-9.589,53.232c1.889,10.853,6.59,20.974,10.1,31.414
			c15.629,46.493,7.331,97.959,19.425,145.499c3.65,14.35,9.17,28.422,9.813,43.216c1.536,35.409-24.91,67.754-22.484,103.113
			c1.989,28.99,22.832,52.982,31.58,80.688c4.897,15.51,5.946,32.064,11.193,47.459c4.076,11.96,13.556,26.485,28.281,22.854
			c13.979-3.446,9.755-14.857,9.131-25.756C2860.684,1681.363,2862.672,1645.591,2852.269,1609.571z"/>
		<path style="fill:#3C8F7C;" d="M2888.07,1629.227c-0.615-10.976-2.468-22.011-0.933-32.895c1.296-9.192,4.955-17.855,7.567-26.762
			c4.897-16.689,6.111-34.207,7.297-51.563c2.155-31.549,4.312-63.098,6.467-94.646c3.351-49.04,6.719-98.22,15.888-146.509
			c2.546-13.407,5.405-27.935-0.621-40.174c-1.271-2.58-3.77-5.317-6.511-4.458c-1.951,0.611-2.909,2.762-3.617,4.684
			c-20.042,54.471-27.618,113.115-49.99,166.668c-5.359,12.829-11.593,25.45-14.367,39.077c-3.332,16.362-1.502,33.264-1.072,49.958
			c0.617,23.942-1.714,48.067-8.325,71.084c-3.46,12.042-8.091,23.813-9.986,36.198c-2.363,15.445-0.379,31.177,1.101,46.731
			c2.844,29.903,3.808,59.986,2.883,90.011c-0.543,17.652,14.357,17.189,24.229,6.345c6.903-7.584,6.84-15.91,9.203-25.351
			C2875.042,1686.632,2889.955,1662.831,2888.07,1629.227z"/>
		<path style="fill:#327F6B;" d="M2791.172,1676.792c-13.176-21.171-39.425-33.207-47.846-56.688
			c-2.143-5.975-2.98-12.4-5.599-18.183c-5.815-12.842-19.034-20.099-32.03-26.007c-1.805-0.82-3.856,0.487-3.884,2.474l0,0
			c-0.043,3.157,1.454,6.169,4.069,7.93c10.012,6.74,17.621,17.043,21.008,28.653c4.015,13.761,2.273,28.846,7.263,42.282
			c4.188,11.28,12.813,20.501,16.863,31.832c3.703,10.357,3.314,21.674,5.055,32.537c1.741,10.863,6.566,22.391,16.542,26.986
			C2808.704,1765.24,2799.684,1690.469,2791.172,1676.792z"/>
		<path style="fill:#3C8F7C;" d="M2941.284,1669.805c-0.562,10.236,1.003,20.967-3.003,30.399
			c-2.562,6.034-7.172,10.913-10.955,16.265c-13.285,18.793-18.104,45.419-38.518,55.998c-1.348,0.697-2.85,1.322-4.341,1.045
			c-2.092-0.391-3.463-2.406-4.304-4.365c-5.004-11.66,0.611-24.797,3.937-37.045c0.582-2.144,1.07-4.531,0.049-6.502
			c-1.124-2.168-3.686-3.108-5.435-4.81c-3.488-3.393-3.16-9.006-2.467-13.827c1.73-12.045,4.163-23.989,7.281-35.751
			c1.769-6.669,3.811-13.396,7.653-19.123c4.23-6.304,10.374-11.01,16.126-15.958c25.419-21.867,44.891-50.61,55.79-82.355
			c2.359-6.872,4.463-14.128,9.337-19.51c4.873-5.382,13.561-8.152,19.496-3.977c4.223,2.972-13.074,30.796-15.092,34.133
			c-5.762,9.534-5.84,17.831-9.097,28.419C2959.762,1618.786,2942.811,1642.007,2941.284,1669.805z"/>
		<path style="fill:#327F6B;" d="M2921.164,1681.641c3.775-9.764,7.584-19.655,8.828-30.053c1.383-11.558-0.452-23.378,1.522-34.85
			c2.538-14.748,11.137-27.72,15.394-42.064c3.074-10.359,3.829-21.243,5.676-31.891c5.279-30.449,19.595-60.201,15.486-90.83
			c-0.895-6.662-3.901-14.428-10.513-15.564c-5.985-1.028-11.436,4.445-12.991,10.326c-1.558,5.883-0.396,12.087,0.031,18.156
			c1.192,16.929-3.638,34.221-13.425,48.07c-9.404,13.306-23.048,23.324-31.51,37.251c-10.38,17.082-11.792,37.935-17.089,57.217
			c-10.533,38.347-36.951,71.799-41.768,111.277c-1.916,15.709,1.771,34.805,16.269,41.08
			C2899.008,1777.918,2911.665,1706.205,2921.164,1681.641z"/>
		<path style="fill:#F7CC7F;" d="M2847.861,1730.308h-6.706h-89.524c-6.579,0-11.434,6.156-9.912,12.57l35.079,147.925
			c1.091,4.601,5.192,7.849,9.912,7.849h54.445h6.706h54.444c4.72,0,8.821-3.248,9.913-7.849l35.079-147.925
			c1.521-6.414-3.333-12.57-9.912-12.57H2847.861z"/>
	</g>
	<g>
		<ellipse style="fill:#3C8F7C;" cx="2406.916" cy="596.46" rx="146.58" ry="146.464"/>
		<path style="fill:#EAFCFC;" d="M2535.777,588.379c4.467,71.113-49.606,132.379-120.775,136.842
			c-71.168,4.462-132.482-49.568-136.948-120.681s49.606-132.379,120.775-136.841
			C2469.997,463.236,2531.311,517.267,2535.777,588.379z"/>
		<g>
			
				<rect x="2309.12" y="576" transform="matrix(6.123234e-17 -1 1 6.123234e-17 1714.7339 2906.563)" style="fill:#C5DDF9;" width="3.058" height="39.83"/>
			
				<rect x="2501.923" y="576" transform="matrix(6.123234e-17 -1 1 6.123234e-17 1907.5371 3099.3662)" style="fill:#C5DDF9;" width="3.058" height="39.829"/>
			<rect x="2405.229" y="481.223" style="fill:#C5DDF9;" width="3.06" height="39.799"/>
			<rect x="2405.229" y="673.104" style="fill:#C5DDF9;" width="3.06" height="39.798"/>
			<path style="fill:#B0C1EC;" d="M2410.514,596.46c0,1.985-1.611,3.595-3.598,3.595c-1.988,0-3.599-1.61-3.599-3.595
				c0-1.985,1.61-3.595,3.599-3.595C2408.902,592.865,2410.514,594.475,2410.514,596.46z"/>
			<g>
				<path style="fill:#B0C1EC;" d="M2406.916,598.067c-0.412,0-0.824-0.157-1.138-0.471l-64.649-64.598
					c-0.628-0.627-0.628-1.646,0-2.273s1.646-0.627,2.275,0l64.648,64.599c0.629,0.627,0.629,1.645,0,2.272
					C2407.738,597.91,2407.327,598.067,2406.916,598.067z"/>
			</g>
			<g>
				<g>
					<path style="fill:#B0C1EC;" d="M2427.703,661.744c-0.268-0.134-0.484-0.371-0.586-0.677l-20.896-63.071
						c-0.203-0.612,0.129-1.273,0.743-1.477c0.612-0.203,1.274,0.129,1.478,0.742l20.896,63.07c0.203,0.613-0.129,1.274-0.742,1.477
						C2428.289,661.91,2427.97,661.878,2427.703,661.744z"/>
				</g>
			</g>
		</g>
	</g>
	<g>
		<g>
			<path style="fill:#13375B;" d="M1297.198,1532.943h-6.311c1.033-0.781,2.324-1.248,3.729-1.248h158.099
				c8.271,0,14.977,6.573,14.977,14.683v9.326c0,8.109-6.706,14.683-14.977,14.683l-156.331-0.052L1297.198,1532.943z"/>
			<path style="fill:#0E293F;" d="M1386.954,1531.729c7.91,0,14.323,6.287,14.323,14.042v10.539c0,7.755-6.413,14.041-14.323,14.041
				h-98.42v-2.357h0.407l25.021-2.322l5.058-19.45c0,0-9.761-10.747-10.397-11.024s-19.681-1.118-19.681-1.118l-0.407-0.005v-2.345
				H1386.954z"/>
			<path style="fill:#F4F4F4;" d="M1294.917,1550.972c0-11.372-5.994-16.884-5.994-16.884h96.016
				c7.266,0,13.156,5.773,13.156,12.896v8.113c0,7.123-5.89,12.896-13.156,12.896h-96.016
				C1288.923,1567.994,1294.917,1565.29,1294.917,1550.972z"/>
			<path style="fill:#DAEEF7;" d="M1398.094,1546.984v8.113c0,1.066-0.135,2.102-0.384,3.093
				c-3.238-7.768-9.445-15.249-21.26-17.654c-27.584-5.616-87.528-6.448-87.528-6.448h96.016
				C1392.204,1534.088,1398.094,1539.861,1398.094,1546.984z"/>
		</g>
		<path style="fill:#50BFA5;" d="M1474.334,1502.02h6.313c-1.033-0.62-2.325-0.99-3.73-0.99h-158.161
			c-8.274,0-14.982,5.216-14.982,11.65v7.399c0,6.435,6.708,11.65,14.982,11.65l156.392-0.041L1474.334,1502.02z"/>
		<path style="fill:#3C8F7C;" d="M1384.543,1501.057c-7.914,0-14.329,4.988-14.329,11.142v8.362c0,6.153,6.415,11.142,14.329,11.142
			h98.459v-1.87h-0.407l-25.031-1.844l-5.059-15.433c0,0,9.765-8.528,10.401-8.748s19.688-0.888,19.688-0.888l0.407-0.003v-1.86
			H1384.543z"/>
		<path style="fill:#F4F4F4;" d="M1476.616,1516.324c0-9.023,5.997-13.396,5.997-13.396h-96.053
			c-7.269,0-13.161,4.581-13.161,10.233v6.437c0,5.652,5.893,10.234,13.161,10.234h96.053
			C1482.613,1529.832,1476.616,1527.686,1476.616,1516.324z"/>
		<path style="fill:#DAEEF7;" d="M1373.398,1513.161v6.437c0,0.847,0.135,1.668,0.384,2.455c3.24-6.164,9.449-12.1,21.268-14.009
			c27.595-4.456,87.563-5.116,87.563-5.116h-96.053C1379.291,1502.928,1373.398,1507.509,1373.398,1513.161z"/>
		<g>
			<polygon style="fill:#F47458;" points="1462.553,1516.172 1456.471,1525.807 1449.666,1516.172 			"/>
			<path style="fill:#DAEEF7;" d="M1373.485,1516.172h103.139c0,0,0-0.665,0-0.771c0-0.105-103.226,0-103.226,0L1373.485,1516.172z"
				/>
		</g>
		<g>
			<polygon style="fill:#50BFA5;" points="1309.039,1551.859 1315.121,1561.494 1321.927,1551.859 			"/>
			<path style="fill:#DAEEF7;" d="M1398.107,1551.859h-103.139c0,0,0-0.665,0-0.771c0-0.105,103.225,0,103.225,0L1398.107,1551.859z
				"/>
		</g>
		<g>
			<g>
				<path style="fill:#F47458;" d="M1313.859,1471.476h-4.986c0.816-0.617,1.836-0.986,2.946-0.986h124.901
					c6.535,0,11.832,5.193,11.832,11.6v7.368c0,6.406-5.297,11.6-11.832,11.6l-123.504-0.041L1313.859,1471.476z"/>
				<path style="fill:#B75742;" d="M1384.769,1470.517c6.249,0,11.315,4.967,11.315,11.093v8.327
					c0,6.126-5.066,11.093-11.315,11.093h-77.754v-1.862h0.321l19.767-1.835l3.995-15.366c0,0-7.711-8.491-8.214-8.71
					s-15.548-0.884-15.548-0.884l-0.321-0.003v-1.853H1384.769z"/>
				<path style="fill:#F4F4F4;" d="M1312.057,1485.718c0-8.983-4.736-13.339-4.736-13.339h75.854c5.74,0,10.394,4.563,10.394,10.189
					v6.409c0,5.627-4.653,10.189-10.394,10.189h-75.854C1307.321,1499.167,1312.057,1497.03,1312.057,1485.718z"/>
				<path style="fill:#DAEEF7;" d="M1393.569,1482.568v6.409c0,0.843-0.106,1.66-0.303,2.443
					c-2.558-6.136-7.461-12.047-16.795-13.947c-21.792-4.437-69.149-5.095-69.149-5.095h75.854
					C1388.916,1472.379,1393.569,1476.941,1393.569,1482.568z"/>
			</g>
			<g>
				<polygon style="fill:#13375B;" points="1365.641,1485.086 1371.004,1494.613 1375.822,1485.086 				"/>
				<path style="fill:#DAEEF7;" d="M1393.569,1485.086h-81.549c0,0,0-0.665,0-0.771s81.549,0,81.549,0V1485.086z"/>
			</g>
		</g>
	</g>
	<rect x="116.347" y="1894.041" style="fill:#E25A44;" width="3035.036" height="15.03"/>
</g>
</svg>
