<?xml version="1.0" encoding="utf-8"?>
<!-- Generator: Adobe Illustrator 27.5.0, SVG Export Plug-In . SVG Version: 6.00 Build 0)  -->
<svg version="1.1" xmlns="http://www.w3.org/2000/svg" xmlns:xlink="http://www.w3.org/1999/xlink" x="0px" y="0px"
	 viewBox="0 0 500 500" style="enable-background:new 0 0 500 500;" xml:space="preserve">
<g id="BACKGROUND">
	<rect style="fill:#FFFFFF;" width="500" height="500"/>
</g>
<g id="OBJECTS">
	<g>
		<path style="fill:#C08332;" d="M245.299,404.5c-2.672,3.066-4.924,6.932-4.436,10.969c0.435,3.597,2.964,6.749,3.072,10.371
			c0.161,5.396-4.829,9.269-8.457,13.267c-3.741,4.123-6.454,9.637-5.63,15.143c0.651,4.35,3.467,8.178,7.036,10.75
			c3.569,2.571,7.841,4.002,12.146,4.906c8.324,1.75,17.033,1.645,25.313-0.303c6.491-1.527,12.908-4.315,17.399-9.244
			c5.22-5.729,7.242-13.597,9.088-21.125c2.017-8.227,4.034-16.453,6.051-24.68c1.313-5.357,2.596-11.171,0.409-16.235
			c-2.395-5.548-8.597-8.756-14.634-9.033C286.619,389.008,255.472,392.829,245.299,404.5z"/>
		<path style="fill:#A2A183;" d="M263.731,253.132c4.451-6.211,8.989-12.604,10.93-19.994c1.941-7.39,0.746-16.109-4.933-21.221
			c-4.986-4.489-12.279-5.372-17.838-9.13c-8.811-5.955-11.404-17.487-14.218-27.742c-3.794-13.827-9.335-27.394-18.231-38.639
			c-8.897-11.244-21.435-20.035-35.572-22.434c-3.715-0.631-7.958-0.672-10.749,1.859c-2.333,2.116-3.023,5.5-3.089,8.648
			c-0.501,23.894,26.077,41.056,27.972,64.88c0.12,1.507,0.098,3.148-0.807,4.359c-0.834,1.115-2.242,1.624-3.593,1.962
			c-6.353,1.593-13.022,0.701-19.571,0.668c-6.549-0.033-13.62,1.05-18.283,5.648c-0.904,0.891-1.725,1.966-1.884,3.225
			c-0.296,2.34,1.723,4.291,3.679,5.61c7.952,5.36,17.63,7.323,26.957,9.554c14.363,3.436,28.971,8.011,40.181,17.626
			c5.803,4.977,10.646,11.263,17.433,14.781C248.902,256.312,260.463,257.691,263.731,253.132z"/>
		<path style="fill:#A2A183;" d="M324.033,48.384c-14.578,16.898-27.991,34.802-40.112,53.541
			c-6.202,9.588-12.209,19.802-13.459,31.152c-0.501,4.554-0.111,9.482,2.618,13.162c1.937,2.611,4.866,4.328,7.904,5.484
			c9.186,3.497,20.06,2.174,28.139-3.423c9.123-6.321,14.06-17.026,17.861-27.453c7.688-21.091,12.439-43.118,17.166-65.063
			c0.943-4.378,1.784-9.332-0.758-13.02C340.853,39.076,332.591,38.463,324.033,48.384z"/>
		<g>
			<path d="M194.923,34.515c-0.006,0.015-0.011,0.031-0.017,0.047C194.881,34.637,194.875,34.668,194.923,34.515z"/>
			<path d="M364.747,200.517c-2.537-0.779-5.23-0.976-7.873-0.928c-3.567,0.029-7.074,0.776-10.504,1.707
				c-3.284,0.872-6.505,1.968-9.598,3.379c-6.905,3.099-13.406,7.099-20.253,9.389c-3.552,1.197-7.16,2.258-10.595,3.773
				c-2.633,1.152-5.538,2.486-6.941,5.143c-0.704,1.27-1.146,2.643-1.516,4.04c-1.67-0.036-3.375-0.22-4.609-0.402
				c-1.527-0.289-3.021-0.772-4.579-0.876c-2.507-0.188-4.954,0.256-7.315,1.03c0.401-4.487,0.682-8.987,0.786-13.491
				c0.03-7.48-0.049-14.961,0.301-22.435c0.191-5.206,0.469-10.408,0.712-15.612c0.101-2.163,0.11-4.329,0.233-6.49
				c0.12-2.256,0.362-4.503,0.517-6.756c0.348-4.001,0.956-7.614,1.448-11.587c0.152-1.253,0.392-2.499,0.584-3.745
				c0.18,0.024,0.371,0.007,0.549,0.021c0.961-0.001,1.909-0.232,2.835-0.471c1.588-0.481,2.461-0.847,3.969-1.631
				c1.462-0.88,2.804-1.939,4.148-2.987c1.439-1.17,2.91-2.318,4.203-3.652c1.828-1.976,3.557-4.07,4.95-6.378
				c1.744-2.974,2.875-6.241,4.061-9.464c1.46-4.127,3.146-7.698,5.41-11.678c1.636-3.018,3.58-5.866,5.026-8.987
				c2.07-4.419,3.721-9.015,5.58-13.522c2.051-4.841,5.108-12.025,7.211-18.339c0.734-2.16,1.364-4.354,2.072-6.523
				c0.876-2.743,1.827-5.461,2.673-8.213c1.106-3.701,2.046-7.448,3.143-11.152c0.466-1.561,0.904-3.131,1.288-4.714
				c0.168-0.857,0.555-1.727,0.38-2.606c-0.588-1.375-2.217,0.286-2.682,0.997c-1.689,2.309-2.794,3.664-4.476,5.89
				c-2.252,3.077-4.455,6.192-6.532,9.39c-0.741,1.185-1.51,2.352-2.27,3.525c1.29-2.181,2.549-4.38,3.795-6.585
				c1.515-2.722,3.149-5.028,4.989-7.229c0.888-1.081,1.806-2.136,2.706-3.207c0.658-0.82,1.372-1.633,1.797-2.602
				c0.231-0.415,0.069-1.117-0.488-1.111c-0.398,0.018-0.757,0.223-1.112,0.385c-1.713,0.918-3.238,2.147-4.774,3.328
				c-2.553,1.983-4.95,4.206-6.856,6.83c-1.206,1.666-2.035,3.566-2.881,5.431c-0.036,0.076-0.07,0.153-0.104,0.23
				c0.031-1.005-0.11-2.281-1.246-2.053c-0.542,0.202-0.931,0.657-1.327,1.059c-0.55,0.599-1.048,1.243-1.542,1.888
				c-1.626,2.159-3.182,4.369-4.731,6.583c-2.279,3.239-4.327,5.899-6.778,8.889c-3.029,3.56-6.08,7.101-8.964,10.782
				c-3.707,4.704-7.276,9.517-10.652,14.464c-2.508,3.456-4.817,7.049-7.298,10.522c-4.944,6.887-10.331,13.767-13.196,21.833
				c-0.431,1.286-0.674,2.618-0.733,3.974c-0.14,1.572-0.02,3.156,0.366,4.687c0.575,2.188,1.991,4.072,3.81,5.392
				c2.458,1.878,5.406,2.932,8.295,3.955c0.707,0.248,1.425,0.464,2.134,0.705c0.085,0.021,0.169,0.052,0.254,0.085
				c-0.163,0.833-0.324,1.667-0.477,2.503c-1.166,6.262-2.121,12.569-2.607,18.923c-0.801,10.103-0.755,20.246-0.784,30.373
				c0.015,8.782-0.329,17.559-0.954,26.319c-0.128,1.905-0.268,3.809-0.413,5.712c-0.812,0.375-1.61,0.773-2.394,1.18
				c-0.39,0.216-0.782,0.441-1.166,0.678c-0.169-1.374-0.424-2.739-0.758-4.08c-1.511-5.806-3.771-7.873-8.219-11.081
				c-2.118-1.587-4.287-3.113-6.56-4.47c-1.701-0.987-3.503-1.78-5.242-2.694c-0.083-0.045-0.162-0.09-0.243-0.135
				c-0.183-1.699-0.362-3.399-0.525-5.101c-0.684-6.556-0.588-13.164-1.189-19.723c-0.739-6.824-1.519-12.948-2.434-19.671
				c-0.441-3.019-0.827-6.046-1.307-9.058c-0.666-3.811-1.396-7.613-2.201-11.397c-0.357-1.688-0.707-3.378-1.002-5.078
				c-0.239-1.169-0.182-1.701-0.489-2.794c-0.75-2-1.505-3.998-2.258-5.997c0.525,0.539,1.098,1.027,1.738,1.432
				c1.71,1.092,3.752,1.802,5.793,1.787c2.028-0.115,3.878-1.094,5.566-2.155c4.125-2.594,7.831-6.364,8.883-11.267
				c0.522-2.249,0.705-4.56,0.772-6.863c0.104-2.39,0.048-4.787-0.239-7.163c-0.375-3.269-1.385-6.409-2.307-9.554
				c-1.783-6.084-3.863-12.154-7.126-17.62c-1.555-2.566-3.141-5.15-5.251-7.305c-2.495-2.567-5.121-5.007-7.743-7.444
				c-2.604-2.359-5.32-4.597-7.844-7.042c-1.339-1.342-2.231-2.477-3.116-3.973c-0.878-1.741-1.404-3.385-2.382-5.369
				c-2.091-4.414-5.342-8.343-9.635-10.75c-1.461-0.801-3.018-1.403-4.547-2.058c-2.267-0.942-4.547-1.855-6.851-2.702
				c-1.075-0.352-2.093-0.819-2.883-1.157c-1.46-0.669-2.187-0.552-2.233,1.601c-0.05,0.479-0.11,1.129-0.23,1.568
				c-0.162-0.146-0.319-0.297-0.491-0.432c-1.036-0.847-2.381-1.5-3.742-1.3c-0.74,0.192-1.453,0.525-2.034,1.026
				c-1.683,1.478-2.068,3.823-2.479,5.916c-0.398,2.16-0.696,4.341-0.693,6.541c0.215,5.924,2.278,11.568,3.657,17.284
				c0.796,3.107,1.125,6.191,1.501,9.004c0.513,4.139,1.036,8.322,2.307,12.308c1.157,3.35,2.916,6.458,4.827,9.431
				c2.054,3.223,4.578,6.112,6.713,9.279c3.093,4.537,6.04,9.182,9.507,13.451c2.722,3.414,6.061,6.306,9.713,8.688
				c1.891,1.233,3.946,2.21,5.749,3.578c0.846,0.66,2.286,2.115,2.828,3.172c0.428,0.88,0.88,3.05,1.145,4.498
				c0.797,4.294,1.769,8.554,2.565,12.849c1.251,6.795,2.125,12.956,2.746,19.673c0.513,5.072,1.127,10.135,1.574,15.214
				c0.59,6.716,1.114,13.439,1.885,20.138c0.094,0.794,0.186,1.588,0.278,2.383c-2.887-1.901-5.209-3.464-9.874-3.896
				c-1.374-0.127-2.766-0.189-4.139-0.025c-1.055,0.102-2.307,0.476-1.932,1.807c0.68,3.551,1.287,6.481,1.139,10.11
				c0.002,0.125-0.054,0.412-0.013,0.157c-0.012,0.067-0.023,0.134-0.035,0.2c0.005,0.083-0.096,0.386-0.147,0.538
				c-0.013-0.022-0.026-0.045-0.038-0.068c-0.13-0.325-0.186-0.673-0.276-1.01c-0.432-1.825-0.864-3.652-1.417-5.445
				c-0.495-1.709-1.091-3.467-2.43-4.708c-1.255-1.237-2.951-1.811-4.625-2.231c-2.487-0.69-5.074-0.809-7.644-0.734
				c-0.031-0.113-0.062-0.227-0.093-0.34c0.396-0.407,0.486-1.362,0.61-1.806c0.045-0.231,0.079-0.464,0.125-0.695
				c0.019-0.087,0.034-0.176,0.061-0.261c0.008-0.023,0.015-0.042,0.022-0.06c0.339-0.01,0.678,0.036,1.016,0.061
				c1.509,0.077,3.03-0.044,4.519-0.288c1.335-0.281,2.612-0.791,3.852-1.351c1.096-0.508,2.169-1.123,3.069-1.935
				c0.853-0.829,1.482-1.863,2.009-2.921c2.912-6.23,4.186-10.864,0.494-17.126c-2.099-3.795-5.015-7.051-7.767-10.377
				c-2.626-3.1-5.132-6.3-7.842-9.329c-1.465-1.664-2.809-3.429-4.217-5.141c-0.402-0.47-1.034-1.49-1.704-0.864
				c-0.691,0.934-0.863,2.169-1.11,3.283c-0.035,0.157-0.064,0.318-0.1,0.476c-0.038-0.085-0.075-0.17-0.112-0.255
				c-0.49-1.268-1.54-4.16-3.456-4.815c-0.756-0.25-1.887-0.312-2.797-0.042c-0.666-1.415-1.388-2.807-2.029-4.23
				c-1.136-2.474-2.422-4.878-3.876-7.18c-1.335-2.131-2.839-4.152-4.15-6.299c-1.381-2.297-2.777-4.954-3.635-7.069
				c-0.684-1.783-1.415-3.55-2.326-5.23c-0.701-1.401-1.891-3.592-3.595-1.833c-1.191,1.288-1.674,3.044-2.151,4.692
				c-0.033,0.11-0.059,0.222-0.089,0.333c-0.403-0.651-0.838-1.285-1.244-1.925c-1.598-2.274-3.238-4.645-5.552-6.243
				c-1.245-0.863-2.643-0.264-2.682,1.391c-0.078,3.294,0.665,6.543,1.436,9.726c0.962,3.812,2.232,7.545,3.941,11.089
				c3.312,7.021,7.964,13.26,12.562,19.474c2.008,2.651,3.969,5.336,5.869,8.066c1.48,2.04,3.036,4.024,4.552,6.038
				c1.312,1.747,2.669,3.483,3.628,5.457c1.618,3.227,2.492,7.604,3.756,11.407c0.689,2.139,1.549,4.216,2.381,6.302
				c0.943,2.486,1.842,4.992,2.598,7.542c0.235,0.813,0.463,1.629,0.698,2.443c-0.696,0.044-1.393,0.093-2.088,0.148
				c-1.133,0.08-2.268,0.252-3.404,0.145c-0.667-0.057-1.653-0.245-2.268-0.579c-1.282-0.794-2.448-1.826-3.906-2.296
				c-1.908-0.628-3.519,0.007-2.717,2.363c0.317,1.205,0.775,2.357,1.311,3.476c-0.713-0.528-1.444-1.062-2.315-1.635
				c-1.564-0.937-3.233-1.717-4.975-2.261c-2.66-0.849-5.44-1.205-8.167-1.764c-3.861-0.728-7.731-1.47-11.641-1.88
				c-4.239-0.387-8.509-0.731-12.765-0.452c-5.168,0.3-10.308,1.37-15.176,3.13c-2.079,0.76-4.092,1.686-6.11,2.594
				c-1.569,0.737-3.209,1.387-4.6,2.439c-0.894,0.651-1.434,1.648-2.24,2.39c-0.701,0.643-1.417,0.881-2.16,1.125
				c-1.132,0.353-2.293,0.602-3.449,0.859c-1.997,0.428-3.946,1.051-5.874,1.719c-1.274,0.509-2.726,0.853-3.705,1.86
				c-0.31,0.395-0.398,0.945-0.322,1.431c0.067,0.449,0.388,0.804,0.715,1.098c0.683,0.619,1.601,0.755,2.481,0.876
				c0.86,0.113,1.728,0.184,2.596,0.164c4.485-0.068,8.98-0.088,13.451-0.487c2.174-0.259,4.306-0.765,6.43-1.279
				c2.936-0.763,6.408-0.41,9.738-0.022c2.345,0.249,4.703,0.339,7.057,0.478c3.048,0.174,6.098-0.027,9.14-0.221
				c3.182-0.193,6.363-0.399,9.546-0.573c2.428-0.076,4.857,0.062,7.282,0.184c3.124,0.094,6.483,0.358,9.191,0.812
				c5.357,0.811,10.704,2.619,15.278,4.747c4.091,1.889,7.383,4.367,10.635,7.151c0.176,0.142,0.347,0.289,0.521,0.433
				c0.543,3.09,2.273,11.29,2.508,12.153c0.882,3.235,1.818,6.455,2.773,9.669c1.053,3.49,1.979,7.016,2.913,10.539
				c0.858,3.139,1.791,6.259,2.592,9.413c1.466,5.501,2.154,10.642,2.777,16.071c1.097,7.625,2.512,15.199,3.81,22.791
				c0.668,4.112,1.279,8.234,1.916,12.351c0.249,1.832,0.548,4.22,0.862,6.537c-0.523-2.061-1.048-4.122-1.666-6.157
				c-1.014-3.121-2.203-6.185-3.512-9.194c-1.621-3.715-3.507-7.302-5.519-10.818c-0.959-1.834-2.369-3.988-2.495-5.369
				c0-0.001,0.001-0.002,0.001-0.003c0.187-0.275,0.317-0.386,1.047-0.326c2.95,0.441,3.402-1.108,1.803-3.351
				c-1.088-1.673-2.371-3.215-3.805-4.603c-1.319-1.249-2.772-2.344-4.121-3.559c-1.3-1.167-2.496-2.443-3.676-3.73
				c-1.946-2.144-4.128-4.084-6.504-5.74c-3.895-2.741-8.316-4.568-12.627-6.539c-2.781-1.264-5.471-2.714-8.206-4.072
				c-2.811-1.31-5.546-2.774-8.35-4.097c-2.772-1.276-5.711-2.113-8.571-3.157c-0.863-0.357-1.237-0.49-2.207-0.978
				c-0.419-0.193-0.811-0.441-1.24-0.609c-0.328-0.115-0.731,0.116-0.734,0.481c-0.017,0.364,0.147,0.713,0.227,1.063
				c0.187,0.678,0.376,1.357,0.53,2.043c0.094,0.467,0.155,0.814,0.138,1.129c-0.518-0.811-0.965-1.668-1.448-2.499
				c-0.366-0.582-0.609-1.264-1.136-1.723c-0.738-0.589-1.64-0.916-2.512-1.252c-1.168-0.447-2.353-0.851-3.566-1.16
				c-2.76-0.767-5.702-0.745-8.513-0.276c-1.172,0.187-2.525,0.677-3.001,1.853c-0.258,0.646-0.236,1.445,0.149,2.036
				c0.926,1.227,2.288,2.015,3.562,2.834c2.553,1.513,5.34,2.559,8.039,3.772c3.77,1.746,7.533,3.528,11.139,5.597
				c4.542,2.737,9.079,5.493,13.859,7.803c4.393,2.197,8.974,3.976,13.615,5.572c3.308,1.205,6.13,2.08,9.081,3.711
				c4.274,2.401,7.621,5.322,10.921,9.06c2.012,2.382,3.737,4.659,5.413,7.527c1.648,2.992,3.025,6.128,4.405,9.251
				c1.11,2.515,2.289,5.724,3.073,8.778c0.957,3.601,1.544,7.285,2.312,10.928c1.213,5.784,2.803,11.477,4.336,17.182
				c1.568,5.834,2.806,12.761,4.193,21.938c0.336,2.222,0.451,4.473,0.599,6.715c-1.443,0.105-2.886,0.222-4.326,0.36
				c-3.361,0.301-6.718,0.652-10.067,1.067c-3.661,0.447-7.354,0.973-10.846,2.2c-0.901,0.325-1.778,0.735-2.54,1.321
				c-0.442,0.336-0.889,0.704-1.131,1.215c-0.601,1.143,0.059,2.308,1.178,2.789c1.998,1.082,4.297,1.378,6.507,1.763
				c3.03,0.421,6.067,0.788,9.113,1.074c3.205,0.274,9.27,0.563,11.75-1.692c1.707-1.585,1.714-5.549,1.518-8.782
				c0.294-0.02,13.238-0.196,22.214,0.196c1.852,0.081,3.765,0.058,5.612,0.219c-0.348,1.51-0.67,3.11-0.72,4.525
				c-0.108,2.004,1.668,3.399,2.377,3.914c-3.712,0.691-7.413,1.279-10.478,1.665c-7.62,0.944-15.297,1.346-22.974,1.312
				c-4.361-0.006-8.725,0.099-13.085-0.072c-2.406-0.162-4.125-0.424-6.566-1.086c-0.952-0.251-1.901-0.514-2.864-0.716
				c-0.612-0.139-1.25-0.249-1.863-0.061c-1.575,0.535-1.712,2.996-2.006,4.395c-0.317,2.021-0.471,3.375-0.742,5.538
				c-2.492,19.927,5.452,47.998,13.547,59.017c0.881,1.199,1.821,2.353,2.814,3.46c0.294,0.326,0.591,0.65,0.891,0.971
				c0.118,0.123,0.226,0.269,0.396,0.318c0.757,0.324,1.406-0.641,0.828-1.229c-1.772-1.968-2.873-3.268-4.24-5.27
				c-3.352-4.909-15.839-29.73-12.692-59.515c0.234-2.214,0.65-5.633,1.196-6.383c0.513-0.561,1.622-0.125,3.388,0.31
				c1.983,0.555,3.985,1.066,6.038,1.273c3.834,0.421,7.704,0.272,11.555,0.318c5.092,0.006,10.185,0.02,15.271-0.263
				c7.801-0.496,15.575-1.459,23.229-3.055c1.001,0.434,2.092,0.72,3.205,0.912c3.5,0.598,7.152,0.446,10.542-0.645
				c1.358-0.494,2.799-0.883,3.973-1.757c0.636-0.474,1.712-1.155,1.128-2.04c-1.273-2.046-10.035,0.483-12.307,0.895
				c-2.064,0.484-4.302,0.957-6.568,1.397c-3.71-2.045-2.783-4.108-2.119-7.937c0.057,0.003,0.114,0.007,0.171,0.01
				c0.163,0.009,7.977,0.848,11.721,1.227c2.895,0.35,6.039,0.724,9.226,1.656c2.228,0.558,2.401,3.268,2.468,5.221
				c0.077,2.262-3.345,66.842-15.19,74.504c-5.646,3.652-16.133,4.218-23.201,4.563c-3.868,0.114-7.744,0.041-11.6-0.296
				c-3.058-0.309-5.589-0.569-8.613-1.525c-0.537-0.178-0.898-0.386-1.278-0.759c-0.022-0.036-0.042-0.074-0.058-0.105
				c-0.01-0.034-0.017-0.053-0.02-0.059v0c0.003-0.012,0.005-0.024,0.009-0.036c0.018-0.023,0.029-0.04,0.034-0.049
				c0.297-0.287,1.004-0.475,1.82-0.704c10.176-2.851,23.826-2.534,27.773-2.261c2.845,0.197,5.662,0.544,8.19,0.897
				c0.819,0.15,1.634,0.325,2.439,0.539c0.313,0.071,0.619,0.252,0.94,0.251c0.426-0.038,0.472-0.69,0.054-0.792
				c-1.68-0.578-3.438-0.878-5.196-1.101c-1.702-0.228-3.652-0.462-5.658-0.635c-14.714-1.265-27.923,1.533-30.495,2.656
				c-1.398,0.611-1.146,1.975,0.111,2.656c1.148,0.642,2.475,0.888,3.753,1.145c1.437,0.296,3.174,0.533,4.957,0.73
				c4.475,0.469,8.986,0.555,13.48,0.394c6.941-0.38,17.239-0.941,23.114-4.689c3.132-2.198,4.663-5.916,5.977-9.375
				c0.924-2.509,1.611-5.097,2.494-7.622c5.638-16.127,7.359-53.384,7.513-56.383c0.522-10.201-1.401-8.282-24.62-11.415
				c0.588-2.469,1.237-4.924,1.773-7.405c1.085-5.138,2.133-10.293,2.862-15.495c0.361-2.741,0.622-5.493,0.826-8.25
				c0.154-1.902,0.389-3.799,0.424-5.708c0.007-5.815-0.263-11.629-0.226-17.445c-0.014-1.912-0.041-3.826-0.191-5.733
				c-0.164-2.29-0.42-4.581-0.348-6.88c0.115-3.448,0.433-6.177,1.218-9.47c0.461-1.892,0.798-3.56,1.644-5.025
				c0.594-1.04,1.182-1.953,1.772-2.627c0.975-1.111,2.118-2.057,3.189-3.072c1.39-1.318,2.913-3.07,4.173-3.891
				c1.055-0.762,2.271-1.252,3.445-1.796c1.717-0.768,3.446-1.509,5.153-2.299c2.931-1.352,5.781-2.87,8.629-4.387
				c2.032-1.142,3.96-2.458,5.881-3.774c5.846-3.936,10.566-8.962,16.246-12.608c3.581-2.402,7.379-4.457,11.279-6.289
				c1.166-0.55,2.261-1.04,3.192-1.412c1.052-0.426,2.096-0.89,3-1.587c0.322-0.245,0.636-0.507,0.888-0.825
				c0.116-0.111,0.197-0.256,0.206-0.416c0.098-0.537-0.284-1.058-0.786-1.237c-0.905-0.351-1.905-0.331-2.86-0.429
				c-0.566-0.097-2.477-0.144-3.52-0.269c-3.519-0.219-7.016-0.831-10.547-0.82c-1.665,0.043-3.36,0.45-4.787,1.324
				c0.512-0.713,0.953-1.646-0.247-1.896c-1.225-0.193-2.481-0.042-3.71,0.055c-2.863,0.235-5.622,1.082-8.34,1.971
				c-3.992,1.31-7.894,2.885-11.658,4.754c-3.375,1.635-7.651,3.784-10.647,5.068c-2.768,1.223-5.682,2.107-8.391,3.461
				c-0.85,0.426-1.66,0.926-2.432,1.479c0.428-1.89,0.868-3.777,1.29-5.668c1.469-5.618,3.248-10.936,5.707-15.872
				c2.03-4.076,6.137-10.634,6.674-14.15c0.007,0,0.014,0,0.021,0c1.439-0.041,2.866-0.255,4.293-0.43
				c3.496-0.455,6.913-1.359,10.392-1.914c1.491-0.259,3.558-0.398,5.448-0.61c2.159-0.247,4.311-0.556,6.473-0.778
				c2.482-0.211,4.977-0.354,7.467-0.231c3.197,0.219,5.764,0.531,8.765,1.086c2.344,0.465,4.656,1.11,7.03,1.411
				c3.414,0.451,6.927,0.025,10.146-1.194c2.263-0.838,4.346-2.088,6.351-3.418c2.965-1.929,5.578-4.513,6.97-7.812
				C374.567,207.369,371.287,202.831,364.747,200.517z M290.625,384.672c1.664-0.317,2.799-0.614,4.309-0.706
				c0.882-0.048,1.526-0.12,2.139,0.086c0.053,0.022,0.156,0.053,0.197,0.063c0.022,0.011,0.044,0.023,0.064,0.036
				c0.015,0.013,0.028,0.028,0.042,0.042c-0.222,0.282-0.932,0.813-1.678,1.17c-2.645,1.155-6.038,1.953-9.138,1.919
				c-1.93-0.042-3.224-0.181-4.875-0.569C284.673,386.063,287.637,385.313,290.625,384.672z M279.769,203.708
				c0.118-11.281-0.188-22.569,0.46-33.839c0.424-8.078,1.458-15.389,3.008-23.273c0.167-0.878,0.347-1.753,0.533-2.627
				c-0.059-0.021-0.113-0.049-0.164-0.082c-0.037-0.207-0.188-0.388-0.399-0.445c-4.773-1.634-9.756-2.887-12.809-6.722
				c-0.946-1.13-1.666-3.491-1.697-5.216c0.012-1.561,0.061-3.001,0.342-4.172c0.599-2.359,1.34-3.926,2.35-5.991
				c2.943-5.89,6.885-11.203,10.724-16.528c2.302-3.149,4.382-6.452,6.675-9.607c3.797-5.477,7.807-11.035,11.484-15.696
				c2.865-3.69,5.897-7.242,8.909-10.811c2.583-3.172,5.077-6.42,7.414-9.777c2.052-2.833,4.535-6.695,6.489-8.314
				c0.075,0.248,0.092,0.633,0.093,1.132c-0.028,0.716-0.121,1.428-0.193,2.14c-0.013,0.134-0.044,0.287,0.024,0.412
				c0.131,0.383,0.684,0.363,0.876,0.051c0.458-0.705,0.741-1.508,1.093-2.268c0.909-2.049,2.235-4.739,3.391-6.097
				c1.914-2.413,4.196-4.501,6.621-6.39c1.196-0.917,2.656-2.111,4.285-2.965c-1.295,2.041-3.899,4.561-5.677,6.971
				c-2.162,2.73-3.789,5.815-5.531,8.816c-2.076,3.588-4.195,7.154-6.472,10.618c-2.606,3.926-5.392,7.729-7.959,11.68
				c-3.413,5.284-6.46,10.801-9.236,16.444c-2.272,4.512-4.622,9.555-6.365,13.82c-1.121,2.633-2.321,5.232-3.439,7.866
				c-1.48,3.652-2.893,7.33-4.362,10.987c-1.121,2.874-2.163,5.328-3.257,7.834c-1.111,2.342-2.353,4.664-3.027,7.176
				c-0.032,0.217,0.028,0.472,0.21,0.605c0.169,0.142,0.423,0.128,0.612,0.03c0.459-0.268,0.689-0.789,0.991-1.207
				c0.148-0.244,0.288-0.492,0.424-0.742c0.401-0.933,0.819-1.858,1.253-2.775c0.094-0.2,0.191-0.398,0.287-0.597
				c0.075-0.343,0.157-0.684,0.243-1.024c0.336-0.701,0.673-1.402,0.994-2.11c0.93-2.059,1.418-3.44,2.393-5.496
				c0.969-1.968,2.031-3.889,2.996-5.859c1.25-2.656,2.49-5.318,3.825-7.934c1.49-2.892,2.517-6.123,3.679-8.697
				c2.838-5.836,5.284-11.856,8.238-17.635c1.165-2.469,2.67-4.744,4.17-7.018c2.526-4.339,5.419-8.442,8.17-12.638
				c1.768-2.709,3.225-5.605,4.982-8.321c2.45-3.802,4.901-7.602,7.541-11.276c2.055-2.96,4.412-5.898,6.249-8.305
				c0.342-0.408,0.599-0.693,0.866-0.859c-0.037,0.282-0.13,0.664-0.232,1.069c-0.464,1.962-1.017,3.899-1.586,5.832
				c-1.045,3.505-1.943,7.051-2.996,10.553c-0.866,2.808-1.85,5.577-2.743,8.376c-1.247,3.978-2.475,7.965-3.983,11.854
				c-1.719,4.554-3.431,8.34-5.357,12.835c-1.316,3.124-2.703,6.795-3.823,9.449c-0.876,2.054-1.768,4.105-2.827,6.073
				c-1.168,2.141-2.51,4.182-3.667,6.329c-1.07,1.994-2.18,3.97-3.122,6.029c-1.019,2.215-1.857,4.506-2.682,6.799
				c-1.362,4.032-3.052,8.338-5.429,11.401c-1.043,1.317-2.096,2.633-3.273,3.833c-1.06,1.07-2.237,2.017-3.414,2.953
				c-1.333,1.091-4.168,3.181-5.64,3.744c-1.232,0.558-3.458,1.21-4.145,1.25c-0.374,0.051-0.752,0.081-1.129,0.054
				c-0.223,0.009-0.456-0.085-0.665,0.013c-0.057-0.022-0.117-0.035-0.178-0.034c-0.217-0.004-0.423,0.156-0.479,0.364
				c-0.702,3.813-1.164,7.665-1.732,11.5c-0.509,3.118-0.678,6.273-0.979,9.415c-0.284,3.088-0.284,6.189-0.425,9.284
				c-0.328,6.673-0.624,13.347-0.833,20.025c-0.182,6.095-0.017,12.195-0.114,18.29c-0.101,3.628-0.323,7.252-0.611,10.87
				c-0.051,0.677-0.107,1.353-0.167,2.029c-0.424,0.159-0.844,0.327-1.261,0.503C279.182,219.693,279.642,211.706,279.769,203.708z
				 M324.289,60.754c-0.968,1.68-1.942,3.357-3.016,4.972c-1.877,2.847-3.801,5.662-5.668,8.516
				c-0.845,1.365-1.622,2.772-2.517,4.106c-2.667,3.777-4.711,7.93-6.663,12.109c-1.05,2.244-2.032,4.518-3.076,6.765
				c-1.019,2.174-2.116,4.312-3.057,6.522c-0.839,1.966-1.481,3.845-2.231,5.456c-1.078,2.321-2.306,4.568-3.373,6.894
				c-0.537,1.221-1.119,2.419-1.716,3.611c0.857-2.16,1.923-4.914,2.57-6.478c1.004-2.359,2.082-4.686,3.091-7.044
				c1.881-4.507,3.887-8.96,6.087-13.321c1.831-3.712,3.693-7.413,5.803-10.976c3.309-5.994,7.342-11.532,11.202-17.174
				C322.602,63.407,323.454,62.086,324.289,60.754z M279.927,313.825c0.035,2.767,0.46,5.518,0.375,8.288
				c-0.097,4.51-0.618,8.999-0.746,13.508c-0.238,5.346-0.199,10.702-0.538,16.043c-0.227,3.505-0.608,6.458-1.106,9.727
				c-0.378,2.375-0.743,4.754-1.323,7.09c-0.284,1.145-1.736,5.053-1.993,5.464c-0.036-0.178,0.23-2.732,0.373-3.566
				c0.926-5.426,1.59-10.317,2.067-15.925c0.317-4.424,0.271-8.858,0.28-13.289c0.045-7.041,0.421-14.078,0.79-21.109
				c0.319-4.41,0.759-8.813,0.826-13.238c0.085-4.064,0.468-8.109,0.879-12.151c0.249-3.154,0.46-5.99,0.863-8.875
				c0.558,0.841,1.137,1.667,1.308,2.238c0.322,0.99,0.313,1.503,0.404,2.656c0.094,1.102,0.146,2.02-0.07,2.773
				c-0.436,1.068-0.602,2.205-0.8,3.334c-0.263,1.468-0.506,2.94-0.74,4.414C280.067,305.377,279.809,309.6,279.927,313.825z
				 M279.351,277.551c-0.08,0.806-0.165,1.635-0.253,2.472c-0.196-0.623-0.376-1.276-0.542-1.993
				c-0.303-1.439-0.382-3.253-0.001-4.683c0.474-1.513,1.188-2.887,2.106-4.164C280.13,271.958,279.666,274.743,279.351,277.551z
				 M280.366,281.341c-0.087,0.441-0.168,0.883-0.246,1.325c-0.022-0.048-0.044-0.095-0.065-0.143
				c0.307-2.845,0.555-5.794,0.933-8.16c0.377-2.397,0.837-4.779,1.319-7.157c0.23-0.242,0.467-0.482,0.713-0.718
				c-0.155,0.729-0.308,1.459-0.453,2.19C281.853,272.903,281.247,277.146,280.366,281.341z M281.101,266.958
				c-1.551,1.742-2.812,3.76-3.531,5.98c-0.524,1.955-0.354,4.031,0.117,5.979c0.315,1.159,0.7,2.302,1.162,3.412
				c-0.285,2.561-0.593,5.091-0.895,7.203c-0.472,3.392-1.041,6.777-1.258,10.198c-0.183,2.965-0.205,5.941-0.572,8.893
				c-0.48,4.496-1.2,8.971-1.358,13.496c-0.177,3.096-0.182,6.196-0.225,9.296c-0.046,2.835-0.221,5.665-0.379,8.495
				c-0.483,7.091-1.079,14.178-1.821,21.246c-0.349,3.325-0.991,10.527-2.546,12.286c-0.019,0.021-0.041,0.039-0.061,0.06
				c-0.03-0.047-0.061-0.093-0.086-0.143c-0.303-0.849-0.266-1.742-0.258-2.817c0.147-1.966,0.34-3.929,0.533-5.89
				c0.597-4.765,1.268-9.526,1.462-14.33c0.5-9.369,0.309-18.755,0.304-28.133c-0.066-5.393-0.249-10.788-0.058-16.181
				c0.096-2.468,0.484-5.521,0.744-7.49c1.075-7.917,2.467-16.514,3.527-24.433c0.668-4.815,1.537-9.603,2.077-14.435
				c0.643-6.311,1.015-12.646,1.587-18.963c0.232-2.761,0.555-5.512,0.849-8.266c2.879-0.019,5.775,0.031,8.629-0.391
				c1.71-0.34,3.414-0.786,5.074-1.334c-0.015,0.02-0.03,0.041-0.045,0.061c-0.777,1.343-1.236,2.144-1.825,3.231
				c-1.137,2.159-2.257,4.327-3.444,6.458c-3.117,5.676-4.585,12.023-5.983,18.293C282.257,261.478,281.657,264.214,281.101,266.958
				z M278.495,228.754c0.413-0.181,0.823-0.351,1.247-0.514c-0.101,1.075-0.209,2.149-0.322,3.223
				c-0.145,0.003-0.29,0.006-0.431,0.01c-0.237,0.01-0.473,0.022-0.71,0.037C278.353,230.592,278.424,229.673,278.495,228.754z
				 M273.957,231.081c1.026-0.692,2.15-1.218,3.267-1.745c-0.059,0.758-0.117,1.515-0.177,2.272
				c-1.042,0.095-2.083,0.217-3.124,0.322c-0.017-0.261-0.038-0.521-0.061-0.781C273.894,231.126,273.923,231.106,273.957,231.081z
				 M273.506,238.32c0.43-1.49,0.501-3.044,0.479-4.586c-0.001-0.29-0.008-0.58-0.017-0.871c1.001-0.089,2.001-0.204,3.003-0.294
				c-0.361,4.553-0.732,9.105-1.041,13.663c-0.352,4.445-0.964,8.153-1.662,12.653c-0.144,0.931-1.734,12.445-2.631,18.888
				c-0.644,4.623-1.21,9.257-1.73,13.895c-0.233,1.91-0.437,3.823-0.609,5.738c0.144-1.966,0.266-3.933,0.16-5.903
				c-0.264-4.727-1.266-9.381-2.339-13.982c-1.044-4.245-1.937-8.524-2.81-12.807c-0.486-2.313-0.936-4.442-1.08-6.429
				c-0.142-2.131,0.045-3.692,0.426-5.524c0.839-3.855,2.754-5.247,5.782-7.956c0.843-0.785,1.51-1.73,2.193-2.652
				C272.504,241.009,273.153,239.718,273.506,238.32z M263.464,354.206c0.508-4.353,1.15-8.522,1.761-13.167
				c0.759-6.259,1.509-12.52,2.068-18.8c0.257-2.825,0.427-5.656,0.677-8.482c0.072-0.81,0.677-7.255,0.889-10.007
				c-0.04,0.825-0.074,1.651-0.099,2.478c-0.384,6.861,0.446,13.714,0.254,20.578c-0.108,7.783-0.972,15.528-1.595,23.28
				c-2.344,29.131-4.079,24.381-4.082,24.376C263.244,374.324,262.189,372.975,263.464,354.206z M252.644,216.179
				c0.308,3.114,0.469,6.241,0.875,9.345c0.565,4.621,1.165,8.554,1.675,13.128c0.437,4.104,0.89,8.205,1.376,12.303
				c-0.139-0.144-0.278-0.287-0.418-0.429c-1.119-7.653-2.372-14.784-3.144-22.342c-0.72-6.774-1.535-13.538-2.307-20.306
				c0.368,0.228,0.741,0.448,1.122,0.656C252.098,211.082,252.381,213.629,252.644,216.179z M255.984,331.308
				c-0.106-2.049-0.16-4.1-0.087-6.155c0.204-4.587,0.286-9.177,0.21-13.768c-0.047-7.706-0.561-15.411-1.711-23.034
				c-0.359-1.97-0.638-3.955-1.061-5.912c-0.558-2.468-1.322-4.885-2.251-7.237c-1.916-4.477-3.703-8.491-5.481-13.161
				c-1.226-3.621-2.345-7.24-3.719-10.816c-0.986-2.876-2.469-5.535-3.717-8.298c-1.448-3.137-2.566-6.147-4.179-9.434
				c-0.04-0.079-0.079-0.158-0.119-0.237c2.033,1.617,4.411,3.654,6.638,5.342c2.984,2.238,5.442,3.856,8.128,6.246
				c1.71,1.398,3.156,3.066,4.65,4.683c0.576,0.628,1.183,1.228,1.782,1.834c0.091,0.663,0.177,1.32,0.255,1.965
				c0.389,3.553,0.658,7.121,0.758,10.695c0.035,1.193,0.061,2.386,0.066,3.58c0.005,1.173,0.375,15.247,0.383,25.91
				c0.005,6.432-0.31,12.861-0.284,19.293C256.287,318.974,256.123,325.141,255.984,331.308z M256.123,355.357
				c-0.005,0.526-0.016,1.052-0.036,1.578c-0.051,1.179-0.136,2.356-0.208,3.533c0.014-0.93,0.038-1.844,0.07-2.704
				C255.998,356.962,256.059,356.159,256.123,355.357z M248.051,180.648c-0.537-5.496-1.223-10.976-1.764-16.472
				c-1.129-10.625-3.396-21.079-5.49-31.544c-0.222-0.944-0.464-1.902-0.941-2.755c-0.407-0.671-0.965-1.234-1.474-1.826
				c-2.09-2.315-5.07-3.492-7.61-5.215c-3.714-2.434-7.216-5.622-10.094-9.456c-2.916-3.637-6.336-9.005-9.342-13.259
				c-1.574-2.199-3.297-4.287-4.863-6.491c-1.474-2.125-2.819-4.346-4.002-6.647c-2.974-5.54-3.49-12.163-4.305-18.416
				c-0.391-3.248-1.018-6.458-1.911-9.605c-0.837-3.1-1.723-6.19-2.338-9.343c-0.572-2.763-0.774-5.015-0.475-7.96
				c0.262-2.05,0.594-4.761,1.462-7.097c0.023-0.071,0.063-0.183,0.09-0.219c0.112-0.282,0.272-0.542,0.445-0.791
				c0.04-0.042,0.103-0.134,0.132-0.181c0.214-0.261,0.452-0.502,0.718-0.71c0.167-0.121,0.342-0.227,0.527-0.317
				c0.091-0.044,0.181-0.087,0.272-0.131c-0.254,0.119,0.093-0.052,0.202-0.078c0.134-0.046,0.268-0.093,0.407-0.125
				c0.154-0.019,0.308-0.027,0.463-0.016c1.492,0.217,2.064,0.861,3.266,1.838c0.582,0.367,1.136-0.214,1.215-0.782
				c0.092-0.37,0.155-0.747,0.202-1.126c0.028-0.222,0.052-0.445,0.07-0.668c0.012-0.148,0.021-0.295,0.032-0.443
				c0.006-0.09,0.015-0.179,0.025-0.268c0.014-0.1,0.033-0.199,0.064-0.294c0.452,0.108,0.606,0.254,1.186,0.493
				c0.804,0.351,1.622,0.668,2.443,0.979c2.569,0.999,4.917,1.91,7.14,2.882c2.065,0.873,4.136,1.766,5.944,3.114
				c1.588,1.101,3.38,2.882,4.529,4.434c1.638,2.115,3.361,5.542,4.146,7.542c0.491,1.169,0.962,2.362,1.7,3.402
				c1.915,2.768,4.535,4.904,7.026,7.127c2.568,2.24,5.092,4.527,7.525,6.913c1.67,1.584,3.353,3.165,4.854,4.913
				c2.252,2.748,4.501,6.593,6.26,10.154c2.086,4.502,3.789,9.809,5.247,14.958c1.502,4.754,2.19,8.981,1.978,13.918
				c-0.119,3.244-0.204,5.808-1.197,8.831c-1.413,4.228-5.159,7.529-9.219,9.901c-1.492,0.782-2.705,1.364-4.37,1.28
				c-3.198-0.336-5.993-2.118-7.753-4.967c-0.162-0.259-0.312-0.52-0.454-0.785c-0.588-1.574-1.172-3.149-1.748-4.727
				c-0.098-0.358-0.195-0.723-0.292-1.098c-0.718-2.888-1.282-5.813-1.999-8.701c-1.337-5.447-2.989-10.812-4.714-16.147
				c-1.379-4.301-2.656-8.638-4.311-12.844c-2.453-6.188-4.986-11.746-7.438-17.809c-1.473-3.753-3.581-7.199-5.605-10.671
				c-1.615-2.675-2.929-5.517-4.49-8.22c-0.154-0.254-0.35-0.534-0.675-0.457c-0.261,0.069-0.367,0.375-0.294,0.617
				c0.38,1.324,0.986,2.579,1.515,3.851c0.881,2.086,1.798,4.157,2.774,6.201c2.989,6.14,5.178,12.055,8.153,18.287
				c1.289,2.641,2.961,5.96,3.903,8.27c2.274,5.614,4.091,11.402,5.735,17.229c1.705,6.27,3.458,12.532,5.66,18.648
				c0.252,0.724,0.512,1.445,0.774,2.166c0.018,0.071,0.035,0.143,0.053,0.214c0.546,2.049,1.185,4.123,2.247,5.968
				c0.446,1.198,0.886,2.398,1.311,3.604c0.662,1.851,1.461,3.652,2.084,5.517c0.236,1.019,0.343,2.373,0.632,3.733
				c0.43,2.372,0.981,4.721,1.439,7.087c0.554,2.85,1.118,5.699,1.602,8.561c0.511,3.331,0.961,6.671,1.436,10.008
				c0.812,6.085,1.643,12.46,2.329,19.041c0.503,6.566,0.473,13.168,1.183,19.72c0.118,1.208,0.243,2.416,0.372,3.623
				c-0.396-0.237-0.774-0.473-1.138-0.705c-0.295-2.612-0.582-5.225-0.853-7.84C249.027,192.535,248.63,186.583,248.051,180.648z
				 M234.737,110.26c-1.287-4.217-2.423-8.48-3.637-12.72c0.088,0.274,0.175,0.548,0.264,0.822
				C232.583,102.3,233.742,106.259,234.737,110.26z M227.407,85.964c-0.677-1.876-1.396-3.737-2.181-5.571
				c-1.367-3.095-2.967-6.081-4.382-9.154c-2.619-5.743-4.768-11.25-7.616-17.055c-0.346-0.7-0.714-1.476-1.084-2.28
				c0.296,0.537,0.595,1.071,0.903,1.601c1.175,2.098,2.439,4.146,3.551,6.279c1.571,2.974,2.582,5.844,3.94,9.067
				c1.993,4.894,4.169,9.715,6.009,14.671C226.845,84.333,227.129,85.148,227.407,85.964z M225.373,202.007
				c1.411,0.421,2.189,0.582,3.295,1.379c0.195,0.151,0.391,0.301,0.569,0.472c0.517,0.517,0.776,0.853,1.001,1.183
				c0.613,1.036,0.835,1.786,1.248,3.081c0.698,2.098,1.143,4.269,1.751,6.391c0.317,0.9,1.114,1.374,1.78,0.494
				c0.476-0.928,0.454-2.02,0.449-3.038c-0.024-2.86-0.778-6.678-1.181-8.951c-0.007-0.037-0.009-0.075-0.009-0.112
				c0.002-0.006,0.004-0.011,0.006-0.017c0.046-0.027,0.1-0.056,0.14-0.077c0.735-0.21,0.888-0.177,1.741-0.237
				c4.021-0.056,7.616,0.689,10.971,2.973c0.776,0.481,1.53,0.999,2.291,1.505c1.078,9.363,2.062,18.736,3.226,28.088
				c0.574,4.65,1.417,9.438,2.091,13.948c-1.034-1.081-2.005-2.221-3.059-3.282c-3.102-3.018-6.678-5.476-10.179-7.997
				c-2.234-1.654-5.414-4.369-8.073-6.386c-0.244-0.184-0.493-0.362-0.739-0.544c-0.213-0.445-0.422-0.891-0.62-1.342
				c-0.499-1.072-0.944-2.183-1.646-3.142c-1.55-2.16-3.464-4.023-5.49-5.732c-0.528-0.466-1.057-0.932-1.59-1.393
				c-0.401-1.336-0.807-2.67-1.226-4.001c-0.98-3.558-1.932-7.125-3.047-10.644c-0.348-1.13-0.664-2.27-0.978-3.411
				C220.717,201.165,222.919,201.295,225.373,202.007z M231.015,229.643c-1.924-1.394-3.875-2.75-5.847-4.075
				c-0.432-1.551-0.872-3.099-1.326-4.644c0.746,0.627,1.493,1.286,2.25,2.002c1.58,1.497,2.84,2.901,3.873,4.538
				C230.429,228.305,230.719,228.961,231.015,229.643z M219.143,208.106c0.807,2.654,1.467,5.35,2.242,8.013
				c0.214,0.674,0.425,1.349,0.633,2.024c-0.284-0.235-0.571-0.466-0.86-0.694c-0.318-1.283-0.664-2.558-1.058-3.821
				c-1.036-3.582-2.445-7.035-3.722-10.532c-0.204-0.598-0.393-1.2-0.574-1.805c0.443-0.021,0.886-0.039,1.329-0.054
				c0.109,0.398,0.217,0.795,0.327,1.193C217.973,204.336,218.606,206.207,219.143,208.106z M207.118,147.36
				c1.076,0.618,1.651,1.802,2.162,2.884c0.311,0.578,0.465,1.429,0.986,2.206c0.321,0.466,0.957,0.331,1.163-0.158
				c0.346-0.927,0.372-1.944,0.696-2.881c0.11-0.287,0.183-0.602,0.328-0.874c1.439,1.551,2.638,3.325,4.026,4.926
				c2.936,3.332,5.693,6.815,8.538,10.224c3.029,3.657,5.874,6.778,8.099,11.032c2.186,3.949,2.211,7.652,0.468,12.09
				c-0.934,2.346-1.726,4.713-3.625,6.352c-2.014,1.42-5.17,2.846-7.835,2.922c-0.857,0.07-1.717,0.112-2.576,0.055
				c-0.801-0.073-1.72-0.287-1.948,0.733c-0.077,0.404-0.198,0.992-0.306,1.459c-0.268-0.934-0.551-1.864-0.861-2.784
				c-0.361-1.648-0.626-3.321-0.956-4.975c-0.601-3.216-1.397-6.39-2.547-9.457c-1.703-4.778-4.006-9.393-4.696-14.469
				c-0.437-2.558-0.644-4.537-0.727-7.178c-0.22-2.966-0.531-5.331-1.308-8.262c-0.342-1.392-0.857-2.718-1.441-4.017
				C205.589,146.992,206.581,147.074,207.118,147.36z M204.569,149.44c1.026,2.848,1.564,5.672,1.845,8.379
				c0.195,1.63,0.182,3.275,0.332,4.908c0.361,2.96,0.793,5.932,1.626,8.8c1.885,5.789,4.686,11.302,5.788,17.331
				c0.15,0.65,0.281,1.303,0.405,1.957c-0.589-1.317-1.217-2.616-1.823-3.925c-0.92-2.059-1.769-4.1-2.616-6.448
				c-2.089-5.967-3.243-12.198-4.764-18.322c-0.382-1.683-0.57-3.402-0.924-5.091c-0.587-2.824-1.212-5.938-1.01-8.335
				c0.07-0.474,0.112-0.585,0.425-0.973C204.11,148.277,204.346,148.826,204.569,149.44z M182.928,122.228
				c0.141,0.456,0.249,0.924,0.34,1.391c0.584,2.762,0.473,5.798,0.669,8.864c-0.249-0.407-0.335-0.823-0.517-1.385
				c-0.42-1.523-0.488-2.518-0.607-4.128C182.699,125.283,182.73,123.745,182.928,122.228z M213.755,194.453
				c-0.943-2.856-2.11-5.627-3.181-8.434c-0.824-2.193-1.472-4.445-2.115-6.696c-0.749-2.604-1.479-5.244-2.768-7.642
				c-0.784-1.514-1.815-2.878-2.832-4.241c-1.256-1.66-2.526-3.31-3.786-4.967c-1.418-1.859-2.725-3.799-4.098-5.69
				c-1.636-2.245-3.34-4.441-4.965-6.694c-1.821-2.53-3.721-5.007-5.414-7.626c-2.375-3.593-4.916-8.197-6.379-11.725
				c-1.19-2.805-2.083-5.726-2.855-8.671c-0.682-2.741-1.209-5.118-1.382-7.749c-0.007-0.964-0.178-1.72,0.193-2.258
				c0.034-0.026,0.069-0.053,0.103-0.079c0.102-0.042,0.206-0.08,0.313-0.11l0.073,0c0.039,0.008,0.077,0.018,0.114,0.031
				c0.568,0.162,1.433,0.896,2.079,1.539c1.603,1.596,2.873,3.345,4.12,5.221c0.431,0.677,0.892,1.342,1.286,2.043
				c-0.39,1.892-0.486,3.838-0.387,5.767c0.101,1.861,0.273,3.745,0.874,5.52c0.242,0.664,0.568,1.366,1.142,1.806
				c0.854,0.482,1.045-0.579,0.959-1.195c-0.287-3.272-0.106-6.596-0.908-9.807c-0.15-0.738-0.421-1.426-0.757-2.086
				c0.203-0.983,0.48-1.976,0.838-3.013c0.313-0.888,0.538-1.398,1.12-2.253c0.067-0.09,0.14-0.174,0.219-0.253
				c0.099-0.099,0.199-0.198,0.316-0.275c0.031-0.035,0.108-0.074,0.168-0.101c0.046-0.017,0.093-0.027,0.141-0.038
				c0.031,0.003,0.051,0.004,0.062,0.003c0.044,0.013,0.095,0.03,0.137,0.044c0.748,0.473,1.009,1.407,1.44,2.138
				c0.764,1.516,1.205,2.501,1.744,3.942c1.072,2.928,2.498,5.72,4.11,8.387c1.321,2.15,2.825,4.18,4.16,6.321
				c2.017,3.142,3.549,6.547,5.146,9.912c0.238,0.491,0.456,0.929,0.661,1.348c-0.041,0.036-0.083,0.072-0.12,0.111
				c-0.597,0.555-0.821,1.352-0.831,2.147c-0.074,0.905,0.017,1.813,0.095,2.715c0.205,2.185,0.74,4.319,1.123,6.476
				c0.453,3.205,1.264,6.334,2.019,9.478c1.027,4.505,2.078,9.016,3.655,13.367c0.817,2.199,1.717,4.368,2.686,6.504
				c1.114,2.342,1.997,4.172,2.881,6.498c0.182,0.474,0.351,0.952,0.515,1.432c0.091,0.421,0.187,0.841,0.293,1.258
				c0.191,0.694,0.379,1.388,0.608,2.07c0.096,0.249,0.183,0.535,0.339,0.756c0.048,0.174,0.095,0.348,0.143,0.522
				c-0.094,0.004-0.187,0.008-0.281,0.013c-0.355,0.017-0.71,0.039-1.065,0.059C214.944,198.327,214.429,196.366,213.755,194.453z
				 M201.269,200.359c-0.43-1.521-0.607-1.734,0.282-1.83c-0.046,0.006-0.092,0.012-0.138,0.018
				c0.065-0.004,0.129-0.003,0.193,0.003c0.045,0.002,0.09,0.008,0.135,0.014c0.037,0.006,0.074,0.012,0.111,0.018
				c0.158,0.024,0.313,0.06,0.468,0.1c0.084,0.026,0.169,0.052,0.253,0.078c0.073,0.019,0.187,0.063,0.211,0.072
				c0.042,0.018,0.084,0.035,0.125,0.055c0.91,0.432,1.753,0.989,2.563,1.585c0.801,0.634,1.797,0.938,2.798,1.071
				c0.856,0.184,2.718,0.105,4.028-0.038c0.825-0.062,1.65-0.116,2.475-0.162c0.219,0.728,0.45,1.452,0.704,2.168
				c1.064,2.876,2.238,5.714,3.132,8.65c0.462,1.417,0.871,2.849,1.245,4.29c-1.504-1.144-2.844-2.223-4.456-3.628
				c-1.18-1.042-2.336-2.116-3.641-3.003c-2.486-1.654-5.359-2.651-7.797-4.391c-0.192-0.129-0.376-0.256-0.556-0.382
				C202.503,203.442,201.733,201.829,201.269,200.359z M209.183,217.167c-2.357-1.013-4.774-1.883-7.247-2.565
				c-5.368-1.555-10.966-2.053-16.532-2.233c-2.057-0.107-4.117-0.205-6.177-0.152c-3.175,0.155-6.348,0.368-9.522,0.55
				c-2.24,0.137-4.481,0.285-6.725,0.293c-2.25-0.011-4.495-0.191-6.741-0.319c-3.375-0.162-6.733-0.902-10.12-0.629
				c-1.662,0.138-3.283,0.539-4.898,0.936c-2.219,0.499-3.837,0.781-6.035,0.9c-3.025,0.171-6.052,0.312-9.082,0.335
				c-1.725,0.041-3.85,0.118-5.148-0.122c-1.144-0.16-1.831-0.445-2.157-1.175c-0.01-0.097-0.006-0.194,0.007-0.291
				c0.015-0.14,0.049-0.276,0.11-0.405c-0.07,0.226,0.022-0.039,0.104-0.115c1.461-1.043,5.339-2.233,8.11-2.962
				c2.078-0.541,4.325-0.769,6.2-1.882c1.316-0.794,1.934-2.327,3.233-3.141c1.386-0.906,2.937-1.524,4.439-2.209
				c1.92-0.84,3.252-1.462,5.208-2.181c2.126-0.802,4.314-1.423,6.535-1.899c3.178-0.711,5.698-1.098,8.934-1.254
				c4.051-0.247,8.111,0.092,12.145,0.457c4.514,0.452,9.704,1.532,14.611,2.39c3.713,0.622,6.997,1.411,10.046,3.262
				c1.37,0.853,2.643,1.85,3.948,2.797c0.455,0.814,0.933,1.615,1.407,2.411c1.592,2.497,3.197,5.013,5.292,7.126
				c1.63,1.78,3.505,3.302,5.443,4.732C212.852,218.784,211.03,217.942,209.183,217.167z M208.039,212.085
				c-1.037-1.408-2.283-3.174-3.448-5.04c0.923,0.577,1.876,1.105,2.847,1.599c1.504,0.779,3.049,1.504,4.393,2.55
				c1.408,1.077,3.752,3.345,5.579,4.729c0.977,0.756,1.924,1.467,2.854,2.174c0.393,1.646,0.741,3.303,1.063,4.965
				c-2.042-1.31-4.038-2.689-5.989-4.133C212.851,217.151,210.237,214.769,208.039,212.085z M219.724,223.41
				c0.629,0.412,1.262,0.819,1.9,1.218c0.024,0.131,0.049,0.261,0.073,0.392C221.048,224.473,220.39,223.936,219.724,223.41z
				 M222.534,223.826c-0.305-1.586-0.626-3.17-0.985-4.745c0.332,0.257,0.663,0.517,0.993,0.78c0.489,1.626,0.958,3.257,1.405,4.895
				c-0.385-0.256-0.769-0.514-1.155-0.768C222.704,223.935,222.62,223.879,222.534,223.826z M222.835,225.414
				c0.534,0.351,1.067,0.704,1.598,1.06c0.116,0.409,0.23,0.819,0.341,1.229c-0.054-0.052-0.107-0.105-0.162-0.156
				c-0.547-0.483-1.096-0.965-1.648-1.443C222.922,225.874,222.878,225.644,222.835,225.414z M246.543,384.785
				c-1.253,2.338-6.612,2.309-10.099,2.102c-2.821-0.2-6.575-0.713-8.442-0.95c-2.796-0.435-6.004-0.782-8.091-2.01
				c-1.659-0.797,0.259-2.153,2.598-2.982c4.492-1.483,8.473-1.829,12.898-2.366c3.932-0.442,7.876-0.82,11.826-1.1
				c0.004,0.078,0.01,0.155,0.014,0.233C247.313,380.291,247.444,383.015,246.543,384.785z M288.098,262.917
				c2.117-1.033,4.253-1.696,6.647-2.722c3.752-1.576,7.389-3.406,11.04-5.199c4.091-2.051,7.78-3.607,12.193-5.064
				c1.959-0.645,3.934-1.266,5.956-1.682c1.659-0.378,4.678-0.566,5.78-0.444c-0.589,1.045-1.433,1.929-2.077,2.941
				c-0.185,0.277-0.365,0.558-0.53,0.847c-0.09,0.18-0.212,0.389-0.152,0.597c0.06,0.25,0.343,0.384,0.582,0.316
				c0.315-0.118,0.497-0.437,0.729-0.664c0.441-0.5,0.898-0.986,1.387-1.438c1.11-0.993,2.552-1.569,4.386-1.837
				c3.628-0.259,8.846,0.697,12.99,0.86c1.669,0.096,4.073,0.185,4.605,0.577c0.009,0.01,0.017,0.02,0.025,0.031l0.004,0.01
				c0.001,0.005,0.003,0.01,0.004,0.016c-0.283,0.331-0.518,0.53-1.09,0.914c-1.844,1.154-3.948,1.695-6.103,2.807
				c-4.145,1.939-8.16,4.156-11.934,6.749c-5.696,3.844-10.407,8.735-15.873,12.307c-2.276,1.569-4.596,3.084-7.071,4.324
				c-2.346,1.227-4.686,2.469-7.1,3.559c-1.647,0.758-3.316,1.464-4.967,2.213c-1.082,0.518-2.214,0.97-3.19,1.678
				c-1.688,1.171-2.962,2.802-4.449,4.199c-1.026,0.985-2.13,1.893-3.086,2.949c-0.849,0.947-1.549,2.02-2.168,3.128
				c-0.932,1.687-1.325,3.6-1.768,5.458c-0.747,3.118-1.107,6.315-1.187,9.518c-0.062,2.449,0.237,4.886,0.399,7.325
				c0.155,2.294,0.153,4.595,0.164,6.893c-0.015,5.239,0.263,10.475,0.221,15.713c-0.042,1.91-0.283,3.807-0.442,5.708
				c-0.219,2.848-0.502,5.69-0.888,8.52c-0.772,5.112-2.072,11.694-3.374,17.247c-0.396,1.753-1.181,5.3-1.182,5.306
				c-4.055-0.33-10.039-0.271-14.171-0.373c-3.636-0.061-7.272-0.056-10.909-0.031c-2.561-0.08-3.18-0.106-3.291-0.098
				c-0.051-0.676-0.101-1.352-0.132-1.863c-0.278-3.695-0.802-7.363-1.33-11.029c-0.319-2.214-1.147-8.06-4.262-19.824
				c-1.507-5.692-3.133-11.358-4.174-17.16c-0.676-3.513-1.432-7.016-2.55-10.418c-0.939-2.852-2.153-5.602-3.392-8.334
				c-1.124-2.407-2.194-4.846-3.538-7.141c-1.852-3.039-4.018-5.89-6.424-8.512c-3.046-3.234-6.534-6.105-10.454-8.215
				c-5.328-2.702-11.817-4.324-16.835-6.572c-4.534-1.928-8.907-4.214-13.173-6.676c-2.278-1.318-4.476-2.771-6.783-4.04
				c-3.101-1.737-6.327-3.24-9.544-4.749c-3.37-1.565-5.746-2.298-9.019-4.172c-1.289-0.771-2.619-1.694-3.174-2.426
				c-0.033-0.052-0.066-0.104-0.099-0.156c0.016,0.038,0.032,0.076,0.048,0.113c-0.044-0.089-0.077-0.181-0.097-0.277
				c-0.006-0.039-0.026-0.136-0.041-0.201c-0.008-0.095-0.008-0.19-0.002-0.285c0.092-0.37,0.044-0.413,0.226-0.683
				c0.047-0.053,0.124-0.14,0.167-0.169c0.065-0.062,0.134-0.118,0.203-0.174c0.082-0.062,0.166-0.12,0.255-0.169
				c0.092-0.058,0.189-0.106,0.288-0.151c2.305-0.833,5.467-0.77,7.674-0.47c1.559,0.275,3.078,0.756,4.567,1.289
				c1.177,0.466,1.924,0.586,2.94,1.379c0.737,1.037,1.292,2.203,1.97,3.283c0.306,0.449,0.534,1.06,1.054,1.3
				c1.276,0.031,0.848-1.944,0.669-2.733c-0.191-0.744-0.364-1.486-0.502-2c3.469,1.877,7.801,2.883,10.96,4.383
				c1.793,0.801,3.512,1.757,5.265,2.639c2.392,1.155,4.761,2.356,7.122,3.574c3.071,1.587,6.249,2.946,9.386,4.392
				c4.127,1.895,7.902,4.056,11.073,6.915c2.003,1.715,3.659,3.78,5.545,5.615c1.476,1.462,3.145,2.705,4.687,4.093
				c1.444,1.319,2.589,2.62,3.562,3.995c0.656,0.993,1.388,1.896,1.379,2.608c-0.033,0.034-0.077,0.078-0.118,0.111
				c-0.003,0.001-0.006,0.002-0.011,0.004c0.053-0.043,0.038-0.032-0.044,0.014c-0.095,0.031-0.274,0.086-0.337,0.077
				c0.331-0.039-0.349,0.019-0.462-0.014c-0.408-0.026-0.813-0.1-1.223-0.102c-0.738,0.009-1.566,0.525-1.627,1.313
				c0.05,1.34,0.841,2.553,1.406,3.737c1.222,2.356,2.612,4.62,3.848,6.968c2.108,4.055,3.733,7.673,5.28,11.847
				c1.052,2.695,1.829,5.484,2.515,8.292c0.787,2.939,1.487,5.9,2.089,8.882c0.41,2.065,0.791,4.136,1.089,6.221
				c0.221,1.488,0.422,3.59,0.822,5.435c0.232,1.118,0.492,2.23,0.759,3.34c0.031,0.217,0.062,0.434,0.094,0.651
				c0.37,2.589,0.727,5.635,1.25,8.939c0.825,5.222,1.204,14.263,2.423,15.492c0.464,0.468,1.227,0.138,1.481-0.394
				c0.331-0.695-0.486-5.247-0.554-5.758c-0.704-4.91-1.63-9.781-2.679-14.628c-0.235-1.066-0.493-2.128-0.752-3.189
				c-0.399-2.91-0.843-5.997-1.315-8.862c-0.539-3.21-1.22-6.396-1.637-9.626c-0.667-4.511-1.159-8.295-1.754-12.731
				c-0.913-5.861-1.784-11.73-2.85-17.566c-1.022-5.67-2.004-11.348-2.852-17.047c-0.474-3.737-1.034-9.083-2.056-13.263
				c-0.895-4.02-2.078-7.966-3.182-11.931c-1.114-4.131-2.202-8.268-3.452-12.36c-0.861-2.899-1.746-5.79-2.587-8.694
				c-0.162-0.561-1.462-7.358-2.045-10.595c0.701,0.642,1.376,1.309,2.031,1.996c0.193,0.775,0.375,1.553,0.538,2.336
				c0.888,3.769,1.755,7.544,2.702,11.299c0.784,2.726,1.62,5.436,2.325,8.184c0.779,2.773,1.486,5.567,2.347,8.317
				c0.048,0.158,0.098,0.315,0.147,0.472c-0.026,0.077-0.032,0.161-0.004,0.25c0.121,0.271,0.232,0.545,0.336,0.821
				c0.082,0.262,0.161,0.524,0.244,0.785c0.015,0.056,0.045,0.108,0.08,0.156c0.464,1.466,0.759,2.983,1.044,4.497
				c0.525,2.868,0.922,5.902,1.434,9.085c1.046,5.899,2.051,11.805,2.863,17.741c0.718,4.644,1.091,8.97,2.034,13.942
				c0.671,3.662,1.6,7.272,2.24,10.94c0.837,4.969,1.924,9.889,2.822,14.845c0.474,2.797,0.812,5.614,1.241,8.418
				c0.425,2.626,0.932,5.238,1.394,7.858c0.631,3.373,1.215,6.755,1.713,10.15c0.287,2.384,0.745,5.094,1.324,7.781
				c-0.177,3.971,0.035,8.068,1.887,7.845c0.299-0.081,0.48-0.349,0.566-0.633c0.199-0.773-0.132-1.565-0.263-2.326
				c-0.29-1.286-0.582-2.572-0.889-3.854c-0.08-0.34-0.154-0.674-0.227-1.007c0.018-0.288,0.037-0.571,0.057-0.844
				c0.22-3.101,0.516-6.196,0.769-9.295c0.322-3.69,0.332-7.399,0.102-11.095c-0.322-5.626-0.686-11.252-0.793-16.887
				c-0.207-10.929,1.523-33.263-2.439-47.148c-1.598-5.6-3.511-11.108-5.696-16.505c-2.261-5.436-4.485-10.103-6.379-15.68
				c-1.171-3.528-2.494-7.023-4.438-10.208c-1.47-2.518-3.225-4.855-5.051-7.124c-1.033-1.238-2.07-2.481-3.174-3.658
				c-0.147-0.593-0.305-1.184-0.473-1.771c2.16,1.468,4.29,2.978,6.377,4.547c1.189,2.44,2.383,4.878,3.444,7.378
				c0.509,1.246,1.666,3.865,2.577,5.804c1.292,2.592,2.283,4.673,3.177,7.291c1.271,3.306,2.279,6.702,3.432,10.048
				c1.654,4.341,3.796,9.27,5.451,13.104c0.91,2.314,1.676,4.684,2.236,7.107c0.476,2.185,0.814,4.398,1.193,6.601
				c1.362,8.809,1.659,18.882,1.556,28.239c-0.022,3.482-0.302,6.956-0.283,10.439c0.051,3.733,0.407,7.454,0.636,11.178
				c0.074,1.484,0.17,2.967,0.267,4.45c-0.068,1.823-0.146,3.645-0.235,5.467c-0.112,2.396-0.419,4.777-0.553,7.171
				c-0.193,2.577-0.16,5.162-0.088,7.743c0.033,1.085,0.052,2.17,0.138,3.252c0.103,0.621,0.001,1.375,0.531,1.805
				c1.312,0.672,1.192-1.943,1.235-2.629c0.02-1.284,0.042-2.568,0.085-3.851c0.156-3.363,0.44-6.72,0.328-10.09
				c-0.003-2.713-0.177-5.42-0.351-8.126c0.219-5.864,0.219-11.732,0.377-17.598c0.238-6.885,0.105-13.774,0.253-20.66
				c0.204-8.082,0.341-16.169,0.145-24.252c-0.056-3.892-0.105-20.224-1.114-28.87c0.13,0.147,0.257,0.296,0.382,0.447
				c0.044,0.362,0.086,0.725,0.131,1.087c0.416,3.533,0.779,6.39,1.248,9.927c0.752,5.074,1.476,9.531,1.731,14.733
				c0.392,7.956-0.706,15.875-0.961,23.816c-0.14,4.163-0.096,8.329-0.121,12.493c-0.057,3.773-0.171,7.545-0.169,11.319
				c-0.026,6.433,0.226,12.863,0.178,19.297c-0.01,2.898,0.173,5.795,0.139,8.693c-0.049,3.626-0.318,7.243-0.512,10.862
				c-0.052,0.795-0.963,10.249,0.913,8.145c0.465-0.521,0.629-1.219,0.78-1.882c0.681-2.121,1.143-10.306,1.346-15.291
				c0.176-4.321,0.439-8.638,0.762-12.951c0.368-4.999,0.79-9.994,1.372-14.973c0.386-3.559,0.902-6.698,1.297-10.459
				c0.649-6.301,0.94-12.632,1.238-18.957c0.215-5.329,0.459-10.699-0.27-16.001c-0.452-3.121-1.31-6.161-1.994-9.235
				c-0.555-2.489-1.491-15.892-6.149-21.581c-0.023-0.028-0.047-0.055-0.07-0.083c-0.054-0.457-0.108-0.914-0.162-1.374
				c-0.558-4.287-0.946-8.593-1.447-12.887c-0.501-4.462-1.125-8.517-1.626-12.699c-0.391-3.001-0.544-6.023-0.845-9.032
				c-0.247-2.391-0.513-4.779-0.773-7.169c1.577,0.797,3.197,1.508,4.731,2.387c3.258,1.888,6.904,4.629,9.467,6.626
				c3.095,2.625,4.371,5.813,5.146,9.975c0.155,0.839,0.289,1.793,0.384,2.79c-0.314,0.242-0.615,0.499-0.892,0.779
				c-0.579,0.591-0.252,1.227,0.516,1.336c0.17-0.007,0.339-0.019,0.509-0.029c0.051,1.607-0.026,3.195-0.308,4.478
				c-0.268,0.965-0.447,1.679-0.743,2.25c-0.702,1.372-1.916,2.85-2.304,3.359c-1.278,1.507-2.905,2.674-4.238,4.132
				c-2.485,2.731-3.138,6.579-3.136,10.157c0.103,3.259,0.953,6.431,1.575,9.616c0.523,2.426,1.01,4.86,1.571,7.278
				c0.78,3.336,1.64,6.656,2.238,10.031c0.735,4.014,1.196,7.599,0.86,11.867c-0.312,3.786-0.441,7.59-0.901,11.363
				c-0.149,1.221-2.932,30.777-4.627,42.821c-0.752,5.105-1.028,10.265-1.113,15.421c-0.033,2.038-0.268,7.545,0.522,9.14
				c0.879,1.775,2.529,1.181,3.231-0.412c2.232-4.153,2.275-13.891,3.125-24.114c0.645-7.761,1.5-15.517,1.618-23.311
				c0.202-7.007-0.668-14-0.295-21.004c0.126-4.861,0.538-9.705,1.093-14.535c0.501-4.686,1.067-9.54,1.662-13.854
				c0.777-5.635,3.822-24.432,4.297-28.835c0.483-4.476,0.692-8.976,1.089-13.46c0.081-0.954,0.159-1.908,0.237-2.862
				c0.372-0.022,0.745-0.037,1.118-0.043c-0.272,2.561-0.555,5.122-0.785,7.687c-0.598,6.522-0.98,13.063-1.644,19.579
				c-0.441,3.996-1.223,8.46-1.854,12.837c-0.951,6.725-1.862,13.279-2.954,20.25c-0.555,4.032-1.171,7.938-1.484,12.279
				c-0.253,5.341-0.078,10.69,0.007,16.033c0.022,9.459,0.21,18.927-0.247,28.379c-0.18,5.076-0.796,9.821-1.435,14.57
				c-0.284,2.587-0.886,7.847-0.304,9.725c0.19,0.641,0.901,1.161,1.551,0.814c0.572-0.342,0.901-0.976,1.133-1.575
				c1.173-3.019,1.918-8.94,2.154-10.945c0.942-8.738,1.689-17.503,2.155-26.28c0.27-5.309,0.11-10.631,0.504-15.936
				c0.26-3.923,0.893-7.808,1.284-11.718c0.285-2.435,0.339-4.886,0.456-7.332c0.221-4.135,0.839-7.924,1.407-11.91
				c-0.199,1.894-0.355,3.794-0.491,5.695c-0.328,3.399-0.698,6.794-0.814,10.21c-0.122,4.485-0.347,8.964-0.776,13.432
				c-0.293,3.978-0.444,7.965-0.617,11.95c-0.151,3.653-0.307,7.307-0.303,10.964c-0.015,4.179,0.048,8.36-0.254,12.531
				c-0.153,2.683-0.623,6.128-0.884,8.19c-0.377,2.737-1.814,11.145-1.565,12.562c0.094,0.537,0.62,1.07,1.191,0.851
				c0.922-0.353,2.074-3.201,2.62-5.29c0.89-3.41,1.39-6.903,1.897-10.387c0.869-5.723,1.105-11.514,1.196-17.295
				c0.097-3.697,0.211-7.396,0.444-11.088c0.194-3.142,0.494-6.278,0.523-9.428c0.038-1.881-0.174-3.752-0.291-5.627
				c-0.123-1.913-0.116-3.832-0.089-5.748c0.048-4.302,0.631-7.826,1.301-11.931c0.213-1.213,0.373-2.436,0.628-3.641
				c0.229-0.712,0.508-1.409,0.535-2.167c0.053-0.893-0.079-1.786-0.135-2.676c-0.076-1.113-0.276-2.237-0.84-3.215
				c-0.531-0.858-1.124-1.679-1.63-2.552c0.085-0.516,0.177-1.036,0.279-1.562c0.308-1.852,0.741-3.68,1.041-5.533
				c0.494-2.719,0.882-5.454,1.359-8.175c0.242-1.226,0.502-2.447,0.771-3.667C285.475,264.384,286.604,263.667,288.098,262.917z
				 M249.466,368.449c0.124,0.862,0.65,2.67,0.567,4.527c-0.196-0.569-0.314-1.3-0.37-1.932
				C249.662,371.043,249.548,369.321,249.466,368.449z M252.349,331.187c0.386,5.124,0.493,10.263,0.748,15.395
				c0.298,4.703-0.014,9.404-0.474,14.086c-0.024,0.495-0.123,1.467-0.233,2.684c-0.371-2.288-0.664-4.535-1.052-6.977
				c-0.775-4.752-1.701-9.477-2.521-14.221c-0.452-2.727-0.758-5.476-1.209-8.203c-0.474-3.119-1.185-6.195-1.783-9.291
				c-0.583-3.058-1.081-6.132-1.697-9.183c-0.764-3.669-1.621-7.319-2.207-11.022c-0.681-4.522-1.191-9.098-1.978-14.14
				c-0.731-5.684-1.902-11.296-2.794-16.955c-0.614-3.651-1.106-7.338-2.113-10.908c-0.066-0.213-0.138-0.424-0.213-0.635
				c-0.051-0.335-0.233-0.664-0.302-0.993c-0.417-1.352-0.832-2.705-1.22-4.065c-1.244-4.52-2.432-9.055-3.788-13.543
				c-0.886-3.443-1.661-6.914-2.505-10.368c-0.14-0.596-0.275-1.194-0.411-1.791c0.578,0.656,1.142,1.326,1.694,2.01
				c2.098,2.566,4.15,5.376,5.873,8.56c2.581,4.574,3.724,9.847,5.908,14.93c1.452,3.592,2.952,6.818,4.274,10.141
				c1.999,5.052,3.771,10.194,5.306,15.406c1.245,4.195,1.939,7.882,2.207,12.086C252.447,303.402,251.797,323.864,252.349,331.187z
				 M253.196,372.24c0.077,0.338,0.154,0.676,0.231,1.014c0.051,0.264,0.098,0.464,0.13,0.628
				C253.386,373.422,253.27,372.863,253.196,372.24z M259.989,346.675c0.048-6.977-0.223-13.951-0.179-20.928
				c0.004-3.72,0.139-7.438,0.17-11.157c-0.001-5.052-0.037-10.108,0.236-15.154c0.44-7.209,1.183-14.43,0.699-21.658
				c-0.345-4.661-1.042-9.288-1.739-13.907c-0.376-2.846-0.747-5.85-1.119-8.949c0.562,0.827,1.881,2.961,2.404,5.463
				c0.449,2.146,0.83,4.306,1.149,6.475c0.367,2.466,0.753,4.932,1.342,7.357c0.85,3.714,1.909,7.444,2.188,10.877
				c0.613,7.061-0.03,14.155-0.318,21.217c-0.263,4.083-0.502,8.171-0.969,12.238c-0.574,4.83-1.306,9.594-1.79,14.734
				c-0.607,6.525-1.11,13.062-1.444,19.607c-0.224,4.305-0.315,8.618-0.707,12.913c-0.555,6.08-0.756,4.588-0.694,3.324
				c0.178-3.608,0.664-7.947,0.829-11.556C260.235,353.938,260.028,350.307,259.989,346.675z M291.557,240.152
				c-2.902,5.525-4.966,11.452-6.539,17.48c-0.534,2.369-1.092,4.734-1.618,7.106c-0.243,0.204-0.482,0.413-0.717,0.627
				c0.252-1.226,0.506-2.452,0.752-3.679c1.306-6.08,2.775-12.959,5.178-18.13c0.747-1.643,1.642-3.211,2.502-4.796
				c1.161-2.142,3.677-6.831,4.073-7.475c1.196-1.944,0.973-2.252,0.324-2.111c-2.374,0.801-4.775,1.589-7.258,1.967
				c-1.982,0.252-5.077,0.261-7.737,0.303c0.083-0.804,0.164-1.608,0.237-2.413c0.039-0.399,0.076-0.798,0.113-1.196
				c0.257-0.087,0.52-0.174,0.802-0.263c2.557-0.754,4.678-1.059,7.398-0.725c0.901,0.124,3.172,0.793,4.59,0.91
				c1.182,0.114,2.368,0.224,3.556,0.263C296.894,230.272,293.153,237.088,291.557,240.152z M370.829,213.825
				c-0.577,1.232-1.608,2.931-2.732,4.103c-1.554,1.62-3.016,2.615-4.99,3.875c-2.733,1.704-5.05,2.814-8.194,3.478
				c-5.13,1.083-9.07-0.339-14.464-1.367c-3.077-0.45-6.17-0.892-9.284-0.943c-3.779-0.045-7.537,0.411-11.276,0.915
				c-2.079,0.271-4.172,0.423-6.251,0.696c-4.937,0.779-9.544,2.09-14.26,2.403c-0.237,0.016-0.479,0.026-0.725,0.032
				c0.336-1.211,0.706-2.351,1.181-3.247c1.164-2.447,3.602-3.66,6.432-4.904c2.865-1.274,6.815-2.505,10.23-3.636
				c7.237-2.383,13.75-6.443,20.654-9.595c2.948-1.375,6.329-2.542,9.806-3.468c3.456-0.923,6.431-1.576,9.884-1.627
				c3.783-0.11,7.289,0.332,10.442,2.14C371.663,205.187,372.896,208.966,370.829,213.825z"/>
		</g>
	</g>
</g>
</svg>
