<?xml version="1.0" encoding="utf-8"?>
<!-- Generator: Adobe Illustrator 27.5.0, SVG Export Plug-In . SVG Version: 6.00 Build 0)  -->
<svg version="1.1" id="Layer_1" xmlns="http://www.w3.org/2000/svg" xmlns:xlink="http://www.w3.org/1999/xlink" x="0px" y="0px"
	 viewBox="0 0 450 344.667" style="enable-background:new 0 0 450 344.667;" xml:space="preserve">
<g>
	<g>
		<g>
			<path style="fill:#C6A597;" d="M201.515,187.528v1.489c0,0,0,0.254,0,0.386c0,5.421,8.264,9.817,18.458,9.817
				c10.195,0,18.46-4.396,18.46-9.817c0-0.133,0-0.386,0-0.386v-1.489H201.515z"/>
			<path style="fill:#F4D4C3;" d="M219.973,177.368c-10.194,0-18.458,4.396-18.458,9.819c0,5.423,8.264,9.819,18.458,9.819
				c10.195,0,18.459-4.396,18.459-9.819C238.433,181.765,230.168,177.368,219.973,177.368z"/>
		</g>
		<g>
			<path style="fill:#2B1822;" d="M213.657,165.191v20.862c0,0,0,0.087,0,0.132c0,1.855,2.828,3.359,6.316,3.359
				c3.489,0,6.317-1.504,6.317-3.359c0-0.045,0-0.132,0-0.132v-20.862H213.657z"/>
		</g>
		<g>
			<path style="fill:#C6A597;" d="M184.848,147.501v4.935c0,0,0,0.483,0,0.735c0,10.317,15.726,18.682,35.125,18.682
				c19.401,0,35.128-8.365,35.128-18.682c0-0.252,0-0.735,0-0.735v-4.935H184.848z"/>
			<path style="fill:#F4D4C3;" d="M184.848,145.998v2.833c0,0,0,0.483,0,0.735c0,10.317,15.726,18.682,35.125,18.682
				c19.401,0,35.128-8.365,35.128-18.682c0-0.252,0-0.735,0-0.735v-2.833H184.848z"/>
			<path style="fill:#FFE8DE;" d="M219.973,126.665c-19.399,0-35.125,8.366-35.125,18.685c0,10.32,15.726,18.685,35.125,18.685
				c19.4,0,35.127-8.365,35.127-18.685C255.1,135.031,239.373,126.665,219.973,126.665z"/>
		</g>
	</g>
	<g>
		<g>
			<polygon style="fill:#3A2832;" points="132.121,245.952 136.811,243.245 136.811,209.804 132.121,212.512 			"/>
			<polygon style="fill:#2B1822;" points="132.121,245.952 129.776,244.598 127.431,209.804 132.121,212.512 			"/>
		</g>
		<g>
			<polygon style="fill:#3A2832;" points="85.831,219.063 90.521,216.355 95.212,186.732 90.521,189.44 			"/>
			<polygon style="fill:#2B1822;" points="85.831,219.063 83.796,217.815 85.831,186.732 90.521,189.44 			"/>
		</g>
		<g>
			<polygon style="fill:#3A2832;" points="182.791,216.342 187.482,213.635 187.482,180.194 182.791,182.902 			"/>
			<polygon style="fill:#2B1822;" points="182.791,216.342 180.446,214.988 178.101,180.194 182.791,182.902 			"/>
		</g>
		<g>
			<polygon style="fill:#3A2832;" points="136.501,189.453 141.192,186.745 145.882,157.122 141.192,159.83 			"/>
			<polygon style="fill:#2B1822;" points="136.501,189.453 134.466,188.205 136.501,157.122 141.192,159.83 			"/>
		</g>
		<g>
			<path style="fill:#7E97E0;" d="M141.011,130.807l5.925-3.447c0.332-0.301,0.809-0.342,1.345-0.032l39.814,22.986
				c1.002,0.579,1.815,2.131,1.815,3.467v33.924c0,0.818-0.306,1.36-0.772,1.53l0.017,0.06l-6.034,3.484l-3.467-5.225l0.447-3.093
				l-31.818-18.37c-1.002-0.579-1.815-2.131-1.815-3.467v-26.258l-4.483-1.495L141.011,130.807z"/>
			<path style="fill:#677DCE;" d="M142.321,169.574l39.814,22.987c1.002,0.578,1.815-0.036,1.815-1.372v-33.924
				c0-1.336-0.813-2.889-1.815-3.467l-39.814-22.986c-1.002-0.579-1.814,0.036-1.814,1.372v33.924
				C140.507,167.443,141.319,168.996,142.321,169.574z"/>
		</g>
		<g>
			<g>
				<path style="fill:#7E97E0;" d="M86.774,178.541l42.788-24.881c1.061-1.011,2.617-1.147,4.349-0.148l41.527,23.976
					l-54.366,31.388L86.774,178.541z"/>
				<path style="fill:#8EAAEF;" d="M121.072,208.876l54.366-31.388l2.737,1.58c2.862,1.652,5.236,5.843,5.682,9.755l-51.705,29.852
					L121.072,208.876z"/>
				<path style="fill:#7E97E0;" d="M183.95,194.144c0,2.393-0.83,4.06-2.126,4.727l-43.531,25.236l-6.143-5.433l51.705-29.852
					c0.049,0.43,0.094,0.86,0.094,1.279V194.144z"/>
			</g>
			<path style="fill:#677DCE;" d="M90.973,197.969l44.264,25.555c3.176,1.834,5.775-0.131,5.775-4.366v-4.042
				c0-4.235-2.599-9.2-5.775-11.034l-44.264-25.556c-3.176-1.834-5.775,0.131-5.775,4.366v4.042
				C85.198,191.17,87.797,196.136,90.973,197.969z"/>
		</g>
		<g>
			<path style="fill:#8EAAEF;" d="M130.434,102.706c0,0,4.257,2.458,6.603,3.812c3.597,2.077,7.538,11.939,7.538,22.209
				c0,10.27,0,30.134,0,30.134l-43.66,24.846l-14.14-56.155L130.434,102.706z"/>
			<path style="fill:#677DCE;" d="M93.377,131.364c3.597,2.077,7.538,11.939,7.538,22.209c0,10.27,0,30.134,0,30.134l-14.141-8.164
				v-47.991C86.774,127.552,91.032,130.01,93.377,131.364z"/>
		</g>
		<g>
			<path style="fill:#FFC9B6;" d="M149.054,126.143c0,0,4.529,3.912,7.328,9.682c1.653,3.406,5.296,8.206,7.597,11.24
				c1.256-1.343,7.387-7.879,10.239-11.233c2.625-3.089,4.385-2.57,6.913-3.089c2.625-0.539,2.399-2.891,5.085-3.033
				c2.686-0.141,2.232,1.158,0,4.112c-1.381,1.827-3.281,3.467-4.476,3.793c-2.531,0.691-4.984,0.54-5.712,2.843
				c-0.453,1.433-4.874,11.328-7.105,12.854c-2.947,2.017-3.074,2.676-5.335,2.541c-1.595-0.095-2.955-1.744-3.639-2.541
				c-2.151-2.468-4.799-4.96-6.731-7.723c-2.64-3.774-8.102-13.829-8.31-14.197C144.699,131.026,149.054,126.143,149.054,126.143z"
				/>
			<path style="fill:#FFE8DE;" d="M148.542,125.293c0,0,2.754,0.654,5.304,3.538c2.55,2.884,7.535,11.665,7.535,11.665
				s-2.328,3.566-3.451,4.322c-1.123,0.757-3.975,2.412-3.975,2.412l-9.675-14.5L148.542,125.293z"/>
			<path style="fill:#2B1822;" d="M173.069,219.471c1.343,1.481,2.85,3.141,4.23,4.599c1.865,1.97,4.062,4.059,6.082,5.863
				c2.474,2.21,2.663,4.882-1.394,4.656c-6.56-0.367-8.094-3.118-11.126-5.444c-0.423-0.324-1.125,0.455-2.786-0.214
				c-2.107-0.849-2.363-1.185-2.363-3.278c0-1.334,0.22-4.079,0.826-5.464c-0.021-0.023-0.042-0.043-0.063-0.066
				C166.154,219.758,171.278,217.496,173.069,219.471z"/>
			<path style="fill:#2B1822;" d="M160.417,233.64c1.343,1.481,2.85,3.141,4.231,4.599c1.865,1.971,4.062,4.059,6.082,5.863
				c2.474,2.21,2.664,4.882-1.394,4.656c-6.56-0.367-8.094-3.119-11.126-5.444c-0.422-0.324-1.125,0.456-2.786-0.214
				c-2.107-0.849-2.363-1.185-2.363-3.278c0-1.334,0.221-4.079,0.826-5.464c-0.021-0.023-0.042-0.043-0.063-0.066
				C153.502,233.927,158.626,231.665,160.417,233.64z"/>
			<path style="fill:#2B1822;" d="M132.874,170.272c0.545-1.147,13.128-5.339,12.792-5.186c10.071,3.799,22.305,8.008,30.765,15.292
				c1.553,0.259,3.137,0.777,3.06,3.646c-0.06,2.23-1.365,6.076-1.734,8.328c-1.281,7.824-2.917,20.503-3.522,28.403
				c-1.328,2.367-5.258,2.367-7.761,0.586c-0.761-5.661-1.044-13.274-2.011-17.806c-1.277-5.991,0.816-8.901,2.654-12.107
				c-4.953,0.192-15.679-5.375-20.488-6.719c-5.826-1.629-7.428-1.674-11.756-6.11C131.907,175.558,130.859,174.52,132.874,170.272z
				"/>
			<path style="fill:#3A2832;" d="M133.362,171.077c3.113,0.074,6.571,0.299,9.626-0.619c0.303,0.441,0.613,0.871,0.863,1.381
				c1.114,2.265,2.146,3.973,1.286,6.552c1.513,2.143,8.337,10.525,9.56,13.089c1.574,1.564,2.419,2.456,2.222,6.046
				c-0.224,4.078,0.055,5.95,0.517,10.484c0.888,8.72,2.44,16.089,3.07,24.831c-2.03,3.125-4.752,3.254-7.443,0.795
				c-2.615-8.114-7.729-13.777-8.263-20.875c-0.354-4.701-0.429-8.245,1.661-11.228c-8.626-4.738-19.677-7.396-24.418-16.404
				c-3.073-5.838-1.587-10.171,1.57-16.157C126.492,170.733,129.828,170.993,133.362,171.077z"/>
			<path style="fill:#FA4146;" d="M150.192,129.227c-3.524-4.467-2.054-3.179-6.321-0.735c-5.226,2.992-9.445,4.879-11.734,6.781
				c-3.881,3.226-6.132,9.875-6.791,18.238c-0.1,1.269-0.865,5.588-1.316,6.872c-1.606,4.568-0.823,5.319,0.319,6.386
				c-1.692,0-2.491,2.408-1.242,3.288c7.986,5.624,23.307,5.702,25.482-3.645c0.138-0.591-0.464-2.391-0.835-2.872
				c0.974-0.55,1.452-2.469,1.452-3.726c1.793-0.969,2.182-2.47,2.591-5.005c3.592-0.81,7.352-4.825,5.642-8.973
				c-1.392-3.378-1.87-6.42-2.877-8.736C152.234,131.751,151.199,130.503,150.192,129.227z"/>
			<path style="fill:#FFB9A4;" d="M148.712,131.698c-0.984-0.161-3.553-1.473-2.785-6.24c0.215-1.335-5.786-4.922-5.783-4.733
				c0.063,4.32-0.991,9.001-2.971,11.242c2.854,2.982,5.533,9.767,10.451,7.343C150.082,138.098,150.653,137.198,148.712,131.698z"
				/>
			<path style="fill:#FFFFFF;" d="M150.303,128.561c0,0,1.913,5.262,2.573,6.993c0.66,1.731,1.905,4.993,1.905,4.993
				s-1.844-0.819-2.772-0.319c-0.927,0.5-2.23,1.955-3.031,2.182c-0.801,0.227-1.859,0.057-1.859,0.057l-0.636-2.203
				c0,0,1.672-0.523,1.652-3.352c-0.02-2.828-0.475-6.654-0.475-6.654L150.303,128.561z"/>
			<path style="fill:#FFFFFF;" d="M139.409,127.547c0,0,0.046,1.8,1.554,4.39c1.508,2.59,4.983,5.584,6.587,6.869
				c2.348,1.881,0.969,5.302,0.969,5.302s-0.892-1.969-1.968-1.623c-1.076,0.346-1.638,1.343-2.883,2.49
				c-0.989-1.49-1.466-2.77-3.654-4.916c-1.731-1.698-4.965-5.446-4.178-8.564C136.623,128.377,139.409,127.547,139.409,127.547z"/>
			<path style="fill:#2B1822;" d="M153.649,121.43c0.048-0.092,0.107-0.16,0.173-0.21c-0.039-0.043-0.08-0.083-0.118-0.126
				c-0.045-0.05-0.002-0.128,0.065-0.113c0.137,0.031,0.275,0.101,0.413,0.147c0.1,0.011,0.197,0.044,0.284,0.101
				c2.437,0.989,4.764,4.078,3.83,6.676c-0.431,1.198-1.504,1.652-2.713,1.466c-0.008-0.001-0.018-0.004-0.027-0.005
				c0.849,2.759-0.192,6.087-3.503,4.788c-2.214-0.868-2.751-3.642-2.685-5.759C149.463,125.387,152.342,123.962,153.649,121.43z"/>
			<path style="fill:#FFC9B6;" d="M152.982,114.892c-4.067-0.913-6.193-1.081-9.805,0.382c-2.033,0.55-3.94,1.455-5.775,2.656
				c-0.138,0.09-0.254,0.291-0.224,0.461c0.929,5.356,2.727,11.036,8.74,13.414c4.944,1.956,7.718-3.47,8.578-7.107
				C155.498,120.459,155.8,115.524,152.982,114.892z"/>
			<path style="fill:#FFC9B6;" d="M143.471,123.319c0,0-0.972-3.289-3.116-1.601c-2.144,1.689,0.891,5.022,0.891,5.022
				L143.471,123.319z"/>
			<path style="fill:#E32024;" d="M138.982,164.227c0,0-4.849-1.571-7.467-1.257c-2.618,0.314-4.871,1.257-4.871,1.257
				s3.696,0.524,6.169,0.628C135.285,164.96,138.982,164.227,138.982,164.227z"/>
			<path style="fill:#EF4335;" d="M140.24,168.038c-0.314,0-5.761-0.157-8.693-0.367c-2.933-0.209-4.085-0.351-4.085-0.351
				s2.409,1.818,5.813,1.818S140.24,168.038,140.24,168.038z"/>
			<path style="fill:#FFC9B6;" d="M178.824,134.552c0,0,0.991-1.679,1.866-3.622c0.593-1.316,0.359-2.538-0.358-2.718
				c-0.718-0.18-0.731,1.452-1.508,2.182c-0.776,0.73-3.801,3.274-3.324,4.591C175.977,136.302,178.824,134.552,178.824,134.552z"/>
			<g>
				<polygon style="fill:#FFFFFF;" points="149.457,179.595 147.855,178.259 155.26,159.36 156.862,160.696 				"/>
				<polygon style="fill:#FFFFFF;" points="158.928,174.243 157.326,172.906 164.731,154.008 166.333,155.344 				"/>
				<polygon style="fill:#FFE8DE;" points="155.26,159.36 164.731,154.008 166.333,155.344 156.862,160.696 				"/>
				<polygon style="fill:#F4D4C3;" points="149.457,179.595 158.928,174.243 166.333,155.344 156.862,160.696 				"/>
				<g>
					<path style="fill:#E2B39F;" d="M158.456,161.184c-0.133,0.213-0.36,0.312-0.506,0.22c-0.146-0.091-0.156-0.338-0.023-0.551
						c0.133-0.213,0.36-0.311,0.506-0.22C158.579,160.724,158.589,160.971,158.456,161.184z"/>
					<g>
						<path style="fill:#FA4146;" d="M157.835,161.184c-0.002-0.078,0.061-0.335,0.133-0.39c0.091,0.032,0.316-0.014,0.363-0.04
							c0.546-0.303,0.751-1.211,0.454-2.13c-0.16-0.496-0.44-0.917-0.79-1.186c-0.329-0.254-0.681-0.342-0.982-0.24
							c-0.498,0.161-0.78,0.811-0.719,1.578c-0.136,0.067-0.344,0.195-0.351,0.184c-0.013-0.023-0.022-0.048-0.025-0.076
							c-0.111-0.996,0.283-1.817,0.979-2.043c0.428-0.135,0.897-0.03,1.327,0.3c0.409,0.316,0.735,0.801,0.919,1.368
							c0.385,1.196,0.007,2.392-0.845,2.668C158.28,161.182,157.987,161.251,157.835,161.184z"/>
					</g>
				</g>
				<g>
					<path style="fill:#E2B39F;" d="M160.383,160.096c-0.133,0.213-0.359,0.311-0.506,0.22c-0.146-0.091-0.156-0.338-0.023-0.551
						c0.133-0.213,0.36-0.311,0.505-0.22C160.506,159.636,160.516,159.883,160.383,160.096z"/>
					<g>
						<path style="fill:#FA4146;" d="M159.762,160.096c-0.001-0.078,0.061-0.335,0.134-0.39c0.091,0.032,0.316-0.014,0.363-0.04
							c0.546-0.303,0.751-1.211,0.454-2.13c-0.16-0.496-0.44-0.917-0.79-1.186c-0.329-0.254-0.681-0.342-0.982-0.24
							c-0.497,0.161-0.791,0.797-0.73,1.564c-0.136,0.067-0.248,0.146-0.342,0.193c-0.012-0.021-0.02-0.046-0.022-0.071
							c-0.111-0.996,0.283-1.817,0.979-2.043c0.428-0.135,0.897-0.03,1.327,0.3c0.41,0.316,0.735,0.801,0.919,1.368
							c0.385,1.196,0.007,2.392-0.845,2.667C160.207,160.093,159.914,160.162,159.762,160.096z"/>
					</g>
				</g>
				<g>
					<path style="fill:#E2B39F;" d="M162.31,159c-0.133,0.213-0.359,0.312-0.505,0.22c-0.146-0.091-0.156-0.338-0.023-0.551
						c0.133-0.213,0.36-0.311,0.506-0.22C162.433,158.541,162.443,158.788,162.31,159z"/>
					<g>
						<path style="fill:#FA4146;" d="M161.69,159.001c-0.001-0.078,0.061-0.335,0.134-0.39c0.091,0.032,0.316-0.014,0.363-0.04
							c0.546-0.303,0.751-1.211,0.454-2.13c-0.16-0.496-0.44-0.917-0.79-1.186c-0.329-0.254-0.681-0.342-0.982-0.24
							c-0.497,0.161-0.791,0.797-0.73,1.564c-0.136,0.067-0.248,0.146-0.342,0.193c-0.012-0.021-0.02-0.046-0.022-0.071
							c-0.111-0.996,0.283-1.817,0.979-2.043c0.428-0.135,0.897-0.03,1.327,0.3c0.409,0.316,0.735,0.801,0.918,1.368
							c0.385,1.196,0.007,2.392-0.845,2.668C162.134,158.998,161.841,159.067,161.69,159.001z"/>
					</g>
				</g>
				<g>
					<path style="fill:#E2B39F;" d="M164.237,157.882c-0.133,0.213-0.359,0.311-0.505,0.22c-0.146-0.091-0.156-0.338-0.023-0.551
						c0.133-0.213,0.36-0.312,0.506-0.22C164.36,157.423,164.371,157.669,164.237,157.882z"/>
					<g>
						<path style="fill:#FA4146;" d="M163.617,157.883c-0.001-0.078,0.061-0.335,0.134-0.39c0.091,0.032,0.316-0.014,0.363-0.04
							c0.546-0.303,0.751-1.211,0.454-2.13c-0.16-0.496-0.44-0.917-0.79-1.186c-0.329-0.254-0.681-0.342-0.982-0.24
							c-0.497,0.161-0.791,0.797-0.73,1.564c-0.136,0.067-0.248,0.145-0.342,0.193c-0.012-0.021-0.02-0.045-0.022-0.071
							c-0.112-0.996,0.283-1.817,0.979-2.043c0.428-0.135,0.897-0.03,1.327,0.3c0.41,0.316,0.736,0.801,0.919,1.368
							c0.385,1.196,0.007,2.392-0.845,2.667C164.061,157.88,163.769,157.949,163.617,157.883z"/>
					</g>
				</g>
			</g>
			<path style="fill:#FFC9B6;" d="M151.638,168.603c-0.996,0.187-1.18,0-3.095,0.251c-1.496,0.196-2.601,1.791-3.12,1.676
				c-1.279-0.282-9.653-3.627-12.611-4.429c-2.558-0.752-5.4,0.865-6.308,3.215c0.511,1.068,0.957,2.037,3.23,2.803
				c2.038,0.687,13.732,2.086,15.175,2.708c2.683,1.155,3.564,2.261,6.312,2.414c3.337,0.186,6.961-2.372,6.748-4.165
				c-0.213-1.792-3.117-0.668-4.809-0.862c-1.652-0.189-2.55-1.208-2.281-1.749C151.339,169.54,151.359,169.316,151.638,168.603z"/>
			<path style="fill:#FFC9B6;" d="M126.504,169.316c2.264-1.144,4.756-1.898,7.201-2.413c0.069-1.987,0.246-7.295,0.264-9.682
				c0.022-2.968,0-6.019,0-6.019s-7.203-4.07-8.46-0.684c-1.257,3.386,0.561,11.954,0.561,15.196
				C126.07,167.379,126.197,168.228,126.504,169.316z"/>
			<g>
				<path style="fill:#FFE8DE;" d="M131.63,138.006c2.626,0.953,3.858,4.735,4,9.484c0.142,4.749,0.066,11.442,0.066,11.442
					s-2.699,1.669-6.285,1.669c-3.774,0-5.657-2.014-5.657-2.014s0.581-13.06,1.943-16.704
					C127.059,138.237,129.375,137.188,131.63,138.006z"/>
			</g>
			<path style="fill:#2B1822;" d="M130.463,121.824c0.343-1.358,1.531-3.125,2.99-4.045c-0.449-0.934-0.297-2.032,0.214-2.948
				c0.752-1.35,3.124-3.423,5.096-3.446c-0.497-0.946-0.797-1.991-0.38-3.035c0.46-1.153,1.633-1.723,2.794-1.92
				c1.767-0.299,3.726-0.024,4.809,1.277c0.639-1.278,2.408-2.17,3.726-1.53c0.604,0.293,1.063,0.917,1.183,1.565
				c0.926-0.76,2.285-0.967,3.148,0.097c0.49,0.604,0.397,1.232,0.047,1.769c1.956-0.199,4.279,0.363,4.685,2.097
				c0.232,0.993-0.19,1.831-0.902,2.452c1.479,1.094,2.313,2.857,0.857,4.47c-1.702,1.886-5.494,1.517-7.44-0.189
				c-0.583,2.26-2.339,4.326-4.693,4.556c-0.904,0.088-1.959-0.328-2.762-0.984c-0.443,0.745-1.024,1.459-1.681,2.06
				c0.797,1.228,1.155,2.772,0.998,4.203c-0.108,0.981-0.697,2.321-1.589,2.908c1.828,1.744,2.811,4.143,2.067,6.708
				c-0.599,2.065-3.065,3.668-6.331,1.57c-1.573-1.011-2.847-4.523-2.305-5.904c-1.24,0.358-2.737-0.442-3.103-1.878
				c-0.295-1.156,0.099-2.621,0.875-3.76C130.688,127.037,129.966,123.788,130.463,121.824z"/>
		</g>
		<g>
			<path style="fill:#7E97E0;" d="M84.3,163.64l5.925-3.447c0.332-0.301,0.809-0.342,1.345-0.032l39.814,22.986
				c1.002,0.579,1.815,2.131,1.815,3.467v33.924c0,0.817-0.306,1.36-0.772,1.53l0.016,0.06l-6.034,3.484l-3.467-5.225l0.447-3.093
				l-31.818-18.37c-1.002-0.579-1.815-2.131-1.815-3.467v-26.258l-4.483-1.494L84.3,163.64z"/>
			<path style="fill:#677DCE;" d="M85.611,202.407l39.814,22.986c1.002,0.579,1.814-0.036,1.814-1.372v-33.924
				c0-1.336-0.812-2.889-1.814-3.467l-39.814-22.986c-1.002-0.579-1.815,0.036-1.815,1.372v33.924
				C83.796,200.276,84.608,201.828,85.611,202.407z"/>
		</g>
	</g>
	<g>
		<g>
			<polygon style="fill:#3A2832;" points="260.256,272.355 255.566,269.647 255.566,236.207 260.256,238.915 			"/>
			<polygon style="fill:#2B1822;" points="260.256,272.355 262.602,271.001 264.947,236.207 260.256,238.915 			"/>
		</g>
		<g>
			<polygon style="fill:#3A2832;" points="357.227,215.917 352.537,213.209 347.847,183.587 352.537,186.295 			"/>
			<polygon style="fill:#2B1822;" points="357.227,215.917 359.262,214.67 357.227,183.587 352.537,186.295 			"/>
		</g>
		<g>
			<polygon style="fill:#3A2832;" points="217.629,247.735 212.938,245.027 212.938,211.587 217.629,214.295 			"/>
			<polygon style="fill:#2B1822;" points="217.629,247.735 219.974,246.381 222.319,211.587 217.629,214.295 			"/>
		</g>
		<g>
			<polygon style="fill:#3A2832;" points="314.599,191.298 309.909,188.59 305.219,158.967 309.909,161.675 			"/>
			<polygon style="fill:#2B1822;" points="314.599,191.298 316.634,190.05 314.599,158.967 309.909,161.675 			"/>
		</g>
		<g>
			<g>
				<path style="fill:#4B57AA;" d="M349.255,85.676l-0.108,0.185c-1.805-0.57-4.294,0.069-7.499,4.005
					c-0.492,0.604-0.999,1.28-1.525,2.047c-9.703,14.158-25.25,37.611-31.811,47.058c-0.299,0.431-0.587,0.843-0.847,1.214
					c-7.027,9.993,0,17.002,0,17.002l52.085,30.255l8.301-14.096l30.037-51.009l3.772-6.405L349.255,85.676z"/>
				<path style="fill:#3C4C99;" d="M307.465,140.185c-7.027,9.993,0,17.002,0,17.002l52.085,30.255l8.301-14.096l-59.539-34.375
					C308.013,139.402,307.726,139.815,307.465,140.185z"/>
				<path style="fill:#3C4C99;" d="M401.66,115.932l-52.405-30.255l-0.108,0.185c-1.805-0.57-4.294,0.069-7.499,4.005l56.24,32.47
					L401.66,115.932z"/>
				<path style="fill:#2A3F8C;" d="M359.55,187.442l45.321-67.558c0,0-4.064-10.262-12.663,2.285
					c-10.146,14.804-26.688,39.782-32.658,48.272C352.523,180.433,359.55,187.442,359.55,187.442z"/>
			</g>
			<g>
				<g>
					<path style="fill:#4B57AA;" d="M358.002,177.863l-51.549-29.694c-1.305-1.069-3.141-1.149-5.18,0.028l-83.335,48.348
						c-1.123,0.648-2.182,1.614-3.128,2.774l60.949,35.189L358.002,177.863z"/>
					<path style="fill:#3C4C99;" d="M210.77,214.791l51.109,29.276l13.88-9.559l-60.949-35.189c-2.389,2.929-4.04,7.141-4.04,10.921
						V214.791z"/>
				</g>
				<path style="fill:#2A3F8C;" d="M359.55,187.442l-97.671,56.624v-4.551c0-5.278,3.209-11.41,7.168-13.696l83.335-48.348
					c3.959-2.286,7.168,0.141,7.168,5.419V187.442z"/>
			</g>
		</g>
	</g>
	<g>
		<path style="fill:#EF4335;" d="M345.975,112.702c0,0-4.821-0.948-9.879,1.367c-5.058,2.316-13.292,12.529-13.292,12.529
			s-9.957-8.001-14.553-11.117c-4.596-3.117-7.468-3.499-9.191-0.435c-1.724,3.063-0.543,5.106,5.282,11.553
			c5.824,6.447,10.651,13.004,19.344,10.491c8.693-2.512,25.544-18.715,25.544-18.715L345.975,112.702z"/>
		<path style="fill:#F4D4C3;" d="M311.444,148.335c-9.939,4.398-23.862,11.776-34.4,18.254
			c-10.538,6.477-31.931,27.569-31.931,27.569l10.246,6.705c0,0,20.189-11.979,27.349-16.824c7.16-4.846,19.219-9.6,24.488-12.585
			c5.268-2.985,19.265-14.648,19.265-14.648S318.541,149.268,311.444,148.335z"/>
		<path style="fill:#FFE8DE;" d="M322.3,154.686c-1.219,0.188-7.835,2.121-21.708,9.862c-3.406,1.9-10.979,6.971-15.206,10.051
			c-15.696,11.439-30.026,26.264-30.026,26.264l6.551,9.16c0,0,26.838-9.887,34.417-20.495c8.014-2.087,22.809-3.93,31.675-11.176
			c7.848-1.741,9.778-4.08,11.416-9.604C336.441,160.921,322.3,154.686,322.3,154.686z"/>
		<path style="fill:#FF5E4C;" d="M349.613,115.932c-2.763-1.981-4.166-3.455-10.194,1.409c-4.877,3.935-11.327,11.13-13.452,16.096
			c-0.5,1.169-4.168,8.303-11.971,9.998c-2.652,0.576-2.552,3.906-2.552,4.901c2.966,2.38,8.897,5.357,12.318,9.411
			c5.902,6.994,10.685,8.869,15.319,12.638c4.891-1.895,7.234-4.447,9.957-7.901c4.696-5.957,8.339-13.69,11.95-20.628
			c2.66-5.112,7.192-13.413-1.893-19.544C356.26,117.165,352.911,118.296,349.613,115.932z"/>
		<path style="fill:#FFB9A4;" d="M347.4,114.687c0,0-0.496,3.637-3.078,8.893c-0.591,3.883,0.772,6.645,5.101,3.888
			c4.329-2.757,8.721-6.749,8.721-6.749l0.261-5.706L347.4,114.687z"/>
		<path style="fill:#EF4335;" d="M358.405,118.066c-0.808,2.055-2.243,3.569-4.4,4.93c-2.931,1.849-4.257,1.274-6.827,1.531
			c-2.679,0.267-3.899,1.325-4.655,3.85c1.054-0.153,1.241-0.668,2.009,0.355c0.507,0.676,0.304,1.454,0.343,2.168
			c0.055,1.01,1.102,1.854,2.551,1.608c-0.456-2.882,5.781-4.323,7.356-4.81c1.44-0.446,5.003-2.71,5.476-4.401
			C360.927,120.906,359.776,119.002,358.405,118.066z"/>
		<path style="fill:#EF4335;" d="M346.123,116.503c0,0-2.603,2.442-3.852,3.91c-1.249,1.468-1.176,3.207-2.209,3.909
			c-1.033,0.702-2.008,0.924-2.008,0.924s1.909,0.573,2.6,0.262c0.691-0.311,1.544-0.453,1.712-0.241
			c0.168,0.212,1.422,1.751,1.528,1.572c0.107-0.178,2.191-1.047,2.191-1.047s-0.984-1.844-0.349-3.951
			c0.635-2.108,1.941-4.024,1.941-4.024L346.123,116.503z"/>
		<path style="fill:#FFC9B6;" d="M363.586,106.337c0.166-3.349-8.099-8.148-11.498-7.835c-5.122,0.473-7.423,6.59-8.496,11.197
			c-1.129,4.845,0.526,11.693,8.123,9.807C357.877,117.976,363.263,112.861,363.586,106.337z"/>
		<path style="fill:#2B1822;" d="M364.723,105.031c0.87-1.752,0.365-3.909-1.042-5.467c-1.293-1.431-3.14-2.094-4.949-2.57
			c-1.609-0.424-2.309-0.291-3.56-1.48c-1.339-1.272-0.913-1.739-1.377-3.347c-1.43-4.962-7.039-1.095-7.215,3.171
			c-0.498-0.246-1.06-0.295-1.671,0.043c-1.431,0.794-1.214,2.652-0.522,3.841c1.151,1.98,3.277,3.479,5.546,4.006
			c0.601,3.993,5.034,4.523,6.688,3.986c-0.801,2.809,1.269,6.622,1.559,10.126c1.42-1.431,6.961-3.112,7.99-7.284
			C366.56,108.478,366.097,106.113,364.723,105.031z"/>
		<path style="fill:#FFC9B6;" d="M356.111,110.996c0,0,2.37-1.7,3.035,0.456c0.584,1.896-0.395,3.86-2.753,3.564
			C354.32,114.755,356.111,110.996,356.111,110.996z"/>
		<path style="fill:#FFFFFF;" d="M340.763,128.318c-0.651-1.147,0.206-2.934,0.206-2.934s0.447-0.072,1.032-0.215
			c0.456-0.111,0.641,0.435,0.641,0.435s-0.585,1.798-0.621,2.635c0,0,1.18-0.21,1.699-0.282c1.413-0.195,1.094,1.39,1.094,1.39
			s-1.215,0.181-2.202,0.23c-0.217,0.574-0.538,1.192-0.93,1.821c-0.344,0.551-0.998,0.734-1.474,0.419
			c-0.739-0.488-0.787-1.197-0.5-1.96C339.852,129.47,340.367,128.868,340.763,128.318z"/>
		<path style="fill:#FFFFFF;" d="M339.708,129.855c0,0-5.414,7.785-19.226,14.877c-1.831,2.816-1.972,5.216-1.972,5.216l6.156-1.032
			c0,0,6.605-2.233,11.431-6.68c3.217-2.965,5.585-10.839,5.585-10.839L339.708,129.855z"/>
		<path style="fill:#FFC9B6;" d="M320.335,148.37c0,0-2.649-1.627-8.927-1.215c-6.278,0.412-7.941,2.271-7.898,4.712
			c0.025,1.41,5.751,3.224,8.389,2.663c2.638-0.562,8.239-1.568,8.239-1.568L320.335,148.37z"/>
		<path style="fill:#EF4335;" d="M364.062,126.654c-5.586-0.968-10.915,10.786-11.641,14.464
			c-3.292,3.525-8.677,10.801-8.677,10.801s-10.767-2.129-15.583-3.16c-4.816-1.03-9.512-4.046-11.681,2.872
			c-1.62,5.168,14.931,12.575,23.936,13.883c9.006,1.308,18.059-4.117,23.645-16.128
			C367.817,141.314,370.673,130.76,364.062,126.654z"/>
		<path style="fill:#FFC9B6;" d="M304.342,114.63c0,0-2.303-4.084-4.769-5.473c-2.466-1.389-5.442-2.547-6.066-2.61
			c-0.902-0.091-1.508,0.79-0.198,1.55c0.779,0.452,1.82,1.382,1.921,1.896c0.227,1.16-2.29,1.159-4.655,0.651
			c-2.364-0.508-4.616-2.397-5.84-1.488c-1.224,0.909-0.056,5.529,4.821,7.346c3.954,1.473,7.415-0.561,9.046,0.382
			c0.612,0.353,1.37,1.115,2.299,1.182C302.453,118.178,304.185,117.124,304.342,114.63z"/>
		<g>
			<path style="fill:#30202C;" d="M249.272,195.093c-2.275-2.717-7.113-7.864-11.167-8.731c-4.053-0.867-3.302,4.147-1.34,10.76
				c1.962,6.612,7.237,6.997,7.237,6.997s0.211,2.545,1.722,4.035c2.807,2.767,7.126,1.023,7.492-3.233
				C253.582,200.663,250.971,197.123,249.272,195.093z"/>
			<path style="fill:#3A2832;" d="M236.065,186.638c0,0,5.143,1.455,9.308,6.428c4.165,4.973,3.159,9.877,3.159,9.877
				s1.464,1.92,2.073,3.59c0.656,1.799-0.231,2.643-0.231,2.643s2.412-0.234,2.898-3.812c0.486-3.578-1.484-7.762-5.649-12.83
				C243.458,187.466,239.108,185.003,236.065,186.638z"/>
		</g>
		<g>
			<path style="fill:#2B1822;" d="M257.911,199.752c-2.275-2.717-7.113-7.864-11.166-8.731c-4.053-0.867-3.302,4.147-1.34,10.76
				c1.962,6.612,7.237,6.997,7.237,6.997s0.211,2.545,1.722,4.035c2.807,2.767,7.126,1.023,7.492-3.233
				C262.222,205.323,259.611,201.782,257.911,199.752z"/>
			<path style="fill:#3A2832;" d="M244.704,191.298c0,0,5.143,1.455,9.308,6.428c4.165,4.973,3.16,9.877,3.16,9.877
				s1.464,1.92,2.072,3.589c0.656,1.799-0.231,2.643-0.231,2.643s2.412-0.234,2.898-3.812c0.486-3.578-1.484-7.762-5.649-12.83
				C252.097,192.126,247.748,189.662,244.704,191.298z"/>
		</g>
	</g>
	<path style="fill:#FFE8DE;" d="M307.541,72.312c9.914,0,17.952,6.632,17.952,14.813c0,4.239-2.17,8.052-5.629,10.752l2.858,9.484
		l-9.376-6.231c-1.823,0.515-3.771,0.807-5.805,0.807c-9.914,0-17.951-6.632-17.951-14.813
		C289.589,78.944,297.626,72.312,307.541,72.312z"/>
	<g>
		<path style="fill:#FFE8DE;" d="M184.848,86.482c-9.914,0-17.952,6.632-17.952,14.813c0,4.239,2.17,8.052,5.629,10.753
			l-2.858,9.484l9.376-6.231c1.823,0.515,3.771,0.807,5.805,0.807c9.914,0,17.951-6.632,17.951-14.813
			S194.762,86.482,184.848,86.482z"/>
	</g>
	<g>
		<g>
			<path style="fill:#2B1822;" d="M95.85,221.164l-15.365,0h-0.85h-0.85l-15.365,0c0,0,0.437,9.643,1.929,17.805
				c0.012,0.068,0.041,0.119,0.055,0.186c0.562,4.425,6.711,7.913,14.231,7.913c7.52,0,13.669-3.488,14.23-7.913
				c0.014-0.066,0.043-0.118,0.055-0.186C95.413,230.806,95.85,221.164,95.85,221.164z"/>
			<path style="fill:#3A2832;" d="M79.635,211.435c8.955,0,16.215,4.355,16.215,9.728c0,5.372-7.26,9.727-16.215,9.727
				c-8.955,0-16.215-4.355-16.215-9.727C63.421,215.791,70.68,211.435,79.635,211.435z"/>
			<path style="fill:#2B1822;" d="M79.635,212.291c8.168,0,14.789,3.973,14.789,8.873c0,4.9-6.621,8.872-14.789,8.872
				c-8.168,0-14.789-3.973-14.789-8.872C64.846,216.263,71.468,212.291,79.635,212.291z"/>
		</g>
		<path style="fill:#A3AA22;" d="M81.289,167.986c-0.819-1.861-2.633-1.348-4.136-0.376c0.629-1.426,0.745-3.151,0.539-4.652
			c-0.165-1.198-0.508-3.024-2.071-2.984c-0.911,0.023-1.682,0.788-2.176,1.78c-0.816-1.954-2.195-3.916-3.753-2.996
			c-0.952,0.563-0.83,1.809-0.359,2.647c0.464,0.826,1.14,1.571,1.722,2.315c0.191,0.244,0.385,0.497,0.577,0.749
			c-0.664-0.299-1.36-0.535-2.044-0.693c-1.022-0.237-3.01-0.759-3.671,0.403c-0.941,1.655,1.554,2.848,3.826,3.41
			c-1.16,0.368-2.258,0.992-3.14,1.725c-0.264,0.22-0.14,0.616,0.101,0.781c1.109,0.763,2.35,1.158,3.626,1.546
			c0.653,0.199,1.308,0.393,1.934,0.669c0.103,0.046,0.196,0.107,0.296,0.159c-0.463,0.158-0.916,0.374-1.369,0.708
			c-0.668,0.492-1.389,1.238-0.714,2.048c0.595,0.714,1.795,0.887,2.651,0.979c1.391,0.149,2.552,0.049,3.678,0.985
			c0.219,0.182,0.444,0.175,0.636,0.099c0.081,0.105,0.188,0.194,0.34,0.228c1.502,0.342,2.797-1.43,2.898-2.799
			c0.044-0.595-0.25-1.168-0.682-1.465c0.433-0.646,0.763-1.395,1.04-2.032C81.467,170.233,81.743,169.016,81.289,167.986z"/>
		<path style="fill:#A3AA22;" d="M63.629,183.049c-1.777-0.99-2.913,0.513-3.525,2.196c-0.359-1.517-1.307-2.962-2.378-4.035
			c-0.854-0.855-2.229-2.105-3.452-1.129c-0.712,0.568-0.865,1.643-0.661,2.733c-1.829-1.066-4.113-1.798-4.8-0.124
			c-0.42,1.023,0.43,1.943,1.311,2.327c0.869,0.379,1.857,0.565,2.77,0.807c0.299,0.079,0.607,0.164,0.912,0.249
			c-0.71,0.162-1.407,0.395-2.048,0.681c-0.958,0.427-2.858,1.211-2.684,2.536c0.248,1.888,2.958,1.334,5.109,0.411
			c-0.703,0.994-1.202,2.154-1.463,3.27c-0.078,0.335,0.261,0.576,0.552,0.562c1.344-0.061,2.572-0.495,3.825-0.956
			c0.641-0.236,1.28-0.477,1.945-0.634c0.11-0.026,0.221-0.033,0.332-0.052c-0.274,0.406-0.505,0.851-0.665,1.39
			c-0.236,0.796-0.361,1.825,0.667,2.064c0.906,0.21,1.967-0.376,2.704-0.819c1.199-0.721,2.064-1.501,3.527-1.434
			c0.285,0.013,0.46-0.128,0.567-0.305c0.128,0.035,0.267,0.041,0.409-0.023c1.404-0.634,1.367-2.829,0.622-3.981
			c-0.324-0.501-0.904-0.78-1.428-0.757c-0.045-0.777-0.233-1.573-0.397-2.248C65.126,184.734,64.612,183.597,63.629,183.049z"/>
		<path style="fill:#CC9B72;" d="M83.822,149.942c0.505-4.555,0.38-13.141,1.393-22.044c0.882-7.757,2.891-16.004,3.595-18.859
			c0.04-0.162-0.189-0.219-0.246-0.068c-2.946,7.895-5.938,19.18-6.151,25.465c-1.492-3.142-2.474-5.908-3.142-8.747
			c-1.359-5.775-1.782-10.321-2.816-15.17c-0.643-3.017-0.664-6.124-0.514-9.215c-0.832,0.72-1.223,6.647-1.086,7.826
			c0.812,7.007,1.523,14.048,3.465,20.71c1.315,4.511,3.927,8.62,2.601,19.294c-1.255,10.098-6.995,32.75-7.743,42.914
			c-0.35,4.761-0.092,9.475,0.83,14.158c1.078,5.479,1.716,11.879,1.187,17.412c-0.255,2.648,7.388,3.238,7.643,1.089
			c0.246-12.172-2.646-15.251-4.246-23.778c-0.898-4.786-0.949-13.473,2.33-28.703C82.466,165.05,83.017,157.197,83.822,149.942z"/>
		<path style="fill:#CC9B72;" d="M89.389,126.699c-0.555,4.179-1.098,8.338-1.579,12.524c-0.669,5.825-2.743,9.859-6.674,14.234
			c-0.154,0.171,0.074,0.387,0.248,0.248c7.974-6.413,7.384-17.762,8.037-27.006C89.422,126.678,89.391,126.679,89.389,126.699z"/>
		<path style="fill:#CC9B72;" d="M65.552,169.534c0.636,4.788,1.258,9.553,1.809,14.35c0.766,6.674,3.143,11.296,7.647,16.309
			c0.176,0.196-0.085,0.444-0.284,0.284c-9.136-7.347-8.461-20.351-9.208-30.943C65.514,169.51,65.549,169.512,65.552,169.534z"/>
		<path style="fill:#CC9B72;" d="M77.899,175.879c-2.522-1.293-4.964-2.783-5.502-5.159c-1.513-6.683,0.674-15.472-1.172-23.13
			c-0.019-0.078-0.142-0.062-0.141,0.019c0.086,5.102,0.041,10.008-0.297,15.1c-0.107,1.606-0.158,3.149-0.046,4.658
			c-0.934-2.327-1.625-4.839-2.443-7.339c-1.272-3.887-1.838-9.388-5.155-12.152c-0.085-0.071-1.059-0.337-0.418,0.423
			c6.36,7.547,2.365,25.886,14.91,28.205C77.992,176.571,78.268,176.068,77.899,175.879z"/>
		<path style="fill:#CC9B72;" d="M77.408,196.082c2.522-1.293,4.964-2.783,5.502-5.159c1.512-6.683-0.674-15.472,1.172-23.13
			c0.019-0.079,0.142-0.062,0.141,0.019c-0.086,5.102-0.041,10.008,0.297,15.1c0.107,1.606,0.158,3.149,0.046,4.658
			c0.934-2.327,1.625-4.839,2.443-7.339c1.272-3.887,1.838-9.388,5.155-12.152c0.085-0.071,1.059-0.337,0.418,0.423
			c-6.36,7.547-2.365,25.886-14.911,28.205C77.314,196.773,77.039,196.271,77.408,196.082z"/>
		<path style="fill:#C5CC33;" d="M79.269,100.756c-0.16-1.42-1.522-2.757-2.969-1.945c-0.169,0.094-0.277,0.233-0.418,0.348
			c0.076-1.78,0.009-3.606,0.063-5.279c0.009-0.283-0.259-0.567-0.548-0.548c-1.493,0.093-2.586,1.435-2.905,2.897
			c-0.444-0.755-0.879-1.515-1.334-2.265c-0.538-0.886-1.124-2.398-1.903-3.072c-0.919-0.796-2.011-0.298-2.347,0.839
			c-0.386,1.304,0.427,2.689,1.238,3.639c0.712,0.835,1.481,1.604,2.239,2.385c-2.31-0.54-4.885-0.508-4.943,1.894
			c-0.03,1.239,1.005,1.707,2.076,1.837c0.741,0.09,1.554,0.195,2.381,0.286c-0.87,0.403-1.473,1.094-1.518,2.2
			c-0.051,1.265,1.121,1.688,2.188,1.643c1.039-0.044,2.147-0.398,3.163-0.598c0.601-0.118,1.206-0.229,1.809-0.347
			c0.413,0.615,0.952,1.099,1.587,1.393c-0.054,0.397-0.072,0.797,0.029,1.203c0.048,0.194,0.329,0.282,0.466,0.123
			c0.805-0.939,0.878-2.27,1.152-3.449C79.01,102.924,79.388,101.814,79.269,100.756z"/>
		<path style="fill:#C5CC33;" d="M89.851,119.231c1.001-1.021,2.186-0.097,2.917,1.098c0.301-1.237,0.713-2.487,2.064-2.607
			c0.428-0.038,0.846,0.134,1.152,0.41c0.044-2.358,0.828-7.11,3.169-5.613c0.94,0.601,1.188,1.67,1.058,2.818
			c1.662-2.313,3.824-4.184,6.766-4.828c0.139-0.03,0.317-0.009,0.415,0.11c1.086,1.318-1.069,2.493-1.968,3.176
			c-0.919,0.698-1.93,1.513-2.985,2.273c0.732-0.17,1.467-0.312,2.179-0.403c1.061-0.137,3.265-0.594,3.795,0.819
			c0.394,1.049-0.438,1.485-1.297,1.621c-1.365,0.216-2.738,0.293-4.099,0.542c0.89,0.124,1.561,0.532,1.724,1.414
			c0.257,1.39-1.357,1.655-2.343,1.887c-1.213,0.285-2.5,0.504-3.76,0.461c0.215,0.056,0.43,0.108,0.644,0.174
			c0.555,0.169,0.501,0.885,0,1.075c-1.72,0.651-3.433,1.328-5.163,1.955c-0.783,0.284-1.555,0.526-2.319,0.435
			c-0.033,0.004-0.065,0-0.098-0.003c-0.036-0.006-0.073-0.013-0.109-0.02c-0.023-0.007-0.045-0.014-0.068-0.026
			c-0.233-0.055-0.465-0.128-0.697-0.266c-0.249-0.149-0.22-0.442-0.043-0.597c-0.595-0.848-1.03-1.782-1.232-2.823
			C89.386,121.452,89.16,119.936,89.851,119.231z"/>
		<path style="fill:#C5CC33;" d="M81.381,185.176c0.16-1.421,1.522-2.758,2.969-1.946c0.169,0.095,0.277,0.233,0.418,0.348
			c-0.076-1.78-0.009-3.606-0.063-5.279c-0.009-0.283,0.259-0.567,0.548-0.548c1.493,0.093,2.586,1.435,2.905,2.897
			c0.444-0.755,0.879-1.515,1.335-2.265c0.538-0.886,1.124-2.398,1.903-3.072c0.92-0.796,2.011-0.298,2.347,0.839
			c0.386,1.304-0.427,2.689-1.238,3.639c-0.712,0.835-1.481,1.604-2.239,2.385c2.31-0.54,4.885-0.508,4.943,1.894
			c0.03,1.239-1.005,1.707-2.076,1.837c-0.741,0.09-1.554,0.195-2.381,0.286c0.87,0.403,1.473,1.093,1.518,2.2
			c0.051,1.265-1.121,1.688-2.188,1.643c-1.039-0.044-2.146-0.398-3.163-0.598c-0.601-0.118-1.206-0.229-1.809-0.347
			c-0.413,0.616-0.952,1.099-1.587,1.393c0.054,0.397,0.072,0.796-0.029,1.203c-0.048,0.194-0.329,0.283-0.465,0.123
			c-0.805-0.939-0.878-2.27-1.152-3.449C81.64,187.344,81.262,186.235,81.381,185.176z"/>
		<path style="fill:#ADBC2B;" d="M83.156,109.469c-1.177-0.529-2.517-0.135-3.506,0.66c0.128-0.478,0.255-0.956,0.36-1.439
			c0.124-0.572,0.213-1.249-0.383-1.589c-0.561-0.32-0.994-0.024-1.299,0.469c-0.112-0.505-0.29-0.999-0.487-1.451
			c-0.228-0.522-0.598-1.464-1.329-1.413c-1.095,0.076-1.115,1.71-0.829,2.812c-0.117-0.047-0.232-0.109-0.351-0.14
			c-1.134-0.289-2.279,0.17-3.087,0.961c-0.338,0.331-0.128,0.8,0.253,0.958c1.024,0.424,2.063,0.824,3.072,1.281
			c0.121,0.055,0.242,0.126,0.363,0.196c-1.033,0.234-2.001,0.894-1.977,1.903c0.017,0.729,0.614,1.146,1.27,1.309
			c0.47,0.117,0.976,0.119,1.456,0.158c0.484,0.039,0.966,0.113,1.438,0.08c-0.348,0.886-0.433,1.99,0.019,2.703
			c0.735,1.161,2.373,0.488,3.285-0.064c1.109-0.671,1.684-1.992,0.899-3.137c-0.237-0.346-0.6-0.707-1.019-0.998
			C82.71,111.899,84.698,110.162,83.156,109.469z"/>
		<path style="fill:#C5CC33;" d="M86.335,138.14c1.177-0.529,2.517-0.135,3.506,0.66c-0.128-0.478-0.255-0.956-0.36-1.439
			c-0.124-0.572-0.213-1.249,0.383-1.589c0.561-0.32,0.994-0.024,1.299,0.469c0.112-0.505,0.289-0.999,0.487-1.451
			c0.227-0.522,0.598-1.464,1.329-1.413c1.095,0.076,1.115,1.71,0.829,2.812c0.117-0.048,0.231-0.109,0.351-0.14
			c1.134-0.289,2.28,0.17,3.087,0.961c0.338,0.331,0.128,0.8-0.253,0.958c-1.024,0.424-2.063,0.824-3.072,1.282
			c-0.121,0.055-0.242,0.126-0.363,0.196c1.033,0.234,2.001,0.894,1.978,1.903c-0.017,0.729-0.614,1.146-1.27,1.309
			c-0.471,0.117-0.976,0.119-1.456,0.158c-0.484,0.039-0.966,0.113-1.438,0.08c0.348,0.886,0.433,1.99-0.018,2.703
			c-0.736,1.161-2.373,0.488-3.285-0.064c-1.109-0.671-1.684-1.992-0.899-3.137c0.237-0.346,0.6-0.707,1.019-0.998
			C86.781,140.57,84.792,138.833,86.335,138.14z"/>
		<path style="fill:#ADBC2B;" d="M84.895,185.204c-1.177-0.529-2.517-0.135-3.506,0.66c0.128-0.478,0.255-0.955,0.36-1.439
			c0.124-0.572,0.213-1.249-0.383-1.589c-0.561-0.321-0.993-0.024-1.299,0.469c-0.112-0.504-0.289-0.999-0.487-1.451
			c-0.227-0.522-0.598-1.464-1.329-1.413c-1.095,0.077-1.115,1.71-0.829,2.812c-0.117-0.048-0.231-0.109-0.351-0.14
			c-1.134-0.289-2.28,0.17-3.087,0.961c-0.338,0.331-0.128,0.8,0.253,0.958c1.024,0.423,2.063,0.824,3.072,1.281
			c0.121,0.055,0.242,0.126,0.363,0.196c-1.033,0.234-2.001,0.894-1.977,1.903c0.017,0.729,0.614,1.146,1.27,1.309
			c0.47,0.117,0.976,0.119,1.456,0.158c0.484,0.039,0.966,0.113,1.438,0.08c-0.348,0.886-0.433,1.99,0.019,2.703
			c0.735,1.161,2.373,0.488,3.285-0.064c1.109-0.671,1.684-1.992,0.899-3.137c-0.237-0.346-0.6-0.707-1.019-0.998
			C84.449,187.633,86.438,185.896,84.895,185.204z"/>
		<path style="fill:#C5CC33;" d="M66.872,144.838c-1.275,0.199-2.183,1.26-2.578,2.466c-0.154-0.47-0.308-0.94-0.484-1.402
			c-0.208-0.547-0.503-1.163-1.188-1.123c-0.645,0.038-0.846,0.522-0.833,1.102c-0.369-0.362-0.787-0.679-1.199-0.95
			c-0.475-0.313-1.3-0.9-1.885-0.459c-0.876,0.661-0.001,2.042,0.84,2.809c-0.124,0.024-0.254,0.035-0.37,0.074
			c-1.108,0.376-1.817,1.387-2.063,2.489c-0.102,0.462,0.33,0.741,0.735,0.665c1.089-0.204,2.178-0.436,3.274-0.603
			c0.132-0.02,0.272-0.026,0.411-0.034c-0.738,0.76-1.189,1.841-0.619,2.673c0.412,0.602,1.14,0.625,1.779,0.404
			c0.458-0.158,0.883-0.433,1.306-0.662c0.427-0.232,0.871-0.432,1.248-0.717c0.191,0.932,0.722,1.904,1.49,2.255
			c1.25,0.572,2.255-0.886,2.718-1.846c0.563-1.168,0.324-2.588-0.958-3.12c-0.388-0.16-0.888-0.265-1.399-0.28
			C67.824,147.118,68.543,144.577,66.872,144.838z"/>
		<path style="fill:#C5CC33;" d="M72.518,111.053c-1.275,0.199-2.183,1.26-2.578,2.466c-0.153-0.47-0.307-0.94-0.484-1.402
			c-0.208-0.547-0.503-1.163-1.188-1.123c-0.645,0.038-0.846,0.522-0.833,1.102c-0.369-0.362-0.787-0.679-1.199-0.95
			c-0.475-0.313-1.3-0.9-1.885-0.459c-0.876,0.661-0.001,2.042,0.84,2.809c-0.124,0.024-0.254,0.035-0.37,0.074
			c-1.108,0.377-1.817,1.387-2.063,2.49c-0.102,0.462,0.33,0.74,0.735,0.665c1.089-0.204,2.178-0.436,3.274-0.603
			c0.132-0.02,0.272-0.026,0.411-0.034c-0.738,0.759-1.189,1.841-0.619,2.674c0.412,0.602,1.14,0.625,1.779,0.404
			c0.458-0.159,0.883-0.433,1.307-0.662c0.427-0.232,0.871-0.432,1.248-0.718c0.191,0.933,0.722,1.904,1.49,2.255
			c1.25,0.572,2.255-0.886,2.718-1.846c0.563-1.168,0.324-2.588-0.958-3.119c-0.388-0.161-0.888-0.265-1.399-0.28
			C73.47,113.332,74.189,110.792,72.518,111.053z"/>
		<path style="fill:#C5CC33;" d="M68.298,179.11c-1.275,0.199-2.183,1.26-2.578,2.466c-0.153-0.47-0.308-0.94-0.483-1.402
			c-0.208-0.547-0.503-1.163-1.188-1.123c-0.645,0.038-0.846,0.522-0.833,1.102c-0.369-0.362-0.788-0.679-1.2-0.95
			c-0.475-0.313-1.3-0.9-1.885-0.459c-0.876,0.662-0.001,2.042,0.84,2.809c-0.124,0.024-0.254,0.035-0.37,0.074
			c-1.108,0.376-1.817,1.386-2.062,2.49c-0.102,0.462,0.33,0.74,0.735,0.665c1.089-0.204,2.178-0.436,3.274-0.603
			c0.132-0.02,0.272-0.026,0.411-0.034c-0.738,0.76-1.189,1.841-0.619,2.674c0.412,0.602,1.14,0.625,1.779,0.404
			c0.458-0.158,0.883-0.433,1.307-0.662c0.427-0.232,0.871-0.432,1.248-0.717c0.191,0.932,0.722,1.904,1.49,2.255
			c1.25,0.572,2.255-0.886,2.718-1.846c0.563-1.168,0.324-2.588-0.958-3.12c-0.387-0.161-0.888-0.265-1.398-0.28
			C69.25,181.389,69.969,178.849,68.298,179.11z"/>
		<path style="fill:#C5CC33;" d="M75.84,170.891c1.275,0.199,2.183,1.26,2.578,2.466c0.153-0.47,0.308-0.94,0.484-1.402
			c0.208-0.547,0.503-1.163,1.188-1.123c0.645,0.037,0.846,0.522,0.833,1.102c0.369-0.362,0.788-0.679,1.2-0.95
			c0.475-0.313,1.3-0.9,1.885-0.459c0.876,0.661,0.001,2.042-0.84,2.809c0.124,0.024,0.254,0.035,0.37,0.074
			c1.108,0.376,1.817,1.386,2.062,2.489c0.102,0.462-0.329,0.74-0.735,0.665c-1.089-0.204-2.178-0.435-3.274-0.602
			c-0.132-0.02-0.272-0.027-0.411-0.034c0.738,0.759,1.189,1.841,0.619,2.673c-0.412,0.602-1.14,0.625-1.779,0.404
			c-0.458-0.158-0.883-0.433-1.307-0.662c-0.427-0.231-0.871-0.432-1.248-0.717c-0.191,0.932-0.723,1.904-1.49,2.255
			c-1.25,0.572-2.255-0.886-2.718-1.846c-0.563-1.168-0.324-2.588,0.958-3.119c0.387-0.161,0.888-0.265,1.399-0.28
			C74.888,173.17,74.169,170.63,75.84,170.891z"/>
		<path style="fill:#C5CC33;" d="M95.687,106.48c-0.665-0.727-2.381-0.248-3.143,0.034c-0.295,0.109-0.587,0.246-0.87,0.403
			c0.248-0.474,0.497-0.951,0.68-1.441c0.237-0.635,0.093-1.308-0.705-1.373c-0.818-0.066-1.675,0.883-2.117,1.459
			c-0.501,0.654-0.805,1.37-0.953,2.147c-0.824-1.262-2.343-2.852-3.345-1.621c-0.497,0.611-0.053,1.276,0.45,1.687
			c0.647,0.528,1.473,1.115,2.304,1.495c-1.282,0.204-2.848,0.767-2.419,1.87c0.227,0.582,1.088,0.659,1.614,0.712
			c0.57,0.058,1.312,0.08,1.861-0.186c-0.197,1.824,0.607,4.791,2.298,3.256c0.767-0.696,1.85-1.274,1.386-2.493
			c-0.086-0.225-0.23-0.437-0.393-0.643c0.904-0.03,2.239-0.166,2.719-0.928c0.408-0.647-0.059-1.191-0.627-1.493
			c-0.053-0.233-0.203-0.441-0.514-0.435c-0.049-0.001-0.104-0.005-0.154-0.007C95.169,108.183,96.371,107.227,95.687,106.48z"/>
		<path style="fill:#ADBC2B;" d="M96.856,122.604c-0.526-1.137-2.232-0.905-3.153-0.627c-0.972,0.293-1.957,0.651-2.903,1.081
			c0.582-0.876,1.049-1.811,1.037-2.857c-0.004-0.315-0.33-0.473-0.596-0.342c-0.964,0.476-1.663,1.256-2.021,2.187
			c-0.24-1.254-0.808-2.524-1.33-3.568c-0.168-0.337-0.61-0.193-0.724,0.094c-0.337,0.848-0.426,1.78-0.249,2.651
			c-1.071-1.12-3.029-2.701-4.128-1.492c-0.592,0.652-0.051,1.319,0.542,1.698c0.413,0.263,0.883,0.567,1.369,0.858
			c-0.254-0.004-0.51-0.003-0.791,0.037c-1.063,0.154-2.424,0.701-3.047,1.637c-0.719,1.081,0.469,1.524,1.37,1.542
			c0.648,0.013,1.37-0.04,2.093-0.137c-1.13,0.781-2.026,1.9-2,3.151c0.006,0.295,0.227,0.47,0.502,0.502
			c1.031,0.119,1.986-0.834,2.784-1.363c0.488-0.323,1.012-0.623,1.505-0.96c-0.23,0.751-0.167,1.623-0.028,2.444
			c0.148,0.872,0.621,3.352,1.882,3.24c1.182-0.105,1.803-1.903,1.896-2.86c0.054-0.554-0.026-1.181-0.169-1.806
			c0.13,0.116,0.248,0.241,0.386,0.349c0.749,0.584,2.553,1.884,3.427,0.8c0.804-0.998-0.168-2.585-0.92-3.267
			c-0.271-0.247-0.576-0.453-0.892-0.642c0.81-0.162,1.608-0.37,2.294-0.524C95.811,124.246,97.428,123.842,96.856,122.604z"/>
		<path style="fill:#ADBC2B;" d="M73.76,189.344c-0.526-1.137-2.232-0.905-3.153-0.627c-0.972,0.293-1.957,0.651-2.903,1.081
			c0.582-0.876,1.049-1.811,1.037-2.857c-0.004-0.315-0.33-0.473-0.596-0.342c-0.964,0.476-1.663,1.256-2.021,2.187
			c-0.24-1.254-0.808-2.524-1.33-3.568c-0.169-0.337-0.61-0.193-0.724,0.095c-0.337,0.848-0.426,1.78-0.249,2.651
			c-1.071-1.12-3.029-2.701-4.128-1.492c-0.592,0.652-0.05,1.32,0.542,1.698c0.413,0.264,0.883,0.567,1.369,0.859
			c-0.254-0.004-0.51-0.003-0.791,0.037c-1.063,0.154-2.424,0.701-3.047,1.637c-0.719,1.081,0.469,1.524,1.37,1.542
			c0.648,0.013,1.37-0.04,2.093-0.136c-1.13,0.781-2.026,1.9-2,3.152c0.006,0.294,0.227,0.47,0.501,0.501
			c1.03,0.119,1.986-0.834,2.784-1.363c0.487-0.323,1.012-0.623,1.505-0.96c-0.23,0.751-0.167,1.623-0.028,2.444
			c0.148,0.872,0.621,3.351,1.882,3.24c1.182-0.105,1.803-1.902,1.896-2.86c0.054-0.554-0.026-1.181-0.169-1.806
			c0.13,0.116,0.248,0.241,0.386,0.349c0.749,0.585,2.553,1.884,3.428,0.8c0.804-0.997-0.168-2.584-0.92-3.267
			c-0.271-0.247-0.576-0.453-0.891-0.642c0.81-0.162,1.608-0.37,2.294-0.524C72.716,190.986,74.333,190.582,73.76,189.344z"/>
		<path style="fill:#ADBC2B;" d="M78.246,129.955c-1-1.021-2.186-0.097-2.917,1.098c-0.301-1.237-0.713-2.487-2.064-2.607
			c-0.428-0.038-0.845,0.134-1.152,0.411c-0.044-2.357-0.828-7.11-3.169-5.613c-0.94,0.601-1.188,1.67-1.058,2.819
			c-1.662-2.313-3.824-4.184-6.766-4.828c-0.139-0.031-0.317-0.009-0.415,0.109c-1.086,1.318,1.068,2.493,1.968,3.176
			c0.919,0.698,1.93,1.513,2.985,2.273c-0.732-0.17-1.467-0.312-2.179-0.403c-1.061-0.137-3.265-0.594-3.795,0.819
			c-0.393,1.049,0.439,1.485,1.298,1.621c1.365,0.216,2.738,0.293,4.099,0.542c-0.89,0.124-1.561,0.532-1.723,1.414
			c-0.257,1.389,1.357,1.655,2.343,1.886c1.213,0.285,2.5,0.505,3.76,0.461c-0.215,0.056-0.429,0.109-0.644,0.174
			c-0.555,0.169-0.501,0.886,0,1.075c1.72,0.651,3.433,1.328,5.163,1.955c0.783,0.283,1.555,0.526,2.319,0.435
			c0.033,0.004,0.065,0,0.098-0.003c0.036-0.006,0.073-0.013,0.109-0.02c0.023-0.008,0.045-0.014,0.068-0.026
			c0.233-0.055,0.465-0.128,0.696-0.266c0.25-0.149,0.22-0.443,0.043-0.598c0.595-0.848,1.03-1.782,1.232-2.823
			C78.711,132.176,78.937,130.661,78.246,129.955z"/>
		<path style="fill:#ADBC2B;" d="M77.532,147.661c1.228-0.717,2.301-2.058,1.79-2.979c-0.475-0.855-1.787-0.92-2.642-0.742
			c-0.572,0.119-1.09,0.383-1.543,0.734c-0.129-0.937-0.542-1.843-1.158-2.562c-0.865-1.009-2.683-2.405-4.087-2.454
			c-1.424-0.05-1.126,1.419-0.824,2.348c0.104,0.319,0.239,0.619,0.383,0.913c-1.134-0.492-2.306-0.881-3.357-1.188
			c-1.529-0.447-3.338-0.653-4.223,0.93c-0.151,0.27-0.055,0.588,0.198,0.755c2.446,1.607,5.5,2.239,8.441,2.916
			c-2.391,0.358-6.45,0.747-6.491,2.909c-0.034,1.799,5.449-0.039,8.348,0.61c-3.216,2.633-2.692,2.972-0.969,4.21
			c1.972,1.417,5.92-0.473,5.071-2.936C79.292,150.868,78.876,148.846,77.532,147.661z"/>
		<path style="fill:#ADBC2B;" d="M66.669,172.387c0.975-0.192,2.483-0.873,2.394-2.106c-0.106-1.459-2.47-1.53-3.448-1.666
			c-0.282-0.039-0.583-0.069-0.877-0.104c0.137-0.082,0.291-0.145,0.416-0.238c0.851-0.634,0.755-1.696-0.234-2.117
			c-1.763-0.751-4.33,0.144-5.558,1.743c-1.207-1.644-3.376-2.609-5.354-2.675c-0.311-0.01-0.611,0.281-0.596,0.596
			c0.046,0.98,0.299,1.898,0.749,2.699c-1.148-0.289-2.329-0.372-3.581-0.178c-1.575,0.244-4.408,1.088-5.231,2.614
			c-1.289,2.39,3.364,1.935,6.676,1.334c-0.134,0.107-0.286,0.194-0.406,0.316c-0.874,0.889-1.576,2.536-0.913,3.733
			c0.762,1.378,2.226,0.495,3.142-0.155c1.114-0.791,2.429-1.613,3.546-2.574c-0.18,1.553,0.322,3.157,0.908,4.648
			c0.145,0.367,0.538,0.485,0.846,0.223c1.173-0.994,1.78-2.914,1.631-4.657c0.551,0.488,1.144,0.931,1.729,1.315
			c0.869,0.57,3.017,2.245,4.049,1.157c1.161-1.226-0.378-2.724-2.217-3.822C65.137,172.533,65.931,172.533,66.669,172.387z"/>
		<path style="fill:#ADBC2B;" d="M83.228,193.072c-0.975-0.192-2.483-0.872-2.393-2.106c0.106-1.46,2.469-1.531,3.447-1.666
			c0.282-0.039,0.583-0.069,0.878-0.104c-0.137-0.082-0.291-0.145-0.416-0.238c-0.851-0.634-0.755-1.696,0.234-2.117
			c1.763-0.751,4.33,0.144,5.558,1.743c1.207-1.644,3.376-2.609,5.354-2.675c0.311-0.01,0.611,0.281,0.596,0.596
			c-0.046,0.98-0.299,1.898-0.749,2.699c1.148-0.289,2.329-0.372,3.581-0.178c1.575,0.244,4.408,1.088,5.231,2.614
			c1.289,2.39-3.364,1.935-6.676,1.334c0.134,0.108,0.286,0.194,0.406,0.316c0.874,0.889,1.575,2.536,0.913,3.734
			c-0.762,1.377-2.226,0.495-3.142-0.155c-1.114-0.792-2.429-1.613-3.546-2.575c0.179,1.553-0.322,3.157-0.909,4.648
			c-0.145,0.367-0.537,0.484-0.846,0.223c-1.174-0.994-1.78-2.915-1.631-4.657c-0.551,0.488-1.144,0.931-1.729,1.315
			c-0.87,0.571-3.017,2.246-4.048,1.157c-1.161-1.226,0.378-2.724,2.217-3.822C84.76,193.218,83.966,193.217,83.228,193.072z"/>
		<path style="fill:#C5CC33;" d="M83.133,134.526c-0.665-0.727-2.381-0.248-3.143,0.034c-0.295,0.109-0.587,0.246-0.871,0.403
			c0.248-0.473,0.497-0.951,0.68-1.441c0.237-0.635,0.094-1.308-0.705-1.373c-0.818-0.066-1.675,0.883-2.117,1.459
			c-0.501,0.654-0.805,1.37-0.954,2.147c-0.824-1.262-2.342-2.851-3.344-1.621c-0.498,0.611-0.054,1.276,0.449,1.686
			c0.648,0.529,1.473,1.115,2.304,1.495c-1.281,0.204-2.848,0.767-2.419,1.87c0.227,0.582,1.088,0.659,1.614,0.712
			c0.57,0.058,1.312,0.08,1.861-0.186c-0.197,1.824,0.608,4.791,2.298,3.256c0.767-0.696,1.851-1.274,1.386-2.493
			c-0.086-0.225-0.23-0.438-0.393-0.643c0.904-0.03,2.239-0.166,2.719-0.928c0.408-0.647-0.059-1.191-0.627-1.493
			c-0.053-0.233-0.203-0.441-0.515-0.435c-0.049-0.001-0.104-0.005-0.154-0.007C82.614,136.229,83.816,135.273,83.133,134.526z"/>
		<path style="fill:#C5CC33;" d="M93.873,165.479c1.275,0.199,2.183,1.26,2.578,2.466c0.153-0.47,0.307-0.94,0.483-1.402
			c0.208-0.547,0.503-1.163,1.188-1.123c0.645,0.038,0.846,0.522,0.833,1.102c0.369-0.362,0.788-0.679,1.199-0.95
			c0.475-0.313,1.3-0.9,1.885-0.459c0.876,0.661,0.001,2.042-0.84,2.809c0.124,0.024,0.253,0.035,0.37,0.074
			c1.108,0.377,1.817,1.386,2.062,2.489c0.103,0.462-0.329,0.74-0.734,0.665c-1.089-0.204-2.178-0.435-3.274-0.602
			c-0.132-0.02-0.272-0.026-0.411-0.034c0.738,0.759,1.189,1.841,0.619,2.673c-0.412,0.602-1.14,0.625-1.779,0.404
			c-0.458-0.158-0.883-0.433-1.307-0.662c-0.427-0.231-0.871-0.432-1.248-0.717c-0.192,0.932-0.723,1.904-1.49,2.255
			c-1.25,0.572-2.255-0.886-2.718-1.846c-0.563-1.168-0.324-2.588,0.958-3.119c0.387-0.161,0.888-0.265,1.399-0.28
			C92.921,167.759,92.202,165.218,93.873,165.479z"/>
		<path style="fill:#ADBC2B;" d="M82.499,150.596c1-1.021,2.186-0.097,2.917,1.098c0.301-1.237,0.713-2.487,2.064-2.607
			c0.428-0.038,0.845,0.134,1.152,0.41c0.044-2.357,0.828-7.11,3.169-5.613c0.94,0.602,1.188,1.67,1.058,2.818
			c1.662-2.313,3.824-4.184,6.766-4.828c0.139-0.031,0.317-0.009,0.415,0.11c1.086,1.318-1.068,2.493-1.968,3.176
			c-0.919,0.698-1.929,1.512-2.985,2.273c0.732-0.17,1.467-0.311,2.179-0.403c1.061-0.137,3.265-0.594,3.795,0.819
			c0.394,1.049-0.439,1.485-1.297,1.621c-1.365,0.216-2.738,0.293-4.099,0.542c0.89,0.124,1.561,0.533,1.724,1.414
			c0.257,1.389-1.357,1.655-2.343,1.887c-1.213,0.285-2.5,0.504-3.76,0.46c0.215,0.055,0.43,0.109,0.644,0.174
			c0.555,0.169,0.501,0.885,0,1.075c-1.72,0.651-3.433,1.328-5.163,1.955c-0.783,0.284-1.555,0.526-2.319,0.435
			c-0.033,0.004-0.065,0-0.098-0.003c-0.036-0.006-0.072-0.013-0.109-0.02c-0.023-0.008-0.045-0.014-0.067-0.026
			c-0.233-0.055-0.465-0.128-0.697-0.266c-0.249-0.149-0.22-0.443-0.043-0.597c-0.595-0.848-1.03-1.782-1.232-2.822
			C82.034,152.818,81.808,151.302,82.499,150.596z"/>
		<path style="fill:#ADBC2B;" d="M83.213,168.302c-1.228-0.717-2.301-2.058-1.79-2.979c0.475-0.855,1.787-0.919,2.642-0.742
			c0.572,0.119,1.09,0.382,1.543,0.734c0.129-0.937,0.541-1.843,1.158-2.562c0.865-1.009,2.683-2.405,4.087-2.455
			c1.424-0.05,1.127,1.419,0.824,2.348c-0.104,0.319-0.239,0.619-0.383,0.913c1.134-0.492,2.306-0.881,3.357-1.188
			c1.529-0.447,3.338-0.653,4.223,0.93c0.151,0.27,0.056,0.588-0.198,0.755c-2.446,1.607-5.5,2.239-8.441,2.916
			c2.391,0.358,6.45,0.747,6.491,2.909c0.034,1.799-5.449-0.039-8.348,0.61c3.216,2.632,2.692,2.972,0.969,4.21
			c-1.972,1.417-5.92-0.474-5.071-2.936C81.453,171.51,81.869,169.487,83.213,168.302z"/>
		<path style="fill:#C5CC33;" d="M77.612,155.167c0.665-0.727,2.381-0.249,3.143,0.034c0.295,0.109,0.587,0.246,0.87,0.403
			c-0.247-0.474-0.497-0.951-0.68-1.441c-0.237-0.635-0.094-1.308,0.705-1.373c0.818-0.066,1.675,0.883,2.117,1.459
			c0.501,0.654,0.805,1.37,0.954,2.147c0.824-1.262,2.342-2.851,3.344-1.621c0.497,0.611,0.053,1.276-0.449,1.687
			c-0.648,0.528-1.473,1.115-2.304,1.495c1.281,0.204,2.849,0.767,2.419,1.87c-0.227,0.583-1.088,0.66-1.614,0.712
			c-0.57,0.058-1.312,0.08-1.861-0.186c0.197,1.823-0.607,4.791-2.298,3.256c-0.767-0.696-1.85-1.274-1.386-2.493
			c0.086-0.225,0.23-0.438,0.393-0.643c-0.904-0.03-2.239-0.166-2.719-0.929c-0.408-0.647,0.059-1.19,0.627-1.493
			c0.053-0.233,0.203-0.441,0.514-0.435c0.049-0.001,0.104-0.005,0.154-0.007C78.131,156.87,76.929,155.914,77.612,155.167z"/>
		<path style="fill:#C5CC33;" d="M59.609,162.004c0.665-0.727,2.381-0.248,3.143,0.034c0.295,0.109,0.587,0.246,0.87,0.403
			c-0.248-0.473-0.497-0.951-0.68-1.441c-0.238-0.635-0.094-1.308,0.705-1.373c0.818-0.066,1.675,0.883,2.117,1.459
			c0.501,0.654,0.805,1.37,0.954,2.147c0.824-1.262,2.342-2.852,3.344-1.621c0.497,0.611,0.053,1.276-0.449,1.687
			c-0.648,0.528-1.473,1.115-2.304,1.495c1.281,0.204,2.848,0.767,2.419,1.87c-0.227,0.582-1.088,0.659-1.614,0.712
			c-0.57,0.058-1.312,0.08-1.861-0.186c0.197,1.824-0.607,4.791-2.298,3.256c-0.767-0.696-1.85-1.274-1.386-2.493
			c0.086-0.225,0.23-0.438,0.393-0.643c-0.904-0.03-2.239-0.166-2.719-0.928c-0.408-0.647,0.059-1.191,0.627-1.494
			c0.053-0.233,0.203-0.441,0.514-0.435c0.049-0.001,0.104-0.006,0.154-0.007C60.128,163.707,58.925,162.752,59.609,162.004z"/>
	</g>
	<g>
		<path style="fill:#2B1822;" d="M301.298,78.793c-0.065-0.472-0.783-0.495-0.848-0.009c-0.269,2.009-0.587,10.265,0.124,12.095
			c0.106,0.273,0.539,0.295,0.648,0.01C301.858,89.231,301.61,81.045,301.298,78.793z"/>
		<path style="fill:#2B1822;" d="M301.797,93.416c-0.501-0.501-1.529-0.316-1.675,0.442c-0.011,0.058-0.022,0.116-0.033,0.174
			c-0.132,0.691,0.401,1.224,1.092,1.092c0.058-0.011,0.116-0.022,0.174-0.034C302.112,94.945,302.298,93.917,301.797,93.416z"/>
	</g>
	<g>
		<path style="fill:#2B1822;" d="M307.447,78.793c-0.065-0.472-0.782-0.495-0.848-0.009c-0.27,2.009-0.587,10.265,0.124,12.095
			c0.106,0.273,0.539,0.295,0.648,0.01C308.007,89.231,307.76,81.045,307.447,78.793z"/>
		<path style="fill:#2B1822;" d="M307.946,93.416c-0.501-0.501-1.529-0.316-1.675,0.442c-0.011,0.058-0.022,0.116-0.033,0.174
			c-0.133,0.691,0.401,1.224,1.092,1.092c0.058-0.011,0.116-0.022,0.174-0.034C308.262,94.945,308.447,93.917,307.946,93.416z"/>
	</g>
	<g>
		<path style="fill:#2B1822;" d="M313.264,78.793c-0.065-0.472-0.783-0.495-0.848-0.009c-0.269,2.009-0.587,10.265,0.124,12.095
			c0.106,0.273,0.539,0.295,0.648,0.01C313.824,89.231,313.576,81.045,313.264,78.793z"/>
		<path style="fill:#2B1822;" d="M313.763,93.416c-0.501-0.501-1.529-0.316-1.675,0.442c-0.011,0.058-0.022,0.116-0.033,0.174
			c-0.132,0.691,0.401,1.224,1.092,1.092c0.058-0.011,0.116-0.022,0.174-0.034C314.078,94.945,314.264,93.917,313.763,93.416z"/>
	</g>
	<path style="fill:#FA4146;" d="M194.227,96.053c-3.74-4.424-7.927,0.032-9.38,1.88c-1.453-1.847-5.639-6.303-9.38-1.88
		c-6.455,7.635,9.371,14.711,9.371,14.711l0.009-0.199l0.009,0.199C184.857,110.764,200.682,103.688,194.227,96.053z"/>
</g>
</svg>
